<svg xmlns="http://www.w3.org/2000/svg" viewBox="0 0 841.8898 238.1102"><defs><style>.a{fill:#231815;}.b{fill:#fff;}.c{fill:#e2356b;}.d{fill:#f692ab;}.e{fill:none;stroke:#231815;stroke-linecap:round;stroke-linejoin:round;stroke-width:0.6237px;}</style></defs><title>vldb2020-banner</title><path class="a" d="M796.5452,172.6142a15.7571,15.7571,0,0,1-15.041,11.4287H653.5725A15.6117,15.6117,0,0,1,638.6087,163.98l2.7724-9.3194a15.5692,15.5692,0,0,1,2.26-4.624,18.0273,18.0273,0,0,1,.832-5.2012l.668-2.5332a15.63,15.63,0,0,1,2.3252-4.998q.5684-.8087,1.1387-1.5977a15.6022,15.6022,0,0,1,1.6279-1.914,17.3616,17.3616,0,0,1,6.0959-3.94l5.7575-18.85H601.195c.0351.055.0737.1078.1083.1631a21.2921,21.2921,0,0,1,3.164,11.4658c0,4.957-.9375,12.4853-12.1406,44.623A19.4588,19.4588,0,0,1,590.22,171.53c-5.1845,7.91-13.0888,12.4472-21.6855,12.4472H348.4429a19.5146,19.5146,0,0,1-18.499-25.7275l1.0107-3.0088a19.5133,19.5133,0,0,1-9.2636-23.4629L332.34,100.3538a19.4756,19.4756,0,0,1,2.696-5.1969L326.3609,55.84a19.5174,19.5174,0,0,1,.3906-9.8975l5.4863-17.9912a19.5142,19.5142,0,0,1,18.666-13.8222H367.523A19.5217,19.5217,0,0,1,374.6,15.4573a19.4783,19.4783,0,0,1,7.7666-1.61h14.5625a19.4988,19.4988,0,0,1,6.5276,1.1283,19.4649,19.4649,0,0,1,5.6375-.846h30.4951a19.5113,19.5113,0,0,1,14.7057,6.6964,19.5,19.5,0,0,1,14.7005-6.6964H506.147q.7163,0,1.4307.0527a38.09,38.09,0,0,1,6.6367,1.082q.3794.0968.7539.209a31.7832,31.7832,0,0,1,3.74,1.4015,19.4627,19.4627,0,0,1,9.6395-2.6241l36.167-.1954c.7031-.0576,1.4043-.0869,2.0976-.0869a26.0049,26.0049,0,0,1,10.8878,2.39,19.4521,19.4521,0,0,1,9.7655-2.6325h39.2491a19.5584,19.5584,0,0,1,4.0459.4239,31.499,31.499,0,0,1,9.2918,3.4776,26.6585,26.6585,0,0,1,4.7375-2.08q.2182-.0717.4394-.1386c3.1934-.9659,6.8281-1.3594,12.5449-1.3594h28.52q.6489,0,1.2959.043a26.386,26.386,0,0,1,8.497,2.0214c.183.0732.3584.1619.54.2387a19.4521,19.4521,0,0,1,9.7553-2.6264h39.249a19.5577,19.5577,0,0,1,4.0459.4239,31.5007,31.5007,0,0,1,9.2919,3.4776,26.6544,26.6544,0,0,1,4.7374-2.08q.2182-.0717.4394-.1386c3.1934-.9659,6.8282-1.3594,12.545-1.3594H805.01q.6489,0,1.2959.043a26.3872,26.3872,0,0,1,8.4971,2.0214,29.64,29.64,0,0,1,13.0693,10.293c.0527.0733.1055.1475.1572.2217,2.5186,3.6074,4.9594,7.9986,3.7959,12.623C826,62.4076,803.0907,150.5707,796.5452,172.6142Z"/><path class="b" d="M348.6553,91.4886a5.8542,5.8542,0,0,1-5.7168-4.5927l-8.794-39.8535a5.8517,5.8517,0,0,1,.1172-2.97l5.4863-17.9912a5.8544,5.8544,0,0,1,5.6-4.1465h16.6191a5.8538,5.8538,0,0,1,5.6025,7.5528l-1.6425,5.42,2.6005.02,2.6665-9.0713a5.8545,5.8545,0,0,1,5.6167-4.2041H391.373a5.8542,5.8542,0,0,1,5.6143,7.5137L391.2188,48.69a5.8382,5.8382,0,0,1-.5455,1.27L368.3667,88.5629a5.8538,5.8538,0,0,1-5.0688,2.9257Z"/><path class="b" d="M392.9287,91.4886a5.8589,5.8589,0,0,1-.9424-.0761,11.6117,11.6117,0,0,1-9.6718-11.5469,5.8435,5.8435,0,0,1,.24-1.6572l15.3691-52.0762a5.8535,5.8535,0,0,1,5.6148-4.1973h30.4951a5.8547,5.8547,0,0,1,5.6089,7.5323c-2.85,9.5244-5.418,18.7773-7.6362,27.5048-.0386.21-.0713.418-.0977.6221h9.95a5.8551,5.8551,0,0,1,5.5479,7.7246c-1.5943,4.7295-3.4795,10.4883-5.605,17.1221-1.1729,6.6572-5.9693,9.0478-10.148,9.0478ZM431.876,59.6781Z"/><path class="b" d="M445.7715,91.4886a5.8541,5.8541,0,0,1-5.5991-7.5644L457.84,26.08a5.8539,5.8539,0,0,1,5.5992-4.1446h37.1513c.1431,0,.2862.0049.4292.0157a24.4573,24.4573,0,0,1,4.25.6914c.0757.02.1514.041.2261.0634a15.59,15.59,0,0,1,8.3818,5.7413,8.0671,8.0671,0,0,1,1.482,5.03c0,3.6221-1.1988,12.2725-11.5606,45.4326-1.396,4.7081-5.4282,8.7647-11.9585,11.9776a5.8567,5.8567,0,0,1-2.5844.6015Zm28.8393-38.8671a7.32,7.32,0,0,0,4.8423,1.3418A5.8265,5.8265,0,0,0,483.2,52.8021a1.6362,1.6362,0,0,0,.8057-1.5361,3.7961,3.7961,0,0,0-1.2286-3.085,4.9583,4.9583,0,0,0-3.6464-1.3056,5.0218,5.0218,0,0,0-3.7422,1.3847,4.3427,4.3427,0,0,0-1.5772,2.5977A2.4363,2.4363,0,0,0,474.6108,52.6215Z"/><path class="b" d="M505.23,91.4886a5.855,5.855,0,0,1-5.5982-7.5683l17.668-57.7236a5.8546,5.8546,0,0,1,5.5664-4.1407l36.7822-.1992a12.3872,12.3872,0,0,1,1.4087-.083A12.88,12.88,0,0,1,571.65,27.3676a6.5768,6.5768,0,0,1,1.3931,4.2539c0,1.8037-.4868,5.5341-4.0987,19.5341-.59,2.3584-2.1411,4.6143-4.8715,7.0567q-.3641.3237-.7305.6269a14.8308,14.8308,0,0,1,1.7544,6.666,8.6621,8.6621,0,0,1-.3467,2.417l-4.1035,14.7247a5.8557,5.8557,0,0,1-.7022,1.5742c-3.8261,6.0068-8.4384,7.2675-11.6338,7.2675Zm18.1572-19.5693a1.9771,1.9771,0,0,0,.7652,1.6094c.3627.3447,1.4848,1.41,4.8364,1.41a5.9491,5.9491,0,0,0,3.7837-1.1494,1.6529,1.6529,0,0,0,.769-1.5879,3.7474,3.7474,0,0,0-1.2285-3.0439,5.6859,5.6859,0,0,0-7.36.0908,4.2629,4.2629,0,0,0-1.5659,2.5547Zm8.4717-24.4853a2.02,2.02,0,0,0,.7651,1.6513c.958.8975,2.5967,1.3692,4.8355,1.3692a6.0109,6.0109,0,0,0,3.8022-1.1446,1.6384,1.6384,0,0,0,.75-1.5937,3.75,3.75,0,0,0-1.23-3.0449,5.6837,5.6837,0,0,0-7.3584.0927,4.2532,4.2532,0,0,0-1.5649,2.5528Z"/><path class="b" d="M564.6875,91.4886a5.8543,5.8543,0,0,1-5.5972-7.57l6.9385-22.63c.043-.1407.0913-.28.145-.417,2.6089-6.668,5.5049-11.1211,8.8535-13.6143a14.7677,14.7677,0,0,1,3.712-1.916,5.8542,5.8542,0,0,1-5.59-7.2022l2.8643-12.1015a5.8543,5.8543,0,0,1,5.6968-4.5059h39.249a5.8922,5.8922,0,0,1,1.2139.127c3.5424.7509,6.1142,2.0439,7.8623,3.9511a11.9875,11.9875,0,0,1,2.8691,8.3916c0,.82-.03,1.7149-.0918,2.7334a5.8584,5.8584,0,0,1-.2085,1.2334c-.8862,3.1475-2.4951,7.792-4.9194,14.1993q-.066.1757-.1436.3457a12.8916,12.8916,0,0,1-4.9018,5.5986,5.8557,5.8557,0,0,1,3.1411,7.207c-1.6153,4.792-4.0347,12.2266-7.1914,22.0987a5.8548,5.8548,0,0,1-5.5762,4.0712Z"/><path class="b" d="M630.7607,91.4886a5.8567,5.8567,0,0,1-.9423-.0761,11.6117,11.6117,0,0,1-9.6719-11.5469,5.8771,5.8771,0,0,1,.2568-1.7158l14.5625-47.5176a5.9076,5.9076,0,0,1,.4546-1.0811,13.8735,13.8735,0,0,1,7.8745-6.88c.044-.0137.0879-.0284.1319-.0411,1.1933-.3613,3.248-.7753,8.5918-.7753h28.5195c.13,0,.26.0048.3891.0127a12.7771,12.7771,0,0,1,4.2154,1.0293,15.7879,15.7879,0,0,1,7.167,5.63,8.1567,8.1567,0,0,1,1.3838,4.87c0,4.2011-1.62,13.6386-14.2466,49.6171a5.8451,5.8451,0,0,1-.5864,1.2071c-3.8262,6.0068-8.461,7.2675-11.6749,7.2675Zm22.2251-38.8652a7.1467,7.1467,0,0,0,4.8013,1.34,5.8993,5.8993,0,0,0,3.7813-1.1729,1.6238,1.6238,0,0,0,.8115-1.5244,3.767,3.767,0,0,0-1.2349-3.0713,4.969,4.969,0,0,0-3.64-1.3193,5.0884,5.0884,0,0,0-3.7764,1.3974,4.1217,4.1217,0,0,0-1.543,2.5469v.0029A2.4307,2.4307,0,0,0,652.9858,52.6234Z"/><path class="b" d="M683.6035,91.4886a5.8543,5.8543,0,0,1-5.5972-7.57l6.9385-22.63c.043-.1407.0913-.28.145-.417,2.6089-6.668,5.5049-11.1211,8.8536-13.6143a14.7671,14.7671,0,0,1,3.7119-1.916,5.8542,5.8542,0,0,1-5.59-7.2022l2.8643-12.1015a5.8543,5.8543,0,0,1,5.6968-4.5059h39.249a5.8922,5.8922,0,0,1,1.2139.127c3.5424.7509,6.1142,2.0439,7.8623,3.9511a11.9875,11.9875,0,0,1,2.8691,8.3916c0,.82-.03,1.7149-.0918,2.7334a5.8584,5.8584,0,0,1-.2085,1.2334c-.8862,3.1475-2.4951,7.792-4.9194,14.1993q-.066.1757-.1436.3457a12.8916,12.8916,0,0,1-4.9018,5.5986,5.8557,5.8557,0,0,1,3.1411,7.207c-1.6152,4.792-4.0347,12.2266-7.1914,22.0987a5.8548,5.8548,0,0,1-5.5762,4.0712Z"/><path class="b" d="M749.6768,91.4886a5.857,5.857,0,0,1-.9424-.0761,11.6117,11.6117,0,0,1-9.6719-11.5469,5.8771,5.8771,0,0,1,.2568-1.7158l14.5625-47.5176a5.9076,5.9076,0,0,1,.4546-1.0811,13.8735,13.8735,0,0,1,7.8745-6.88c.044-.0137.0879-.0284.1319-.0411,1.1933-.3613,3.248-.7753,8.5918-.7753h28.5195c.13,0,.26.0048.3892.0127a12.7771,12.7771,0,0,1,4.2153,1.0293,15.7874,15.7874,0,0,1,7.167,5.63,8.156,8.156,0,0,1,1.3838,4.87c0,4.2011-1.62,13.6386-14.2466,49.6171a5.84,5.84,0,0,1-.5864,1.2071c-3.8262,6.0068-8.461,7.2675-11.6748,7.2675Zm22.2251-38.8652a7.1462,7.1462,0,0,0,4.8012,1.34,5.8993,5.8993,0,0,0,3.7813-1.1729,1.6238,1.6238,0,0,0,.8115-1.5244,3.767,3.767,0,0,0-1.2349-3.0713,4.969,4.969,0,0,0-3.64-1.3193,5.0884,5.0884,0,0,0-3.7764,1.3974,4.1208,4.1208,0,0,0-1.5429,2.5469v.0029A2.43,2.43,0,0,0,771.9019,52.6234Z"/><path class="b" d="M342.8867,164.4623a5.8543,5.8543,0,0,1-5.55-7.7188l6.2818-18.7021h-9.0015a5.8544,5.8544,0,0,1-5.5444-7.7334l10.6494-31.4238a5.8547,5.8547,0,0,1,5.5341-3.9756l46.3589-.08a5.854,5.854,0,0,1,5.5738,7.6455l-10.125,31.5039a5.8545,5.8545,0,0,1-5.5738,4.0635H371.249l-6.8745,22.292a5.8544,5.8544,0,0,1-5.5942,4.1289Z"/><path class="b" d="M390.9785,164.4623a5.8613,5.8613,0,0,1-.7407-.0469,10.067,10.067,0,0,1-6.3682-3.4443,10.4658,10.4658,0,0,1-2.5776-7.002,5.8425,5.8425,0,0,1,.2578-1.7168l11.6567-37.998a5.8438,5.8438,0,0,1,.4947-1.1533,12.3963,12.3963,0,0,1,7.0239-6.0118c.0464-.0146.0928-.0293.1392-.0429a26.5964,26.5964,0,0,1,7.1367-.6416h22.831c.1724,0,.3443.0078.5161.0224a11.8557,11.8557,0,0,1,3.53.8858,13.6239,13.6239,0,0,1,6.3033,4.959c.0639.09.1245.1816.1831.2753a7.7622,7.7622,0,0,1,1.0908,4.23c0,3.4844-1.2935,11.1943-11.3789,40.126a5.8215,5.8215,0,0,1-.6324,1.2822c-3.4,5.1875-7.4565,6.2764-10.2612,6.2764ZM409.5879,131.34a4.831,4.831,0,0,0,3.0517.76,3.6133,3.6133,0,0,0,2.3213-.7344,1.7342,1.7342,0,0,0,.2095-.1807,1.987,1.987,0,0,0-.62-1.7207,2.755,2.755,0,0,0-2.1118-.7412,2.94,2.94,0,0,0-2.2818.792,2.72,2.72,0,0,0-.86,1.2861v.0137C409.2969,130.8959,409.2969,131.0267,409.5879,131.34Z"/><path class="b" d="M467.0146,164.4623a5.8536,5.8536,0,0,1-5.2778-3.3213l-4.228-8.8086-2.4116-.0186-2.6939,8.1348a5.8552,5.8552,0,0,1-5.5576,4.0137H433.333a5.8547,5.8547,0,0,1-5.5981-7.5674l14.1582-46.2676a5.8541,5.8541,0,0,1,5.5976-4.1416c.0186,0,12.7632.1211,12.7632.1211a5.8554,5.8554,0,0,1,5.5635,7.4971l-4.625,15.8183h.7163l6.2319-19.2627a5.8548,5.8548,0,0,1,5.57-4.0527h11.2549a5.8545,5.8545,0,0,1,5.6861,7.249L483.5112,142.98a5.922,5.922,0,0,1-.2075.67c-1.4082,3.7373-3.3159,5.9072-5.209,7.1465l2.4683,5.3652a5.8549,5.8549,0,0,1-5.3189,8.3008Z"/><path class="b" d="M493.0732,164.4623a5.854,5.854,0,0,1-5.5473-7.7246l4.5581-13.52-1.5205-.0127c-6.1074,0-8.9112-4.3311-8.9112-8.3555a10.1429,10.1429,0,0,1,.93-4.0947l7.0142-20.3242a5.8549,5.8549,0,0,1,5.5342-3.9444h13.23a5.8534,5.8534,0,0,1,5.8526,5.71l.519-1.7354a5.8564,5.8564,0,0,1,5.5479-4.1758s11.6176-.121,11.6381-.121a5.8541,5.8541,0,0,1,5.6055,7.5429L531.2437,134.56c-1.0127,3.5127-3.9375,6.2754-8.6939,8.212a5.8553,5.8553,0,0,1-2.1489.4326l-3.6641.0361-5.2392,17.084a5.8545,5.8545,0,0,1-5.5972,4.1377Z"/><path class="b" d="M533.7744,164.4623a5.8613,5.8613,0,0,1-.7407-.0469,10.067,10.067,0,0,1-6.3682-3.4443,10.4658,10.4658,0,0,1-2.5776-7.002,5.8425,5.8425,0,0,1,.2578-1.7168l11.6567-37.998a5.8438,5.8438,0,0,1,.4947-1.1533,12.3963,12.3963,0,0,1,7.0239-6.0118c.0464-.0146.0928-.0293.1392-.0429a26.5964,26.5964,0,0,1,7.1367-.6416h22.831c.1724,0,.3443.0078.5161.0224a11.8557,11.8557,0,0,1,3.53.8858,13.6239,13.6239,0,0,1,6.3033,4.959c.0639.09.1245.1816.1831.2753a7.7622,7.7622,0,0,1,1.0908,4.23c0,3.4844-1.2935,11.1943-11.3789,40.126a5.8215,5.8215,0,0,1-.6324,1.2822c-3.4,5.1875-7.4565,6.2764-10.2612,6.2764ZM552.3838,131.34a4.831,4.831,0,0,0,3.0517.76,3.6133,3.6133,0,0,0,2.3213-.7344,1.7342,1.7342,0,0,0,.21-.1807,1.987,1.987,0,0,0-.62-1.7207,2.755,2.755,0,0,0-2.1118-.7412,2.94,2.94,0,0,0-2.2818.792,2.72,2.72,0,0,0-.86,1.2861v.0137C552.0928,130.8959,552.0928,131.0267,552.3838,131.34Z"/><path class="c" d="M363.2979,85.6342H348.6553l-8.794-39.8536,5.4864-17.9912h16.6191l-3.9131,12.9082,14.8447.1211,3.9121-13.3115H391.373l-5.7685,19.5234Z"/><path class="c" d="M392.9287,85.6342a5.5588,5.5588,0,0,1-3.3682-1.9161,5.6546,5.6546,0,0,1-1.3916-3.8525l15.3692-52.0762h30.4951q-4.3565,14.562-7.7451,27.9141a16.583,16.583,0,0,0-.3223,3.1865q0,4.5587,2.9043,4.5586h12.9883q-2.4609,7.3008-5.7676,17.627-.6459,4.56-4.4375,4.5586Z"/><path class="c" d="M498.2109,77.1635q-1.4121,4.7592-8.955,8.4707H445.7715L463.44,27.7894h37.1513a18.4341,18.4341,0,0,1,3.2266.5244,9.8221,9.8221,0,0,1,5.3652,3.6309,2.59,2.59,0,0,1,.3223,1.5322Q509.5049,41.0208,498.2109,77.1635ZM479.4531,59.8177a11.6379,11.6379,0,0,0,7.3223-2.38,7.4428,7.4428,0,0,0,3.085-6.1719,9.6344,9.6344,0,0,0-3.085-7.3613,11.5809,11.5809,0,0,0-15.43.1211,9.9737,9.9737,0,0,0-3.3887,6.5947v.2021a8.3289,8.3289,0,0,0,2.5821,6.0108Q473.7661,59.8187,479.4531,59.8177Z"/><path class="c" d="M560.0488,27.7094a6.6225,6.6225,0,0,1,1.0078-.0811,7.2487,7.2487,0,0,1,6.0108,3.3887c.081.0537.1211.2558.1211.6045q0,2.9047-3.9131,18.0712-.4438,1.7754-3.1055,4.1553a13.0342,13.0342,0,0,1-5.89,3.2676,9.5369,9.5369,0,0,1,3.51,3.751,9.685,9.685,0,0,1,1.4522,4.6386,2.8044,2.8044,0,0,1-.1211.8067l-4.1143,14.7637q-2.9048,4.56-6.6963,4.5586H505.23l17.668-57.7237ZM528.9883,80.7933a11.77,11.77,0,0,0,7.3213-2.3388,7.4514,7.4514,0,0,0,3.0859-6.253A9.5851,9.5851,0,0,0,536.31,64.88a11.5225,11.5225,0,0,0-15.4287.1612,9.8841,9.8841,0,0,0-3.3487,6.5556v.3223a7.8056,7.8056,0,0,0,2.5821,5.8486Q523.3,80.7943,528.9883,80.7933ZM537.459,56.309a11.8345,11.8345,0,0,0,7.3213-2.32,7.4348,7.4348,0,0,0,3.0859-6.2724,9.588,9.588,0,0,0-3.0859-7.3213,11.521,11.521,0,0,0-15.4287.1621,9.8744,9.8744,0,0,0-3.3477,6.5547v.3223a7.8525,7.8525,0,0,0,2.5811,5.89Q531.771,56.3089,537.459,56.309Z"/><path class="d" d="M602.0811,39.4877H578.8457L581.71,27.3861h39.249a8.9288,8.9288,0,0,1,4.76,2.1787,6.3874,6.3874,0,0,1,1.331,4.4365q0,1.05-.081,2.38-1.25,4.4385-4.76,13.7149-2.5416,5.6075-14.7227,5.6074h-.3633a9.9006,9.9006,0,0,0-5.5664,1.331,6.0329,6.0329,0,0,0-2.1787,3.1065q-.5244,1.6537-.9277,3.3076h21.7822q-2.4609,7.3008-7.22,22.1856H564.6875l6.9385-22.63q3.2666-8.35,6.8974-11.0518,2.5811-1.8559,8.0674-2.0576h12.0615q7.462-2.46,7.462-5.6875a4.4986,4.4986,0,0,0-1.8955-3.1865Q603.2094,40.2943,602.0811,39.4877Z"/><path class="d" d="M630.7607,85.6342a5.5586,5.5586,0,0,1-3.3681-1.9161,5.6542,5.6542,0,0,1-1.3916-3.8525L640.5635,32.348a8.1051,8.1051,0,0,1,4.5576-4.1142,28.8477,28.8477,0,0,1,6.8975-.5244h28.5195a6.929,6.929,0,0,1,2.38.6044,9.9835,9.9835,0,0,1,4.6386,3.6309,2.6884,2.6884,0,0,1,.2823,1.4522q0,8.0272-13.916,47.6787-2.9049,4.56-6.7374,4.5586Zm27.0264-25.8165a11.721,11.721,0,0,0,7.3418-2.38,7.4263,7.4263,0,0,0,3.1055-6.1719,9.6036,9.6036,0,0,0-3.1055-7.3613,10.7925,10.7925,0,0,0-7.624-2.8838,10.9089,10.9089,0,0,0-7.8057,3.0049,9.7716,9.7716,0,0,0-3.3681,6.5947v.2021a8.3288,8.3288,0,0,0,2.582,6.0108Q652.14,59.8187,657.7871,59.8177Z"/><path class="d" d="M720.9971,39.4877H697.7617l2.8643-12.1016h39.249a8.9284,8.9284,0,0,1,4.76,2.1787,6.3869,6.3869,0,0,1,1.331,4.4365q0,1.05-.081,2.38-1.25,4.4385-4.76,13.7149-2.5414,5.6075-14.7227,5.6074h-.3632a9.9,9.9,0,0,0-5.5664,1.331,6.0324,6.0324,0,0,0-2.1788,3.1065q-.5244,1.6537-.9277,3.3076h21.7822q-2.4609,7.3008-7.22,22.1856H683.6035l6.9385-22.63q3.2665-8.35,6.8975-11.0518,2.5811-1.8559,8.0673-2.0576h12.0616q7.4619-2.46,7.4619-5.6875a4.4986,4.4986,0,0,0-1.8955-3.1865Q722.1255,40.2943,720.9971,39.4877Z"/><path class="d" d="M749.6768,85.6342a5.5585,5.5585,0,0,1-3.3682-1.9161,5.6546,5.6546,0,0,1-1.3916-3.8525L759.48,32.348a8.1051,8.1051,0,0,1,4.5576-4.1142,28.8483,28.8483,0,0,1,6.8975-.5244h28.5195a6.929,6.929,0,0,1,2.38.6044,9.9832,9.9832,0,0,1,4.6387,3.6309,2.6886,2.6886,0,0,1,.2822,1.4522q0,8.0272-13.916,47.6787-2.9049,4.56-6.7373,4.5586Zm27.0263-25.8165a11.721,11.721,0,0,0,7.3418-2.38A7.4263,7.4263,0,0,0,787.15,51.266a9.6036,9.6036,0,0,0-3.1055-7.3613,10.7925,10.7925,0,0,0-7.624-2.8838,10.9091,10.9091,0,0,0-7.8057,3.0049,9.7716,9.7716,0,0,0-3.3681,6.5947v.2021a8.3288,8.3288,0,0,0,2.582,6.0108Q771.0562,59.8187,776.7031,59.8177Z"/><path class="d" d="M342.8867,158.6078l8.874-26.4209H334.6172l10.6494-31.4238,46.3486-.08L381.49,132.1869H366.9277L358.78,158.6078Z"/><path class="d" d="M390.9785,158.6078a4.2229,4.2229,0,0,1-2.7031-1.4922,4.6106,4.6106,0,0,1-1.1289-3.1465l11.6572-37.998a6.6432,6.6432,0,0,1,3.7109-3.3076,23.6436,23.6436,0,0,1,5.4864-.4043h22.831a5.9653,5.9653,0,0,1,1.8555.4843,7.8356,7.8356,0,0,1,3.7109,2.9043,2.2709,2.2709,0,0,1,.2022,1.13q0,6.4952-11.0527,38.1992-2.3805,3.6313-5.3653,3.6309ZM412.64,137.9545a9.4454,9.4454,0,0,0,5.8487-1.916,5.8847,5.8847,0,0,0,2.542-4.9,7.7821,7.7821,0,0,0-2.4815-5.95,8.61,8.61,0,0,0-6.11-2.3194,8.7642,8.7642,0,0,0-6.3535,2.4405,7.7843,7.7843,0,0,0-2.6426,5.3046v.2012a6.56,6.56,0,0,0,2.0976,4.76A10.0718,10.0718,0,0,0,412.64,137.9545Z"/><path class="d" d="M447.4912,112.34l12.707.1211-6.8173,23.3154H466.168l7.5429-23.3154h11.2549l-7.1406,29.124q-1.8544,4.922-4.9609,4.9209h-3.1866l5.5664,12.1016h-8.23l-5.8085-12.1016-10.3262-.08-4.0342,12.1817H433.333Z"/><path class="d" d="M531.9189,112.0179l-6.2929,20.8946q-.7266,2.5825-5.2842,4.4375l-7.9463.08L505.9,158.6078H493.0732l7.14-21.1777-9.6006-.08q-3.1055,0-3.1055-2.501a4.7629,4.7629,0,0,1,.5245-1.9365l7.1-20.5723h13.23l-3.1064,10.125,11.9.3223,3.1865-10.6485Z"/><path class="d" d="M533.7744,158.6078a4.2229,4.2229,0,0,1-2.7031-1.4922,4.6106,4.6106,0,0,1-1.1289-3.1465L541.6,115.9711a6.6432,6.6432,0,0,1,3.7109-3.3076,23.6436,23.6436,0,0,1,5.4864-.4043h22.831a5.9653,5.9653,0,0,1,1.8555.4843,7.8356,7.8356,0,0,1,3.7109,2.9043,2.2709,2.2709,0,0,1,.2022,1.13q0,6.4952-11.0527,38.1992-2.38,3.6313-5.3653,3.6309Zm21.6611-20.6533a9.4454,9.4454,0,0,0,5.8487-1.916,5.8847,5.8847,0,0,0,2.542-4.9,7.7821,7.7821,0,0,0-2.4815-5.95,8.61,8.61,0,0,0-6.11-2.3194,8.7642,8.7642,0,0,0-6.3535,2.4405,7.7843,7.7843,0,0,0-2.6426,5.3046v.2012a6.56,6.56,0,0,0,2.0976,4.76A10.0718,10.0718,0,0,0,555.4355,137.9545Z"/><path class="b" d="M680.58,134.9183a2.9283,2.9283,0,0,0-5.0772,0h-8.3008a2.9265,2.9265,0,0,1-2.7993-3.7822l7.3155-23.95a2.927,2.927,0,0,1,2.7993-2.0713H689.9c.0708,0,.1421.002.2124.0069a10.6448,10.6448,0,0,1,1.85.3007c.0376.01.0757.02.1128.0313a6.9541,6.9541,0,0,1,3.73,2.5586,3.8206,3.8206,0,0,1,.7129,2.3838c0,1.87-.6729,6.1162-5.918,22.4892a2.9275,2.9275,0,0,1-2.7876,2.0332Zm.0508-17.4033a1.652,1.652,0,0,0-1.26.5c-.4331.3955-.4395.5772-.4414.6455l.0015.1035c0,.0625,0,.1006.1435.2354a2.6755,2.6755,0,0,0,1.689.4453,2.0052,2.0052,0,0,0,1.269-.39.53.53,0,0,0,.1045-.0938.9751.9751,0,0,0,.0088-.1309,1.0688,1.0688,0,0,0-.35-.9023A1.547,1.547,0,0,0,680.6309,117.515Z"/><path class="b" d="M693.9922,134.9183a2.9762,2.9762,0,0,1-.3726-.0234,4.667,4.667,0,0,1-2.9477-1.5918,4.8344,4.8344,0,0,1-1.1929-3.2324,2.9318,2.9318,0,0,1,.1289-.8594l5.294-17.2363a2.9275,2.9275,0,0,1,2.7983-2.0674h5.4785a2.9284,2.9284,0,0,1,2.354,1.1865c.0347.0479.0679.0957.1.1445a2.9273,2.9273,0,0,1,2.5064-1.414h4.7939a2.9271,2.9271,0,0,1,2.9273,2.9267c0,.7071,0,1.7764-4.7373,18.5332a2.9218,2.9218,0,0,1-.3682.8077,5.48,5.48,0,0,1-4.6694,2.8261Z"/><path class="b" d="M713.8174,134.9183a2.9038,2.9038,0,0,1-.6021-.0625,5.2088,5.2088,0,0,1-2.6367-1.4619,4.6175,4.6175,0,0,1-1.3916-3.3232,2.9251,2.9251,0,0,1,.1289-.8584l4.8262-15.7334a2.9154,2.9154,0,0,1,.2485-.5791,5.6286,5.6286,0,0,1,3.1929-2.7188,11.2667,11.2667,0,0,1,3.1655-.3066l11.7329.0332a2.9269,2.9269,0,0,1,2.8125,3.708l-2.6552,9.5869a2.9268,2.9268,0,0,1-.8536,1.3867,6.235,6.235,0,0,1,.1075,1.1563,14.3823,14.3823,0,0,1-.7022,3.6367l-1.001,3.43a2.9265,2.9265,0,0,1-2.81,2.1064Zm6.999-9.2568a1.0126,1.0126,0,0,0,.35.0459c.0889,0,.18-.0029.2749-.01h-.001c-.0219,0,.0943-.0322.3365-.1845-.023-.0547-.044-.1094-.0635-.1651h-.1963a.7241.7241,0,0,0-.5806.1885A1.4346,1.4346,0,0,0,720.8164,125.6615Z"/><path class="b" d="M740.9849,134.9183a2.92,2.92,0,0,1-1.9922-.7822l-5.4287-5.0439a6.0048,6.0048,0,0,1-2.003-4.5,6.2,6.2,0,0,1,1.5528-4.1162,5.6353,5.6353,0,0,1,3.9931-2.0108c.191-.0156.3809-.0225.5708-.0225a6.6188,6.6188,0,0,1,3.1763.7481,6.29,6.29,0,0,1,7.5464,1.4268,6.1842,6.1842,0,0,1,1.4575,4.1084,5.6981,5.6981,0,0,1-1.625,4.1582l-5.1777,5.1777A2.9189,2.9189,0,0,1,740.9849,134.9183Z"/><path class="b" d="M750.2881,134.9183a2.9265,2.9265,0,0,1-2.8057-3.7617l2.7725-9.3193a2.9263,2.9263,0,0,1,2.8056-2.0918h3.3887a2.9288,2.9288,0,0,1,.04-1.4229l.9014-3.207a2.9186,2.9186,0,0,1,.2373-.5908h-.46a2.9265,2.9265,0,0,1-2.7353-3.97l1.3369-3.5069a2.9263,2.9263,0,0,1,2.7271-1.8838l17.9956-.05a2.9272,2.9272,0,0,1,2.8173,3.7217l-1.5693,5.5615a8.65,8.65,0,0,1-1.6606,3.29,6.4479,6.4479,0,0,1,.7343,3.0127,7.0805,7.0805,0,0,1-.8261,3.2607l-2.3081,7.0527a2.9125,2.9125,0,0,1-.2354.5323,5.8921,5.8921,0,0,1-5.2021,3.372Zm13.6665-22.3769Z"/><path class="b" d="M779.1,134.9183a2.9265,2.9265,0,0,1-2.814-3.7334c.3472-1.21,1.2974-4.83,2.9034-11.0644h-3.5132A2.9268,2.9268,0,0,1,772.9,116.264c1.1123-3.32,1.3091-3.6689,1.6147-4.0879a2.9364,2.9364,0,0,1,1.2125-.9638c1.4487-.6192,2.7382-1.23,3.8325-1.8125,2.643-1.4,3.2568-2.2,3.352-2.3447A2.9266,2.9266,0,0,1,785.68,105.08h5.9463a2.9266,2.9266,0,0,1,2.855,3.5733l-5.4278,23.9844a2.9263,2.9263,0,0,1-2.855,2.28Z"/><path class="b" d="M649.9678,167.4554a2.9265,2.9265,0,0,1-2.8057-3.7617l2.7725-9.3193a2.9267,2.9267,0,0,1,2.8056-2.0918h2.8174c-.05-.0518-.2212-.2285-.2549-.2666-1.7382-1.9756-2.5835-3.8262-2.5835-5.6592a5.432,5.432,0,0,1,.3169-1.8193l.7652-2.9024a2.94,2.94,0,0,1,.436-.9365q.5267-.75,1.0547-1.4805a2.889,2.889,0,0,1,.3052-.3593,4.8665,4.8665,0,0,1,3.5229-1.4082,8.626,8.626,0,0,1,1.1426.0839h16.5117a2.9269,2.9269,0,0,1,2.8291,3.6778l-1.2021,4.5263a2.9269,2.9269,0,0,1-2.8291,2.1758h-5.106q.315.2124.6294.4248c2.2935,1.6006,4.8814,3.7608,4.8814,6.5186a4.3543,4.3543,0,0,1-.2549,1.4726l-2.3618,7.2207a2.9125,2.9125,0,0,1-.2354.5323,5.8922,5.8922,0,0,1-5.2021,3.372Z"/><path class="b" d="M674.5869,167.4554a2.9263,2.9263,0,0,1-2.7988-3.7832L677.65,144.515a2.9251,2.9251,0,0,1,2.7925-2.07l15.7729-.0332a2.9268,2.9268,0,0,1,2.7573,3.91L697.437,150.63a2.9273,2.9273,0,0,1-2.7573,1.9434h-.8413a2.9281,2.9281,0,0,1,.1,1.9873s-.7554,2.4688-.7661,2.5a2.9281,2.9281,0,0,1,2.1621,3.7383l-1.4531,4.6094a2.9269,2.9269,0,0,1-2.792,2.0468Z"/><path class="b" d="M694.2949,167.4554a2.9263,2.9263,0,0,1-2.7988-3.7832l5.8623-19.1572a2.9265,2.9265,0,0,1,2.7988-2.07h12.31q.1318,0,.2637.0117a9.5547,9.5547,0,0,1,1.4668.2432c.0366.0088.0732.0185.1093.0293a6.0844,6.0844,0,0,1,3.3741,2.3242c.0371.0527.0727.1064.1064.1621a4.1214,4.1214,0,0,1,.563,2.2109c0,1.33-.3267,3.7852-2.8716,11.0254-1.3115,3.4825-3.5786,3.9932-4.8154,3.9932h-4.1323l-1.0938,3.0674a2.9269,2.9269,0,0,1-2.7573,1.9433Zm9.1822-12.97a2.4275,2.4275,0,0,0,.7719.1016,1.0552,1.0552,0,0,0,.521-.1143.2959.2959,0,0,0-.0835-.1094.9438.9438,0,0,0-1.1142.0245C703.5342,154.4252,703.5029,154.4574,703.4771,154.4857Z"/><path class="b" d="M723.7505,167.4554a2.92,2.92,0,0,1-1.9922-.7822l-5.4287-5.0439a6.005,6.005,0,0,1-2.0029-4.5,6.2006,6.2006,0,0,1,1.5527-4.1162,5.6353,5.6353,0,0,1,3.9932-2.0108c.1909-.0156.3808-.0224.5708-.0224a6.6187,6.6187,0,0,1,3.1762.748,6.29,6.29,0,0,1,7.5464,1.4268,6.1839,6.1839,0,0,1,1.4575,4.1084,5.6981,5.6981,0,0,1-1.625,4.1582l-5.1777,5.1777A2.9189,2.9189,0,0,1,723.7505,167.4554Z"/><path class="b" d="M735.793,167.4554a3.0287,3.0287,0,0,1-.47-.0371,5.31,5.31,0,0,1-4.4278-5.2783,2.93,2.93,0,0,1,.1284-.8574l6.0293-19.6748a2.8767,2.8767,0,0,1,.2281-.542,6.2366,6.2366,0,0,1,3.5444-3.085,13.287,13.287,0,0,1,3.7695-.3632h11.8086q.0983,0,.1963.0058a5.7772,5.7772,0,0,1,1.9014.4639,7.04,7.04,0,0,1,3.1841,2.5,3.8808,3.8808,0,0,1,.6679,2.3125c0,1.7812-.6738,5.7441-5.9267,20.7109a2.9392,2.9392,0,0,1-.2935.6026c-1.7065,2.68-3.8013,3.2421-5.2578,3.2421Zm9.55-16.96a2.5852,2.5852,0,0,0,1.64.417,1.9035,1.9035,0,0,0,1.2583-.3819.5723.5723,0,0,0,.1309-.125.507.507,0,0,0,.0087-.1074,1.0686,1.0686,0,0,0-.35-.9023,1.5473,1.5473,0,0,0-1.1651-.4131,1.5958,1.5958,0,0,0-1.2168.4414,1.44,1.44,0,0,0-.48.7109A.5428.5428,0,0,0,745.3433,150.4955Z"/><path class="b" d="M770.751,167.4554a2.927,2.927,0,0,1-2.7989-3.7841l.1763-.5752h-3.0561a8.6072,8.6072,0,0,1-5.229-1.5313,5.9187,5.9187,0,0,1-2.4922-4.8525,6.9041,6.9041,0,0,1,.5576-2.6778l4.31-14.3007a2.9265,2.9265,0,0,1,2.8027-2.0821h6.8818a2.9266,2.9266,0,0,1,2.8833,3.4317l.4956-1.5264a2.9277,2.9277,0,0,1,2.7842-2.0225h6.0293a2.927,2.927,0,0,1,2.9248,3.0459c-.0322.7891-.0991,2.4327-6.3008,24.7325a2.9272,2.9272,0,0,1-2.82,2.1425Z"/><path class="c" d="M680.58,131.9916l1.8379-6.28-4.6934.0342-2.2217,6.2461h-8.3008l7.3155-23.95H689.9a7.596,7.596,0,0,1,1.3359.2168,4.0715,4.0715,0,0,1,2.2217,1.5029,1.075,1.075,0,0,1,.1328.6348q0,3.558-5.7783,21.5957Zm.1836-9.62a4.9311,4.9311,0,0,0,3.0068-.961,3.0428,3.0428,0,0,0,1.3027-2.58,3.9744,3.9744,0,0,0-1.2861-3.0478,4.4666,4.4666,0,0,0-3.1562-1.1943,4.5728,4.5728,0,0,0-3.2911,1.3193,3.6926,3.6926,0,0,0-1.3359,2.6553v.2011a3.1442,3.1442,0,0,0,1.0693,2.3711A5.116,5.116,0,0,0,680.7637,122.3715Z"/><path class="c" d="M692.4063,130.0707,697.7,112.8344h5.4785l-1.2861,4.1923,4.9267.1338,1.3194-4.4092h4.7939q0,1.37-4.6269,17.7373a2.7371,2.7371,0,0,1-2.2207,1.503H693.9922a1.7526,1.7526,0,0,1-1.1192-.6182A1.9089,1.9089,0,0,1,692.4063,130.0707Z"/><path class="c" d="M724.8574,126.0121a1.6814,1.6814,0,0,0,.0332-.334,2.7152,2.7152,0,0,0-.417-1.3027h4.1924a3.2339,3.2339,0,0,1,.3,1.37,14.9024,14.9024,0,0,1-.6006,2.8721l-.9853,3.374H713.8174a2.3237,2.3237,0,0,1-1.169-.668,1.7142,1.7142,0,0,1-.5341-1.2529l4.8261-15.7334a2.7537,2.7537,0,0,1,1.5371-1.3692,9.7883,9.7883,0,0,1,2.2715-.167l11.7246.0333-2.6552,9.5869h-8.3018a3.6327,3.6327,0,0,0-2.58.9775,3.12,3.12,0,0,0-1.0937,2.18v.1328a2.8209,2.8209,0,0,0,.8515,2.0049,3.4469,3.4469,0,0,0,2.4717.918c.1563,0,.3174-.0049.4844-.0166a4.3709,4.3709,0,0,0,2.2217-1.002q1.018-.7851,1.0185-1.3857A.6819.6819,0,0,0,724.8574,126.0121Z"/><path class="c" d="M737.3105,121.3861c.1231-.0117.2452-.0166.3672-.0166a3.6209,3.6209,0,0,1,1.9375.4844,2.67,2.67,0,0,1,1.003,1.0185l.3339.6514a.2706.2706,0,0,0,.0333-.167,4.4372,4.4372,0,0,1,.9013-1.3193,2.5724,2.5724,0,0,1,1.8379-.6016,3.0251,3.0251,0,0,1,2.4385,1.0693,3.2678,3.2678,0,0,1,.7676,2.2208,2.8217,2.8217,0,0,1-.7676,2.0878l-5.1777,5.1778-5.4288-5.044a3.0978,3.0978,0,0,1-1.0683-2.3554,3.2542,3.2542,0,0,1,.8349-2.1963A2.7191,2.7191,0,0,1,737.3105,121.3861Z"/><path class="c" d="M764.7852,111.598h-7.6163l1.337-3.5068,17.9873-.05-1.5694,5.5615a5.3569,5.3569,0,0,1-1.17,2.2881,5.2885,5.2885,0,0,1-2.4209,1.0859q2.5547,1.503,2.5547,3.7237a4.2715,4.2715,0,0,1-.6006,2.1045l-2.3887,7.2988a3.09,3.09,0,0,1-2.6552,1.8877H750.2881l2.7724-9.3194h6.33a3.0576,3.0576,0,0,0,1.82-.5351,1.5057,1.5057,0,0,0,.752-1.2188q0-1.37-2.6553-1.8037l.9014-3.207,2.9892-.1172q3.208-.5669,3.2071-2.1875Q766.4053,112.45,764.7852,111.598Z"/><path class="c" d="M779.1,131.9916q.5508-1.92,3.04-11.5908a7.1641,7.1641,0,0,0,.1163-1.2862q0-1.92-1.1856-1.9209h-5.3945a29.4216,29.4216,0,0,1,1.2021-3.29q2.3057-.9858,4.0586-1.9209,4.1924-2.2207,4.7432-3.9756h5.9463l-5.4278,23.9844Z"/><path class="c" d="M656.6318,142.3822q.5172-.7353,1.0352-1.4531a1.9642,1.9642,0,0,1,1.4531-.5518,6.4029,6.4029,0,0,1,.9356.084h16.7187l-1.2021,4.5264H665.668q-2.0216.5508-2.0215,1.4189a1.07,1.07,0,0,0,.3848.7188q2.7056,1.8031,5.4277,3.6406,3.59,2.5064,3.5908,4.0918a1.4262,1.4262,0,0,1-.083.4844l-2.3887,7.2988a3.09,3.09,0,0,1-2.6552,1.8877H649.9678l2.7724-9.3193h6.33q1.72-.5523,1.7207-1.1524a1.6782,1.6782,0,0,0-.4346-.9863q-1.4033-1.503-2.8564-2.9893a6.0482,6.0482,0,0,1-1.8535-3.7246,2.5337,2.5337,0,0,1,.1836-.9355Z"/><path class="c" d="M690.4033,156.1107h-3.9248l-1.2021,3.8086h7.2656l-1.4531,4.6094h-16.502l5.8623-19.1572,15.7666-.0332-1.5361,4.3086H688.65l-1.32,4.0585h3.8086Z"/><path class="c" d="M694.2949,164.5287l5.8623-19.1572h12.31a6.6524,6.6524,0,0,1,1.0186.167,3.22,3.22,0,0,1,1.8037,1.2021,1.3568,1.3568,0,0,1,.1338.6855q0,2.3541-2.7061,10.0547-.7676,2.0376-2.0537,2.0371h-6.1963l-1.7871,5.0108Zm9.9541-7.0147a3.9119,3.9119,0,0,0,2.4219-.7939,2.4354,2.4354,0,0,0,1.0527-2.0293,3.2321,3.2321,0,0,0-1.0273-2.4551,3.8482,3.8482,0,0,0-5.1524.042,3.1423,3.1423,0,0,0-1.0859,2.1963v.1172a2.6361,2.6361,0,0,0,.8516,1.9375A4.17,4.17,0,0,0,704.249,157.514Z"/><path class="c" d="M720.0762,153.9232c.123-.0117.2451-.0166.3672-.0166a3.6214,3.6214,0,0,1,1.9375.4844,2.671,2.671,0,0,1,1.0029,1.0185l.334.6514a.2706.2706,0,0,0,.0332-.167,4.4372,4.4372,0,0,1,.9013-1.3193,2.5726,2.5726,0,0,1,1.8379-.6016,3.0248,3.0248,0,0,1,2.4385,1.0694,3.2673,3.2673,0,0,1,.7676,2.2207,2.8221,2.8221,0,0,1-.7676,2.0879l-5.1777,5.1777-5.4287-5.044a3.0977,3.0977,0,0,1-1.0684-2.3554,3.2538,3.2538,0,0,1,.835-2.1963A2.7187,2.7187,0,0,1,720.0762,153.9232Z"/><path class="c" d="M735.793,164.5287a2.3006,2.3006,0,0,1-1.3946-.793,2.3405,2.3405,0,0,1-.5761-1.5957l6.0293-19.6748a3.3573,3.3573,0,0,1,1.8867-1.7031,11.9534,11.9534,0,0,1,2.8564-.2178h11.8086a2.8737,2.8737,0,0,1,.9854.251,4.138,4.138,0,0,1,1.9209,1.5029,1.12,1.12,0,0,1,.1162.6016q0,3.3237-5.7617,19.7412a3.3772,3.3772,0,0,1-2.7891,1.8877Zm11.19-10.6895a4.8506,4.8506,0,0,0,3.0391-.9853,3.0756,3.0756,0,0,0,1.2861-2.5557,3.9759,3.9759,0,0,0-1.2861-3.0478,4.4669,4.4669,0,0,0-3.1563-1.1944,4.5167,4.5167,0,0,0-3.2314,1.2442,4.0394,4.0394,0,0,0-1.3946,2.7314v.083a3.4481,3.4481,0,0,0,1.0684,2.4893A5.2051,5.2051,0,0,0,746.9834,153.8392Z"/><path class="c" d="M760.6621,155.0424l4.3594-14.4639h6.8818l-3.24,10.2715h6.0293l3.374-10.3887h6.0293q-.0849,2.0874-6.1963,24.0674H770.751l1.3359-4.3594h-7.0146a5.7519,5.7519,0,0,1-3.4912-.96,2.9686,2.9686,0,0,1-1.3028-2.4971A4.0437,4.0437,0,0,1,760.6621,155.0424Z"/><path class="a" d="M14.7852,209.517h2.2441v-8.0625h2.7363v8.0625h5.918c.0742-.7637.0986-1.5039.123-2.3174l2.7618.123a25.7318,25.7318,0,0,1-2.8594,11.6143l-2.4414-1.332a17.4834,17.4834,0,0,0,1.9472-5.1534h-10.43Z"/><path class="a" d="M45.9736,219.0355H43.2363V217.975h-5.4c-3.5009,0-4.7588-1.85-4.7588-5.376v-1.75h-2.86V207.89h2.86v-2.9346H31.4746v-2.9345H45.7021v2.9345H35.8145V207.89H45.9736Zm-8.0879-4.02h5.3506v-4.167H35.8145v1.75C35.8145,214.2513,36.2832,215.016,37.8857,215.016Z"/><path class="a" d="M61.207,207.7172H55.98v1.5283c0,3.2305-.4688,8.5322-5.77,9.4443l-.6406-2.959c3.4277,0,3.6738-3.9453,3.6738-6.4853v-1.5283H48.0146v-2.9346h5.2276v-4.3887H55.98v4.3887H61.207Z"/><path class="a" d="M68.3291,207.1752H78.71v2.9336H77.625v3.0088c0,3.5263-1.2578,5.35-4.7588,5.35h-.4189l-.6914-2.9345h1.0605c1.6035,0,2.0713-.7891,2.0713-2.416v-3.0088H68.3291v2.6631a13.018,13.018,0,0,1-1.5293,6.14l-2.54-1.2324a9.0491,9.0491,0,0,0,1.332-4.8828v-2.6875H62.46v-2.9336h3.1318v-6.0176h2.7373Z"/><path class="a" d="M89.65,202.0209h11.3184v2.9345H96.6777v10.5782h5.795v2.9345H88.1465v-2.9345H93.916V204.9554H89.65Z"/><path class="a" d="M107.2031,218.4681h-2.7373V202.5638h5.2764v-2.17h2.7617v2.17h5.8691v2.9336h-.5917v7.62c0,3.5263-1.2579,5.35-4.76,5.35h-.3692l-.69-2.9345h1.0108c1.6025,0,2.0712-.7891,2.0712-2.416v-7.62h-7.8408Z"/><path class="a" d="M133.1875,207.7172H127.96v1.5283c0,3.2305-.4688,8.5322-5.77,9.4443l-.6407-2.959c3.4278,0,3.6739-3.9453,3.6739-6.4853v-1.5283h-5.2276v-2.9346h5.2276v-4.3887H127.96v4.3887h5.2275Z"/><path class="a" d="M134.8848,202.0209h11.81v2.9345h-7.1992v2.9092h10.1582v2.959H139.4961v2.294c0,1.6269.4434,2.416,2.0459,2.416h7.2256l-.666,2.9345h-6.6084c-3.502,0-4.7588-1.8242-4.7588-5.35v-2.294h-2.3428v-2.959h2.3428v-2.9092h-1.85Z"/><path class="a" d="M150.76,202.4154h2.3183v-2.0215H155.84v2.0215h9.9122l.4687,2.6631a39.6367,39.6367,0,0,1-8.4082,5.8691l-1.4307-2.4912a27.4745,27.4745,0,0,0,5.1534-3.1064H155.84v13.1181h-2.7617V205.35H150.76Zm9.9375,8.335A59.4064,59.4064,0,0,1,165.9,217.433l-2.2695,1.7754a49.8209,49.8209,0,0,0-5.2022-6.6826Z"/><path class="a" d="M170.58,218.4681h-2.7373V202.5638h5.2763v-2.17h2.7618v2.17H181.75v2.9336h-.5918v7.62c0,3.5263-1.2578,5.35-4.76,5.35h-.3691l-.69-2.9345H176.35c1.6025,0,2.0713-.7891,2.0713-2.416v-7.62H170.58Z"/><path class="a" d="M183.0518,216.9642l7.15-15.707,2.5157,1.1836-5.7949,12.5752,7.1015-1.9229-2.0469-4.6113,2.5645-1.1592,4.7344,10.4551-2.54,1.1592-1.4785-3.1563-11.1465,2.836Z"/><path class="a" d="M213.5986,207.7172h-5.2275v1.5283c0,3.2305-.4688,8.5322-5.7705,9.4443l-.6406-2.959c3.4267,0,3.6738-3.9453,3.6738-6.4853v-1.5283h-5.2275v-2.9346h5.2275v-4.3887h2.7373v4.3887h5.2275Z"/><path class="a" d="M216.5039,202.0209h11.3184v2.9345h-4.291v10.5782h5.7949v2.9345H215v-2.9345H220.77V204.9554h-4.2656Z"/><path class="a" d="M244.6348,218.4681h-2.7373v-1.1836h-7.8409v1.1836h-2.7373V202.0209h13.3155Zm-2.7373-4.1181v-9.3946h-7.8409V214.35Z"/><path class="a" d="M249.8828,218.4681h-2.7373V202.5638h5.2764v-2.17h2.7617v2.17h5.8691v2.9336h-.5918v7.62c0,3.5263-1.2578,5.35-4.76,5.35h-.3692l-.69-2.9345h1.0107c1.6026,0,2.0713-.7891,2.0713-2.416v-7.62h-7.8408Z"/><path class="a" d="M262.3545,216.9642l7.15-15.707,2.5156,1.1836-5.7949,12.5752,7.1015-1.9229-2.0468-4.6113,2.5644-1.1592,4.7344,10.4551-2.54,1.1592-1.4786-3.1563-11.1464,2.836Z"/><path class="a" d="M279.61,216.52l.8388-.2959V202.0209h2.7363v13.0937a38.2633,38.2633,0,0,0,8.3838-4.7588l1.628,2.3916a44.5254,44.5254,0,0,1-12.5264,6.4854Z"/><path class="a" d="M314.2734,204.9554h-9.6171v8.1622c0,1.6269.4433,2.416,2.0712,2.416h7.2491v2.9345h-7.2989c-3.5009,0-4.7588-1.8242-4.7588-5.35V202.0209h12.3545Z"/><path class="a" d="M330.001,218.4681h-2.7373v-1.1836h-7.8418v1.1836h-2.7364V202.0209H330.001Zm-2.7373-4.1181v-9.3946h-7.8418V214.35Z"/><path class="a" d="M335.248,218.4681h-2.7363V202.5638h5.2764v-2.17H340.55v2.17h5.8691v2.9336h-.5918v7.62c0,3.5263-1.2578,5.35-4.7587,5.35h-.37l-.69-2.9345h1.0108c1.6025,0,2.0712-.7891,2.0712-2.416v-7.62H335.248Z"/><path class="a" d="M360.3457,204.1166a53.7744,53.7744,0,0,1-5.6221.8633v2.8847h7.0772v2.959h-7.0772v2.294c0,3.5263-1.2578,5.35-4.7588,5.35h-.2226l-.5176-2.9345h.69c1.6026,0,2.0713-.7891,2.0713-2.416v-2.294h-3.4521v-2.959h3.4521v-2.6875q-1.7388.0747-3.625.0742l-.2715-2.9345a69.8252,69.8252,0,0,0,11.7872-1.1338Z"/><path class="a" d="M363.67,202.0209h11.8106v2.9345h-7.1992v2.9092H378.44v2.959H368.2813v2.294c0,1.6269.4433,2.416,2.0458,2.416h7.2256l-.666,2.9345h-6.6084c-3.5019,0-4.7588-1.8242-4.7588-5.35v-2.294h-2.3427v-2.959H365.52v-2.9092h-1.85Z"/><path class="a" d="M379.5449,202.4154h2.3184v-2.0215h2.7617v2.0215h9.9121l.4688,2.6631a39.6367,39.6367,0,0,1-8.4082,5.8691l-1.4307-2.4912A27.4736,27.4736,0,0,0,390.32,205.35H384.625v13.1181h-2.7617V205.35h-2.3184Zm9.9375,8.335a59.4064,59.4064,0,0,1,5.2031,6.6826l-2.2695,1.7754a49.8122,49.8122,0,0,0-5.2021-6.6826Z"/><path class="a" d="M396.5293,202.0209H408.34v2.9345h-7.1992v2.9092h10.1582v2.959H401.1406v2.294c0,1.6269.4434,2.416,2.0459,2.416h7.2256l-.666,2.9345h-6.6084c-3.502,0-4.7588-1.8242-4.7588-5.35v-2.294h-2.3428v-2.959h2.3428v-2.9092h-1.85Z"/><path class="a" d="M415.9063,218.4681h-2.7374V202.5638h5.2764v-2.17h2.7617v2.17h5.8692v2.9336h-.5918v7.62c0,3.5263-1.2578,5.35-4.76,5.35h-.3691l-.69-2.9345h1.0108c1.6025,0,2.0713-.7891,2.0713-2.416v-7.62h-7.8408Z"/><path class="a" d="M441.2734,204.9554h-9.6162v8.1622c0,1.6269.4444,2.416,2.0713,2.416h7.25v2.9345H433.68c-3.502,0-4.76-1.8242-4.76-5.35V202.0209h12.3535Z"/><path class="a" d="M443.5879,202.0209h11.81v2.9345h-7.1992v2.9092h10.1582v2.959H448.1992v2.294c0,1.6269.4434,2.416,2.0459,2.416h7.2256l-.666,2.9345h-6.6084c-3.502,0-4.7588-1.8242-4.7588-5.35v-2.294h-2.3428v-2.959h2.3428v-2.9092h-1.85Z"/><path class="a" d="M481.4063,218.4681h-2.7374v-1.1836h-7.8408v1.1836h-2.7373V202.0209h13.3155Zm-2.7374-4.1181v-9.3946h-7.8408V214.35Z"/><path class="a" d="M486.6543,218.4681H483.917V202.5638h5.2764v-2.17h2.7617v2.17h5.8691v2.9336h-.5918v7.62c0,3.5263-1.2578,5.35-4.76,5.35h-.3692l-.69-2.9345h1.0107c1.6026,0,2.0713-.7891,2.0713-2.416v-7.62h-7.8408Z"/><path class="a" d="M517.49,201.6019a95.0643,95.0643,0,0,1,3.0088,12.378,45.1773,45.1773,0,0,0,4.8086-12.6495l2.6377.8389c-1.0107,5.1777-4.5371,13.66-7.668,17.1621l-2.22-1.6767a6.711,6.711,0,0,0,.419-.5674c-1.084-4.7832-2.4649-10.3067-3.7969-14.77Z"/><path class="a" d="M529.3965,202.0209H541.207v2.9345h-7.1992v2.9092H544.166v2.959H534.0078v2.294c0,1.6269.4434,2.416,2.0459,2.416h7.2256l-.666,2.9345h-6.6084c-3.502,0-4.7588-1.8242-4.7588-5.35v-2.294h-2.3428v-2.959h2.3428v-2.9092h-1.85Z"/><path class="a" d="M545.2715,202.4154H547.59v-2.0215h2.7618v2.0215h9.9121l.4687,2.6631a39.6317,39.6317,0,0,1-8.4082,5.8691l-1.4306-2.4912a27.4768,27.4768,0,0,0,5.1533-3.1064h-5.6953v13.1181H547.59V205.35h-2.3183Zm9.9375,8.335a59.4064,59.4064,0,0,1,5.2031,6.6826l-2.2695,1.7754a49.8047,49.8047,0,0,0-5.2022-6.6826Z"/><path class="a" d="M563.5625,201.2572a34,34,0,0,1,5.3506,6.6328l-2.3174,1.627a27.7865,27.7865,0,0,0-4.9814-6.09Zm-.9863,15.0654c5.1533-2.6631,9.5674-8.8525,11.2929-14.77l2.5645.8389c-1.4541,6.2881-6.9043,13.5615-12.3779,16.5459Z"/><path class="a" d="M585.3525,216.52l.8389-.2959V202.0209h2.7363v13.0937a38.2633,38.2633,0,0,0,8.3838-4.7588l1.628,2.3916a44.5254,44.5254,0,0,1-12.5264,6.4854Z"/><path class="a" d="M599.2559,216.9642l7.15-15.707,2.5156,1.1836L603.127,215.016l7.1015-1.9229-2.0469-4.6113,2.5645-1.1592,4.7344,10.4551-2.5391,1.1592-1.4805-3.1563-11.1445,2.836Z"/><path class="a" d="M616.3145,202.4154h2.3183v-2.0215h2.7617v2.0215h9.9121l.4688,2.6631a39.6367,39.6367,0,0,1-8.4082,5.8691l-1.4307-2.4912A27.47,27.47,0,0,0,627.09,205.35h-5.6953v13.1181h-2.7617V205.35h-2.3183Zm9.9375,8.335a59.418,59.418,0,0,1,5.2031,6.6826l-2.27,1.7754a49.8122,49.8122,0,0,0-5.2021-6.6826Z"/><path class="a" d="M643.1865,219.1088v-1.43c-5.5976-.4688-10.0361-3.378-10.0361-10.2822v-5.376h13.3154v2.9345H635.8877V207.57c0,4.7832,3.3291,6.9531,7.2988,7.1992v-5.2763h2.7373v9.6162Z"/><path class="a" d="M648.5576,202.0209h11.8115v2.9345H653.168v2.9092h10.16v2.959h-10.16v2.294c0,1.6269.4443,2.416,2.0468,2.416H662.44l-.6651,2.9345H655.166c-3.5019,0-4.76-1.8242-4.76-5.35v-2.294h-2.3418v-2.959h2.3418v-2.9092h-1.8487Z"/><path class="a" d="M683.49,204.9554h-7.8164v6.0655h-2.7363v-9H686.252v5.376c0,6.9042-5.6709,10.5781-11.8106,11.0712l-.8633-2.91c4.8574,0,9.9121-2.9092,9.9121-7.9883Z"/><path class="a" d="M687.7773,216.9642l7.15-15.707,2.5157,1.1836-5.795,12.5752,7.1016-1.9229-2.0469-4.6113,2.5645-1.1592,4.7344,10.4551-2.5391,1.1592-1.4805-3.1563-11.1445,2.836Z"/><path class="a" d="M718.3242,207.7172h-5.2275v1.5283c0,3.2305-.4688,8.5322-5.7705,9.4443l-.6407-2.959c3.4278,0,3.6739-3.9453,3.6739-6.4853v-1.5283h-5.2276v-2.9346h5.2276v-4.3887h2.7373v4.3887h5.2275Z"/><path class="a" d="M719.3311,216.9642l7.15-15.707,2.5157,1.1836-5.795,12.5752,7.1016-1.9229-2.0469-4.6113,2.5645-1.1592,4.7344,10.4551-2.54,1.1592-1.4785-3.1563-11.1465,2.836Z"/><path class="a" d="M760.2813,213.1176c0,3.5263-1.2579,5.35-4.7344,5.35h-2.8614v-2.9345h2.8116c1.6025,0,2.0468-.7891,2.0468-2.416v-2.3184H753.5v-5.8438h-2.3672v4.29c0,3.2305-.4687,8.5322-5.77,9.4443l-.6406-2.959c3.4267,0,3.6738-3.9453,3.6738-6.4853v-4.29H745.165v-2.9345h11.0713V207.84h4.045Z"/><path class="a" d="M761.7305,216.9642l7.15-15.707,2.5156,1.1836-5.7949,12.5752,7.1015-1.9229-2.0468-4.6113,2.5644-1.1592,4.7344,10.4551-2.5391,1.1592-1.4805-3.1563-11.1445,2.836Z"/><path class="a" d="M793.3125,210.7748v2.3428c0,3.5263-1.2578,5.35-4.7588,5.35h-8.68v-2.9345h8.63c1.6279,0,2.0723-.7891,2.0723-2.416v-2.3428h-6.3623c-2.22,0-3.4278-1.3067-3.4278-3.6738v-2.1456h-1.6513v-2.9345h14.2763v2.9345h-9.8877v2.1456c0,.4931.1485.7148.69.7148h9.9375v2.959Z"/><path class="a" d="M796.0205,202.0209H807.832v2.9345h-7.2011v2.9092h10.16v2.959h-10.16v2.294c0,1.6269.4443,2.416,2.0468,2.416h7.2246l-.665,2.9345h-6.6084c-3.5019,0-4.76-1.8242-4.76-5.35v-2.294h-2.3418v-2.959h2.3418v-2.9092h-1.8486Z"/><path class="a" d="M826.4189,210.7748v2.3428c0,3.5263-1.2568,5.35-4.7587,5.35h-8.68v-2.9345h8.6308c1.627,0,2.07-.7891,2.07-2.416v-2.3428H817.32c-2.2187,0-3.4277-1.3067-3.4277-3.6738v-2.1456H812.24v-2.9345h14.2774v2.9345H816.63v2.1456c0,.4931.1474.7148.69.7148h9.9375v2.959Z"/><path class="a" d="M10.3764,127.584c32.3651-20.321,35.04-23.1838,51.0689-34.05s36.02-24.99,70.3714-30.7883,75.228,2.2022,90.3525,3.5849,41.953,3.1746,61.5787-7.4306S319.6942,38.926,328.0946,30.936C311.338,43.19,285.2142,58.2205,260.56,60.197c-17.288,1.3852-38.6742-2.1331-46.5658-3.7222s-35.3132-10.1954-69.2463-6.7271c-33.5663,3.4309-49.0549,8.5882-80.0647,33.5688S10.3764,127.584,10.3764,127.584"/><path class="e" d="M10.3764,127.584c32.3651-20.321,35.04-23.1838,51.0689-34.05s36.02-24.99,70.3714-30.7883,75.228,2.2022,90.3525,3.5849,41.953,3.1746,61.5787-7.4306S319.6942,38.926,328.0946,30.936C311.338,43.19,285.2142,58.2205,260.56,60.197c-17.288,1.3852-38.6742-2.1331-46.5658-3.7222s-35.3132-10.1954-69.2463-6.7271c-33.5663,3.4309-49.0549,8.5882-80.0647,33.5688S10.3764,127.584,10.3764,127.584Z"/><path class="a" d="M19.0575,67.0889C38.5951,57.4262,72.386,50.2531,86.3553,48.4294c15.9864-2.0874,53.5163.3474,72.9978,6.3486s56.296,11.0087,64.6322,11.07,34.95-5.6113,41.4423-10.279,19.6892-14.7908,25.971-20.6678c-6.951,6.008-36.7353,22.0256-59.9309,21.8235-23.306-.2027-42.326-2.0887-81.1518-14.5588-17.7452-5.7-45.2767-4.3826-69.5451-.3043-19.706,3.3124-61.7133,25.2275-61.7133,25.2275"/><path class="e" d="M19.0575,67.0889C38.5951,57.4262,72.386,50.2531,86.3553,48.4294c15.9864-2.0874,53.5163.3474,72.9978,6.3486s56.296,11.0087,64.6322,11.07,34.95-5.6113,41.4423-10.279,19.6892-14.7908,25.971-20.6678c-6.951,6.008-36.7353,22.0256-59.9309,21.8235-23.306-.2027-42.326-2.0887-81.1518-14.5588-17.7452-5.7-45.2767-4.3826-69.5451-.3043C61.0648,45.1738,19.0575,67.0889,19.0575,67.0889Z"/><path class="a" d="M218.1743,63.8067c7.8909-2.46,32.3438-14.358,37.9271-19.49,5.0194-4.6134,7.2417-7.2909,12.91-13.6488-5.8352,6.2076-22.5376,20.1283-44.4977,26.9533Z"/><path class="e" d="M218.1743,63.8067c7.8909-2.46,32.3438-14.358,37.9271-19.49,5.0194-4.6134,7.2417-7.2909,12.91-13.6488-5.8352,6.2076-22.5376,20.1283-44.4977,26.9533Z"/><path class="a" d="M234.3062,64.7249c-.0892,15.3951-5.3245,46.5633-9.4651,55.7559,6.85-15.7157,11.15-35.8347,11.6261-42.1264s.4578-14.0854.4578-14.0854Z"/><path class="e" d="M234.3062,64.7249c-.0892,15.3951-5.3245,46.5633-9.4651,55.7559,6.85-15.7157,11.15-35.8347,11.6261-42.1264s.4578-14.0854.4578-14.0854Z"/><path class="a" d="M246.7782,66.6492c-3.1946,15.86-15.7432,45.659-21.9233,53.911,10.3252-14.1764,19.2564-36.9479,20.8892-41.5389a102.934,102.934,0,0,0,3.0673-12.8661Z"/><path class="e" d="M246.7782,66.6492c-3.1946,15.86-15.7432,45.659-21.9233,53.911,10.3252-14.1764,19.2564-36.9479,20.8892-41.5389a102.934,102.934,0,0,0,3.0673-12.8661Z"/><path class="a" d="M100.13,179.9093c2.9675-4.0222,7.0757-11.9991,12.4469-11.7921,7.8984.3038,21.0738,3.98,25.1,4.0584,7.294.1428,21.5035-.1154,30.6774-3.1958,10.5328-3.5369,20.5649-7.9963,28.2375-14.9673a172.5255,172.5255,0,0,0,13.6375-13.6232,130.96,130.96,0,0,0,7.7138-10.7131,113.0275,113.0275,0,0,1-16.9269,22.8482c-.9879,1.0153.8545,6.9841,8.5676,19.52-9.89-11.7547-14.4165-14.018-15.0483-13.463a34.9654,34.9654,0,0,1-3.305,2.5746c-1.3914,1.036,2.5016,8.2171,10.032,17.9685-9.2536-9.2506-16.1167-13.91-17.026-13.395-4.0845,2.3108-10.5541,5.5116-15.2748,6.7483-20.2923,5.3182-30.4116,3.991-45.1338,1.0036-4.5056-.9137-8.9531-2.0688-12.7663-1.7551-5.0045.4122-10.932,8.1834-10.932,8.1834"/><path class="a" d="M100.1112,179.9342c1.6771-2.4318,3.1639-4.87,4.9907-7.1419a18.5892,18.5892,0,0,1,3.053-3.0854,7.1574,7.1574,0,0,1,3.98-1.6222,31.8545,31.8545,0,0,1,4.3333.3194c1.4383.1715,2.8671.4079,4.2948.6486,2.854.49,5.6893,1.0746,8.5258,1.6465,1.4176.2869,2.8365.5713,4.2585.8308a28.8752,28.8752,0,0,0,4.2854.5545c2.892.0442,5.7847.023,8.6749-.0861a101.1855,101.1855,0,0,0,17.2131-1.9135c.7073-.1434,1.4077-.3193,2.1044-.5052.7022-.1671,1.3858-.3954,2.0762-.605,1.374-.4409,2.7368-.9311,4.0952-1.4207,2.7162-.99,5.4024-2.0626,8.0312-3.2607a65.68,65.68,0,0,0,14.7621-8.9574c1.1064-.9237,2.1742-1.8947,3.2338-2.8808s2.1143-1.9727,3.154-2.9769q3.1266-3.0049,6.1078-6.1545c.9892-1.0522,1.9677-2.1193,2.9145-3.2058.9268-1.0927,1.785-2.2609,2.6407-3.4234,1.6952-2.3388,3.3567-4.71,4.9234-7.1331a.2125.2125,0,0,1,.3642.2189,119.6944,119.6944,0,0,1-6.7383,10.6058,108.626,108.626,0,0,1-7.8616,9.805c-.6979.7821-1.4214,1.5411-2.1449,2.3-.2126.2183-.2943.2944-.3349.5339a2.526,2.526,0,0,0-.0137.7122,8.6932,8.6932,0,0,0,.3,1.4912,37.1962,37.1962,0,0,0,2.3463,5.7617c1.8349,3.744,3.948,7.3533,6.134,10.9114a.2715.2715,0,0,1-.4391.3168c-2.46-2.9057-4.997-5.751-7.7231-8.3973a41.1753,41.1753,0,0,0-4.3028-3.6979c-.3824-.2737-.7709-.5363-1.1714-.7683a4.6187,4.6187,0,0,0-1.2155-.53.6066.6066,0,0,0-.2245-.0137c-.0038.0031-.0225.0019-.0106.0025.0043.0006.0124-.0168-.02.0143l-.1347.1179-.5451.4709c-.3655.3119-.7484.6162-1.1376.9l-1.1538.8432-.2863.2121a.3933.3933,0,0,0-.1291.1534,1.2575,1.2575,0,0,0-.0537.5507,9.2726,9.2726,0,0,0,.86,2.6039,45.1974,45.1974,0,0,0,2.7785,4.95c2.0351,3.2089,4.28,6.2893,6.6018,9.3055a.31.31,0,0,1-.4653.4085,126.26,126.26,0,0,0-10.274-9.293c-.9019-.7179-1.82-1.4158-2.76-2.0769a19.3484,19.3484,0,0,0-2.9132-1.765,2.0017,2.0017,0,0,0-.6855-.2027c-.0249-.0038-.0274.0012-.02.0006,0,0,.005-.0069-.0044-.0044l-.0474.0269-.19.1066-.3811.2121-1.5311.8313q-1.539.8149-3.1066,1.5767c-2.0906,1.0135-4.2136,1.9621-6.3922,2.7854-1.0883.4117-2.1948.784-3.3218,1.0965-1.127.3018-2.2527.5625-3.3785.8457a107.3309,107.3309,0,0,1-13.7043,2.43,71.54,71.54,0,0,1-13.9145.0854,125.3469,125.3469,0,0,1-13.7342-2.1848c-2.2746-.449-4.53-.98-6.8014-1.4076a26.5919,26.5919,0,0,0-6.8718-.5676,8.2611,8.2611,0,0,0-3.2176,1.1227,17.7272,17.7272,0,0,0-2.824,1.9876,39.3039,39.3039,0,0,0-4.8579,4.9852m.0374-.05c.0162-.0387.005-.0642.0231-.0805l.0673-.0854.1341-.1709.2738-.3374.56-.6649q.5679-.6585,1.1638-1.2922a30.9046,30.9046,0,0,1,2.5122-2.4056,17.7441,17.7441,0,0,1,2.8266-2.0332,8.44,8.44,0,0,1,3.2824-1.18,26.7867,26.7867,0,0,1,6.94.5009c2.2865.4041,4.5417.933,6.8138,1.3665a125.2555,125.2555,0,0,0,13.7074,2.108,71.1264,71.1264,0,0,0,13.831-.1571,106.7484,106.7484,0,0,0,13.6269-2.4892c1.1177-.2875,2.2478-.5551,3.3561-.8588,1.1033-.3118,2.1929-.6842,3.2681-1.0971,2.15-.8263,4.2555-1.7787,6.3274-2.7972,1.0365-.5083,2.0619-1.0391,3.08-1.5811l1.5225-.8263.3773-.2108.189-.1055a.7622.7622,0,0,1,.3374-.1029,2.3712,2.3712,0,0,1,.9755.2539,19.8023,19.8023,0,0,1,3.0217,1.8268c.9549.6711,1.8811,1.3758,2.79,2.1a126.6923,126.6923,0,0,1,10.3258,9.341l-.4653.4085c-2.3295-3.028-4.5822-6.12-6.6329-9.3534a45.7578,45.7578,0,0,1-2.8172-5.022,9.6164,9.6164,0,0,1-.9106-2.81,1.8206,1.8206,0,0,1,.1085-.8551,1.0865,1.0865,0,0,1,.1391-.2208,1.282,1.282,0,0,1,.1827-.17l.2888-.2133,1.1576-.8408c.3817-.2775.7465-.565,1.107-.8712l.54-.4628.1335-.1167a.7386.7386,0,0,1,.1272-.0885.525.525,0,0,1,.1553-.0593,1.1234,1.1234,0,0,1,.4828.0081,5.0561,5.0561,0,0,1,1.3989.6038c.4241.247.8251.52,1.2174.8027a41.698,41.698,0,0,1,4.3584,3.7645c2.7411,2.6757,5.2789,5.5384,7.7387,8.46l-.4384.3174c-2.1824-3.5737-4.2923-7.1986-6.1291-10.9732a37.7769,37.7769,0,0,1-2.3637-5.852,9.04,9.04,0,0,1-.3131-1.5805,2.9672,2.9672,0,0,1,.0237-.85,1.2584,1.2584,0,0,1,.1746-.4516,2.9272,2.9272,0,0,1,.2888-.3256c.721-.7534,1.442-1.5074,2.1392-2.2839a108.2812,108.2812,0,0,0,7.8485-9.7458,119.3992,119.3992,0,0,0,6.7358-10.5515l.3643.2189c-1.5817,2.4336-3.2476,4.8011-4.9539,7.1437-.862,1.1657-1.72,2.3307-2.6676,3.4434-.9573,1.0927-1.9378,2.1573-2.9332,3.2114q-2.9871,3.1573-6.1346,6.1545c-1.0428,1.0042-2.1031,1.9915-3.1652,2.975s-2.1361,1.9571-3.2538,2.8865a66.0784,66.0784,0,0,1-14.8569,8.973c-2.6413,1.1943-5.3375,2.2608-8.0618,3.2462-1.3646.4865-2.7274.9724-4.11,1.4121-.6954.2095-1.3852.4372-2.0924.6031-.7017.1846-1.4058.36-2.1168.5014a101.4749,101.4749,0,0,1-17.2612,1.87c-2.8946.101-5.79.1135-8.6855.0605a28.964,28.964,0,0,1-4.3141-.5688c-1.4239-.2645-2.8421-.5533-4.2591-.8445-2.8353-.5794-5.6675-1.1732-8.5171-1.67-1.4252-.2444-2.8522-.4846-4.2866-.66a31.8243,31.8243,0,0,0-4.3129-.3312,7.06,7.06,0,0,0-3.9248,1.5892,18.4634,18.4634,0,0,0-3.0449,3.0616c-.9118,1.1214-1.7463,2.304-2.559,3.5l-1.2124,1.8-.6137.8957c-.2.2987-.4123.5482-.6368.8407"/><path class="a" d="M136.7836,50.3849c-.398.06-.7953.1229-1.1938.1927a54.1281,54.1281,0,0,0-44.0443,62.609c.0693.3985.1447.7939.2227,1.1887a56.5461,56.5461,0,0,1,45.0154-63.99"/><path class="e" d="M136.7836,50.3849c-.398.06-.7953.1229-1.1938.1927a54.1281,54.1281,0,0,0-44.0443,62.609c.0693.3985.1447.7939.2227,1.1887A56.5461,56.5461,0,0,1,136.7836,50.3849Z"/><path class="a" d="M137.9731,50.1622c-.3985.0693-.7939.1454-1.1893.2227a54.1275,54.1275,0,1,1-45.0154,63.99c.0611.3979.1229.7965.1927,1.195a56.5477,56.5477,0,0,0,65.4081,46.0126c30.7678-5.3556,51.8111-39.9472,46.4548-70.7156s-35.0825-46.0607-65.8509-40.7051"/><path class="e" d="M137.9731,50.1622c-.3985.0693-.7939.1454-1.1893.2227a54.1275,54.1275,0,1,1-45.0154,63.99c.0611.3979.1229.7965.1927,1.195a56.5477,56.5477,0,0,0,65.4081,46.0126c30.7678-5.3556,51.8111-39.9472,46.4548-70.7156S168.7415,44.8066,137.9731,50.1622Z"/><path class="a" d="M142.98,72.63c-.2589.0393-.5177.08-.7771.1254a35.2354,35.2354,0,0,0-28.67,40.7549c.0449.26.0948.517.1453.774A36.8078,36.8078,0,0,1,142.98,72.63"/><path class="e" d="M142.98,72.63c-.2589.0393-.5177.08-.7771.1254a35.2354,35.2354,0,0,0-28.67,40.7549c.0449.26.0948.517.1453.774A36.8078,36.8078,0,0,1,142.98,72.63Z"/><path class="a" d="M142.2932,72.74c-.2488.043-.4964.0911-.7428.1391a33.8138,33.8138,0,1,1-28.1215,39.9753c.0374.2488.0767.4971.12.7465A35.3261,35.3261,0,1,0,142.2932,72.74"/><path class="a" d="M178.0377,99.7836a32.5206,32.5206,0,1,1-37.6165-26.4618,32.5211,32.5211,0,0,1,37.6165,26.4618"/><path class="b" d="M154.5745,103.8677a8.7047,8.7047,0,1,1-10.0688-7.0826,8.7051,8.7051,0,0,1,10.0688,7.0826"/><path class="e" d="M154.5745,103.8677a8.7047,8.7047,0,1,1-10.0688-7.0826A8.7051,8.7051,0,0,1,154.5745,103.8677Z"/><path class="a" d="M89.8979,173.1243a26.9665,26.9665,0,0,1,4.4537-4.9309c1.0279-1.0123,3.5675-2.1424,1.5724-3.4322-2.5241-1.6322-6.0261,8.3631-6.0261,8.3631"/><path class="a" d="M90.06,172.7313a.8912.8912,0,0,0-.0025-.19.19.19,0,0,1,.033-.1734l.4273-.54c.2968-.3661.5918-.7322.9037-1.089a19.94,19.94,0,0,1,2.0157-1.9945c.3562-.3125.6587-.6318,1.0435-.9549.3742-.3038.76-.567,1.1183-.8532a2.537,2.537,0,0,0,.8494-.963c.1628-.3642-.1341-.7316-.4846-.9885a1.0929,1.0929,0,0,0-.5538-.2533,1.2087,1.2087,0,0,0-.6037.1291,3.4258,3.4258,0,0,0-1.0354.8551,13.7449,13.7449,0,0,0-1.5542,2.3058,38.9617,38.9617,0,0,0-2.1567,4.7095m-.2445.628.0823-.2351a39.9042,39.9042,0,0,1,2.1817-5.176,13.8766,13.8766,0,0,1,1.5143-2.3844,3.6483,3.6483,0,0,1,1.0921-.9473,1.4783,1.4783,0,0,1,.7478-.1759,1.3869,1.3869,0,0,1,.7147.2931,1.7476,1.7476,0,0,1,.5377.5414.9236.9236,0,0,1,.096.807,2.8265,2.8265,0,0,1-.9355,1.1557c-.3649.3075-.7447.5838-1.089.88-.3262.287-.6623.6543-1.0016.9686a19.4869,19.4869,0,0,0-1.9173,2.0052c-.295.3561-.5775.7266-.8594,1.0958l-.4285.5726a1.8326,1.8326,0,0,1-.3892.3867c-.1259.09-.2451.1528-.3461.2126"/><path class="a" d="M94.1175,177.7044a37.6822,37.6822,0,0,1,6.2188-6.8849c1.4351-1.4139,4.9814-2.9912,2.196-4.7924-3.5244-2.2789-8.4148,11.6773-8.4148,11.6773"/><path class="a" d="M94.309,177.2356c.0194-.0836.0431-.16.0518-.2245a.5422.5422,0,0,1,.1173-.2844l.5968-.7609c.41-.5114.8208-1.0241,1.2536-1.5212a27.7469,27.7469,0,0,1,2.7942-2.7879c.4939-.4366.9236-.8919,1.4494-1.3353.5158-.4229,1.0534-.7933,1.5555-1.1975a3.5859,3.5859,0,0,0,1.2025-1.3827c.2382-.5507-.2108-1.0952-.7048-1.4513a1.5743,1.5743,0,0,0-.8064-.3611,1.7325,1.7325,0,0,0-.8719.19A4.8427,4.8427,0,0,0,99.49,167.33a19.2732,19.2732,0,0,0-2.1623,3.2357,54.4765,54.4765,0,0,0-3.0187,6.67m-.2713.6948.08-.2258a55.6163,55.6163,0,0,1,3.0735-7.2129,19.398,19.398,0,0,1,2.1218-3.3137,5.08,5.08,0,0,1,1.5137-1.3048,2.0244,2.0244,0,0,1,1.0166-.2357,1.8731,1.8731,0,0,1,.9661.4017,2.2779,2.2779,0,0,1,.3967.3249,1.6143,1.6143,0,0,1,.3324.4129,1.1852,1.1852,0,0,1,.126,1.0727,3.881,3.881,0,0,1-1.29,1.5755c-.5077.4253-1.04.8083-1.5262,1.2236-.4665.4079-.9293.9112-1.4064,1.35a27.09,27.09,0,0,0-2.6968,2.7979c-.4148.4971-.8121,1.0135-1.2094,1.528l-.5981.7934a2.8325,2.8325,0,0,1-.4727.4977c-.1547.1241-.3007.2214-.4273.3143"/><path class="a" d="M105.6844,141.2488c-1.9085-5.9942-7.9558-14.3061,1.5417-22.0386s18.9783-8.0044,22.8071-11.4958S142.3461,96.34,142.13,88.491s-3.3966-8.9381.7615-13.9332,15.7481-2.0139,23.1575-1.7363,10.2647-7.86,13.6276-6.4739a14.1582,14.1582,0,0,0,6.42,1.0179S164.55,49.29,155.4242,49.7163s-36.2544-.8326-51.3489,20.1464S90.5574,109.4569,92.28,117.5855s13.4043,23.6633,13.4043,23.6633"/><path class="e" d="M105.6844,141.2488c-1.9085-5.9942-7.9558-14.3061,1.5417-22.0386s18.9783-8.0044,22.8071-11.4958S142.3461,96.34,142.13,88.491s-3.3966-8.9381.7615-13.9332,15.7481-2.0139,23.1575-1.7363,10.2647-7.86,13.6276-6.4739a14.1582,14.1582,0,0,0,6.42,1.0179S164.55,49.29,155.4242,49.7163s-36.2544-.8326-51.3489,20.1464S90.5574,109.4569,92.28,117.5855,105.6844,141.2488,105.6844,141.2488Z"/><path class="a" d="M26.6307,40.7277c11.1933-5.6973,65.1835-24,115.993-20.1912s69.0641,9.0678,79.3294,11.4983S299.96,54.78,305.0428,57.0572s-87.0688-29.4038-121.64-34.1651c44.0854,8.26,71.9587,13.3726,100.2268,18.687-34.6167-7.8385-90.057-21.2547-122.89-22.5139,0,0-43.3857-3.3118-72.9735,2.6363C42.2665,30.8479,26.6307,40.7277,26.6307,40.7277"/><path class="e" d="M26.6307,40.7277c11.1933-5.6973,65.1835-24,115.993-20.1912s69.0641,9.0678,79.3294,11.4983S299.96,54.78,305.0428,57.0572s-87.0688-29.4038-121.64-34.1651c44.0854,8.26,71.9587,13.3726,100.2268,18.687-34.6167-7.8385-90.057-21.2547-122.89-22.5139,0,0-43.3857-3.3118-72.9735,2.6363C42.2665,30.8479,26.6307,40.7277,26.6307,40.7277Z"/></svg>