<svg xmlns="http://www.w3.org/2000/svg" viewBox="0 0 841.8898 238.1102"><defs><style>.a{fill:#231815;}.b,.e{fill:#fff;}.c{fill:#e2356b;}.d{fill:#f692ab;}.e{opacity:0.7;}.f{fill:none;stroke:#231815;stroke-linecap:round;stroke-linejoin:round;stroke-width:0.6535px;}.g{fill:#dcdddd;}</style></defs><title>vldb2020-banner</title><path class="a" d="M804.3961,172.6145a15.757,15.757,0,0,1-15.041,11.4287H661.4235A15.6117,15.6117,0,0,1,646.46,163.9807l2.7725-9.3194a15.5665,15.5665,0,0,1,2.26-4.624,18.024,18.024,0,0,1,.8321-5.2012l.6679-2.5332a15.63,15.63,0,0,1,2.3252-4.998q.5684-.8086,1.1387-1.5977a15.6109,15.6109,0,0,1,1.6279-1.914,17.362,17.362,0,0,1,6.096-3.94l5.7574-18.85H609.0459c.0352.055.0737.1078.1083.1631a21.2921,21.2921,0,0,1,3.1641,11.4658c0,4.957-.9375,12.4853-12.1407,44.623a19.4585,19.4585,0,0,1-2.1064,4.2745c-5.1846,7.91-13.0889,12.4472-21.6856,12.4472H356.2938a19.5146,19.5146,0,0,1-18.499-25.7275l1.0108-3.0088a19.5131,19.5131,0,0,1-9.2637-23.4629l10.6494-31.4238a19.4785,19.4785,0,0,1,2.696-5.1969L334.2118,55.84a19.5185,19.5185,0,0,1,.3906-9.8975l5.4864-17.9912A19.5141,19.5141,0,0,1,358.7548,14.13h16.6191a19.5226,19.5226,0,0,1,7.0772,1.3281,19.4775,19.4775,0,0,1,7.7666-1.61H404.78a19.4982,19.4982,0,0,1,6.5275,1.1283,19.4655,19.4655,0,0,1,5.6375-.846H447.44a19.5112,19.5112,0,0,1,14.7057,6.6964A19.5,19.5,0,0,1,476.8466,14.13h37.1513q.7164,0,1.4307.0527a38.09,38.09,0,0,1,6.6367,1.082q.38.0967.7539.209a31.7832,31.7832,0,0,1,3.74,1.4015,19.463,19.463,0,0,1,9.6395-2.6241l36.167-.1954c.7031-.0576,1.4043-.0869,2.0977-.0869a26.0056,26.0056,0,0,1,10.8878,2.39,19.4516,19.4516,0,0,1,9.7655-2.6325h39.249a19.5577,19.5577,0,0,1,4.0459.4239,31.4969,31.4969,0,0,1,9.2919,3.4776,26.6576,26.6576,0,0,1,4.7374-2.08q.2183-.0717.44-.1386c3.1933-.9659,6.8281-1.3594,12.5449-1.3594h28.5195q.6489,0,1.2959.043a26.3866,26.3866,0,0,1,8.4971,2.0214c.183.0732.3584.1619.54.2387a19.4514,19.4514,0,0,1,9.7552-2.6264h39.249a19.5577,19.5577,0,0,1,4.0459.4239,31.4969,31.4969,0,0,1,9.2919,3.4776,26.6576,26.6576,0,0,1,4.7374-2.08q.2183-.0717.4395-.1386c3.1933-.9659,6.8281-1.3594,12.5449-1.3594h28.52q.6489,0,1.2959.043a26.386,26.386,0,0,1,8.4971,2.0214,29.64,29.64,0,0,1,13.0693,10.293c.0528.0733.1055.1475.1573.2217,2.5185,3.6074,4.9593,7.9986,3.7959,12.623C833.8506,62.4079,810.9417,150.571,804.3961,172.6145Z"/><path class="b" d="M356.5059,91.4888a5.8542,5.8542,0,0,1-5.7168-4.5933l-8.794-39.8535a5.8476,5.8476,0,0,1,.1172-2.9688l5.4863-17.9912a5.8537,5.8537,0,0,1,5.6-4.1469h16.6192a5.8542,5.8542,0,0,1,5.6025,7.5527l-1.6426,5.4194,2.6006.0215,2.6665-9.0723a5.8542,5.8542,0,0,1,5.6167-4.2036h14.5625a5.8545,5.8545,0,0,1,5.6143,7.5132L399.0693,48.69a5.8317,5.8317,0,0,1-.5454,1.27L376.2173,88.5635a5.8546,5.8546,0,0,1-5.0689,2.9253Z"/><path class="b" d="M400.7793,91.4888a5.802,5.802,0,0,1-.9424-.0767,11.6109,11.6109,0,0,1-9.6719-11.5464,5.841,5.841,0,0,1,.24-1.6572l15.3691-52.0762a5.8541,5.8541,0,0,1,5.6148-4.1972h30.4951a5.8542,5.8542,0,0,1,5.6089,7.5322c-2.85,9.5244-5.418,18.7768-7.6363,27.5054q-.0577.3148-.0976.6215h9.95a5.855,5.855,0,0,1,5.5478,7.7246c-1.5942,4.73-3.4795,10.4883-5.6049,17.1216-1.1729,6.6582-5.9693,9.0484-10.148,9.0484Zm38.9473-31.8111Z"/><path class="b" d="M453.6221,91.4888a5.8547,5.8547,0,0,1-5.5992-7.5645L465.6909,26.08a5.8544,5.8544,0,0,1,5.5991-4.1445h37.1514c.1436,0,.2861.0053.4287.0156a24.3861,24.3861,0,0,1,4.25.6919c.0762.0195.1514.04.2266.063a15.5961,15.5961,0,0,1,8.3818,5.7412,8.0713,8.0713,0,0,1,1.4815,5.03c0,3.622-1.1983,12.2729-11.5606,45.4326-1.3965,4.708-5.4277,8.7651-11.959,11.9775a5.845,5.845,0,0,1-2.584.6016Zm28.84-38.8667a7.3212,7.3212,0,0,0,4.8418,1.3413,5.8257,5.8257,0,0,0,3.7471-1.1612,1.6361,1.6361,0,0,0,.8056-1.5361,3.7959,3.7959,0,0,0-1.2285-3.0849,4.9589,4.9589,0,0,0-3.6465-1.3057,5.0214,5.0214,0,0,0-3.7421,1.3848,4.3446,4.3446,0,0,0-1.5772,2.5976A2.4362,2.4362,0,0,0,482.4619,52.6221Z"/><path class="b" d="M513.08,91.4888a5.8537,5.8537,0,0,1-5.5977-7.5679L525.15,26.1973a5.8545,5.8545,0,0,1,5.5664-4.1411l36.7812-.1993a12.3176,12.3176,0,0,1,1.4092-.083,12.8821,12.8821,0,0,1,10.5938,5.5938,6.58,6.58,0,0,1,1.3926,4.2539c0,1.8032-.4873,5.5342-4.0987,19.5337-.59,2.3589-2.1406,4.6147-4.872,7.0566q-.3633.3244-.73.6275a14.8276,14.8276,0,0,1,1.7539,6.666,8.6832,8.6832,0,0,1-.3467,2.417l-4.1035,14.7251a5.86,5.86,0,0,1-.7022,1.5737c-3.8261,6.0068-8.4385,7.2676-11.6338,7.2676Zm18.1572-19.5694a1.9778,1.9778,0,0,0,.7647,1.6094c.3632.3447,1.4853,1.41,4.8369,1.41A5.9507,5.9507,0,0,0,540.623,73.79a1.6533,1.6533,0,0,0,.7686-1.5879,3.7469,3.7469,0,0,0-1.2285-3.044,5.6873,5.6873,0,0,0-7.36.09,4.2662,4.2662,0,0,0-1.5654,2.5557Zm8.4717-24.4853a2.018,2.018,0,0,0,.7656,1.6513c.957.897,2.5967,1.3692,4.835,1.3692a6.013,6.013,0,0,0,3.8017-1.1445,1.6377,1.6377,0,0,0,.751-1.5938,3.7511,3.7511,0,0,0-1.23-3.0449,5.6857,5.6857,0,0,0-7.3594.0923,4.255,4.255,0,0,0-1.5644,2.5532Z"/><path class="b" d="M572.5381,91.4888A5.8558,5.8558,0,0,1,566.94,83.918l6.9385-22.63c.044-.1406.0918-.28.1455-.4165,2.6084-6.668,5.5049-11.1216,8.8535-13.6148a14.7709,14.7709,0,0,1,3.7119-1.9155A5.8547,5.8547,0,0,1,580.999,38.14l2.8643-12.102a5.8548,5.8548,0,0,1,5.6972-4.5059H628.81a5.86,5.86,0,0,1,1.2138.1275c3.543.751,6.1143,2.0429,7.8623,3.9507a11.9846,11.9846,0,0,1,2.8692,8.3916c0,.82-.03,1.7148-.0918,2.7339a5.8614,5.8614,0,0,1-.208,1.2324c-.8867,3.1474-2.4961,7.7925-4.92,14.2q-.066.1743-.1436.3452a12.8918,12.8918,0,0,1-4.9023,5.5986,5.8552,5.8552,0,0,1,3.1416,7.207c-1.6153,4.79-4.0342,12.2251-7.1914,22.0987a5.8547,5.8547,0,0,1-5.5762,4.0713Z"/><path class="b" d="M638.6113,91.4888a5.8029,5.8029,0,0,1-.9424-.0767,11.6095,11.6095,0,0,1-9.6718-11.5464,5.8672,5.8672,0,0,1,.2568-1.7153l14.5625-47.5176a5.8734,5.8734,0,0,1,.4551-1.082,13.8753,13.8753,0,0,1,7.874-6.8794c.044-.0142.0879-.0278.1318-.0415,1.1934-.3609,3.2481-.7749,8.5918-.7749h28.52c.13,0,.26.0044.3886.0132a12.7662,12.7662,0,0,1,4.2159,1.0288,15.7947,15.7947,0,0,1,7.167,5.63,8.16,8.16,0,0,1,1.3837,4.87c0,4.2016-1.6191,13.6382-14.246,49.6172a5.9,5.9,0,0,1-.587,1.207c-3.8261,6.0068-8.4609,7.2676-11.6748,7.2676ZM660.8359,52.623a7.1472,7.1472,0,0,0,4.8018,1.34,5.9017,5.9017,0,0,0,3.7812-1.1729,1.6228,1.6228,0,0,0,.8116-1.5244,3.7669,3.7669,0,0,0-1.2354-3.0718,4.9689,4.9689,0,0,0-3.64-1.3188,5.09,5.09,0,0,0-3.7764,1.3974,4.1233,4.1233,0,0,0-1.543,2.5474v.0025A2.43,2.43,0,0,0,660.8359,52.623Z"/><path class="b" d="M691.4541,91.4888a5.8558,5.8558,0,0,1-5.5977-7.5708l6.9385-22.63c.044-.1406.0918-.28.1455-.4165,2.6084-6.668,5.5049-11.1216,8.8535-13.6148a14.77,14.77,0,0,1,3.712-1.9155A5.8547,5.8547,0,0,1,699.915,38.14l2.8643-12.102a5.8549,5.8549,0,0,1,5.6973-4.5059h39.249a5.862,5.862,0,0,1,1.2139.1275c3.5429.751,6.1142,2.0429,7.8623,3.9507a11.985,11.985,0,0,1,2.8691,8.3916c0,.82-.03,1.7148-.0918,2.7339a5.8614,5.8614,0,0,1-.208,1.2324c-.8867,3.1474-2.4961,7.7925-4.92,14.2q-.066.1743-.1436.3452a12.8918,12.8918,0,0,1-4.9023,5.5986,5.8552,5.8552,0,0,1,3.1416,7.207c-1.6153,4.79-4.0342,12.2251-7.1914,22.0987a5.8547,5.8547,0,0,1-5.5762,4.0713Z"/><path class="b" d="M757.5273,91.4888a5.8008,5.8008,0,0,1-.9423-.0767,11.6095,11.6095,0,0,1-9.6719-11.5464A5.8672,5.8672,0,0,1,747.17,78.15l14.5625-47.5176a5.88,5.88,0,0,1,.4551-1.082,13.8753,13.8753,0,0,1,7.874-6.8794c.044-.0142.0879-.0278.1319-.0415,1.1933-.3609,3.248-.7749,8.5918-.7749h28.5195c.13,0,.26.0044.3887.0132a12.7662,12.7662,0,0,1,4.2158,1.0288,15.7947,15.7947,0,0,1,7.167,5.63,8.1589,8.1589,0,0,1,1.3838,4.87c0,4.2016-1.6192,13.6382-14.2461,49.6172a5.8947,5.8947,0,0,1-.5869,1.207c-3.8262,6.0068-8.461,7.2676-11.6749,7.2676ZM779.752,52.623a7.1467,7.1467,0,0,0,4.8017,1.34,5.9022,5.9022,0,0,0,3.7813-1.1729,1.6229,1.6229,0,0,0,.8115-1.5244,3.7666,3.7666,0,0,0-1.2354-3.0718,4.9687,4.9687,0,0,0-3.64-1.3188,5.09,5.09,0,0,0-3.7764,1.3974,4.1239,4.1239,0,0,0-1.543,2.5474v.0025A2.4305,2.4305,0,0,0,779.752,52.623Z"/><path class="b" d="M350.7373,164.4624a5.8545,5.8545,0,0,1-5.55-7.7183l6.2817-18.7026h-9.0014a5.8545,5.8545,0,0,1-5.5445-7.7334l10.6495-31.4238a5.854,5.854,0,0,1,5.5341-3.9756l46.3589-.08a5.8548,5.8548,0,0,1,5.5738,7.646l-10.125,31.5039a5.8553,5.8553,0,0,1-5.5738,4.063H379.1l-6.8745,22.2915a5.8542,5.8542,0,0,1-5.5942,4.1294Z"/><path class="b" d="M398.8291,164.4624a5.769,5.769,0,0,1-.7407-.0474,10.0659,10.0659,0,0,1-6.3682-3.4438,10.4649,10.4649,0,0,1-2.5776-7.002,5.845,5.845,0,0,1,.2578-1.7168l11.6567-37.998a5.8565,5.8565,0,0,1,.4947-1.1533,12.3936,12.3936,0,0,1,7.0239-6.0117c.0464-.0147.0928-.0293.1391-.043a26.5784,26.5784,0,0,1,7.1368-.6416h22.831q.2586,0,.5161.0229a11.7983,11.7983,0,0,1,3.53.8858,13.62,13.62,0,0,1,6.3032,4.9585q.0952.1347.1831.2749a7.764,7.764,0,0,1,1.0909,4.2309c0,3.4844-1.2935,11.1944-11.3789,40.1265a5.8456,5.8456,0,0,1-.6324,1.2822c-3.4,5.187-7.4565,6.2759-10.2612,6.2759ZM417.4385,131.34a4.8243,4.8243,0,0,0,3.0517.76,3.6131,3.6131,0,0,0,2.3213-.7339,1.7718,1.7718,0,0,0,.2095-.1807,1.9879,1.9879,0,0,0-.62-1.7211,2.7529,2.7529,0,0,0-2.1118-.7413,2.9385,2.9385,0,0,0-2.2818.7925,2.7183,2.7183,0,0,0-.86,1.2857v.0136C417.1475,130.896,417.1475,131.0273,417.4385,131.34Z"/><path class="b" d="M474.8652,164.4624a5.8545,5.8545,0,0,1-5.2778-3.3213l-4.228-8.8091-2.4116-.0185-2.6939,8.1347a5.8544,5.8544,0,0,1-5.5576,4.0142H441.1836a5.8544,5.8544,0,0,1-5.5982-7.5674l14.1583-46.2676a5.8543,5.8543,0,0,1,5.5976-4.1416c.0186,0,12.7632.1216,12.7632.1216a5.8546,5.8546,0,0,1,5.5635,7.4971l-4.625,15.8179h.7163l6.2319-19.2632a5.855,5.855,0,0,1,5.57-4.0523h11.2549a5.8538,5.8538,0,0,1,5.6856,7.2486l-7.1407,29.124a5.8954,5.8954,0,0,1-.207.67c-1.4082,3.7378-3.3164,5.9072-5.209,7.1465l2.4678,5.3657a5.8539,5.8539,0,0,1-5.3184,8.3008Z"/><path class="b" d="M500.9238,164.4624a5.855,5.855,0,0,1-5.5478-7.7246l4.5586-13.521-1.52-.0127c-6.1075,0-8.9112-4.3306-8.9112-8.355a10.1316,10.1316,0,0,1,.9307-4.0942l7.0137-20.3242a5.8542,5.8542,0,0,1,5.5341-3.9449h13.2305a5.8543,5.8543,0,0,1,5.8526,5.71l.5195-1.7349a5.8545,5.8545,0,0,1,5.5469-4.1757s11.6181-.1216,11.6386-.1216a5.8542,5.8542,0,0,1,5.6055,7.5429l-6.28,20.8536c-1.0136,3.5122-3.9384,6.2749-8.6943,8.2119a5.8472,5.8472,0,0,1-2.1494.4321l-3.6631.0371-5.24,17.0835a5.8535,5.8535,0,0,1-5.5967,4.1377Z"/><path class="b" d="M541.625,164.4624a5.778,5.778,0,0,1-.7412-.0474,10.0611,10.0611,0,0,1-6.3672-3.4438,10.4628,10.4628,0,0,1-2.5781-7.002,5.85,5.85,0,0,1,.2578-1.7172l11.6572-37.9981a5.8462,5.8462,0,0,1,.4942-1.1528,12.3913,12.3913,0,0,1,7.0244-6.0117c.0459-.0147.0918-.0293.1386-.043a26.5784,26.5784,0,0,1,7.1368-.6416h22.831c.1719,0,.3447.0078.5156.0229a11.8117,11.8117,0,0,1,3.53.8853,13.6281,13.6281,0,0,1,6.3037,4.959c.0635.09.124.1816.1826.2749a7.76,7.76,0,0,1,1.0909,4.2309c0,3.4844-1.294,11.1944-11.3789,40.1265a5.8661,5.8661,0,0,1-.6319,1.2822c-3.4,5.187-7.457,6.2759-10.2617,6.2759ZM560.2344,131.34a4.8234,4.8234,0,0,0,3.0517.76,3.6148,3.6148,0,0,0,2.3213-.7339,1.6736,1.6736,0,0,0,.209-.1807,1.988,1.988,0,0,0-.6191-1.7211,2.7551,2.7551,0,0,0-2.1123-.7413,2.9364,2.9364,0,0,0-2.2813.7925,2.72,2.72,0,0,0-.86,1.2857v.0136C559.9434,130.896,559.9434,131.0273,560.2344,131.34Z"/><path class="c" d="M371.1484,85.6343H356.5059l-8.794-39.8535L353.1982,27.79h16.6192l-3.9131,12.9082,14.8447.121,3.9121-13.3115h14.5625l-5.7685,19.5235Z"/><path class="c" d="M400.7793,85.6343a5.5587,5.5587,0,0,1-3.3682-1.916,5.6547,5.6547,0,0,1-1.3916-3.8526L411.3887,27.79h30.4951q-4.3565,14.562-7.7451,27.914a16.5845,16.5845,0,0,0-.3223,3.1865q0,4.5587,2.9043,4.5586H449.709q-2.4609,7.3008-5.7676,17.627-.6461,4.56-4.4375,4.5586Z"/><path class="c" d="M506.0615,77.1636q-1.4121,4.7592-8.9551,8.4707H453.6221L471.29,27.79h37.1514a18.4185,18.4185,0,0,1,3.2266.5244,9.8219,9.8219,0,0,1,5.3652,3.6308,2.5906,2.5906,0,0,1,.3223,1.5323Q517.3555,41.0209,506.0615,77.1636ZM487.3037,59.8179a11.638,11.638,0,0,0,7.3223-2.38,7.4425,7.4425,0,0,0,3.0849-6.1719,9.6344,9.6344,0,0,0-3.0849-7.3613,11.5809,11.5809,0,0,0-15.43.1211,9.9737,9.9737,0,0,0-3.3887,6.5947v.2022a8.3291,8.3291,0,0,0,2.582,6.0107Q481.6167,59.8188,487.3037,59.8179Z"/><path class="c" d="M567.8994,27.71a6.6343,6.6343,0,0,1,1.0078-.0811,7.2489,7.2489,0,0,1,6.0108,3.3887c.081.0537.1211.2558.1211.6045q0,2.9048-3.9131,18.0713-.4438,1.7754-3.1055,4.1552a13.0332,13.0332,0,0,1-5.89,3.2676,9.5369,9.5369,0,0,1,3.51,3.751,9.685,9.685,0,0,1,1.4522,4.6387,2.8043,2.8043,0,0,1-.1211.8066l-4.1143,14.7637q-2.9048,4.56-6.6963,4.5586H513.08L530.748,27.9106Zm-31.0605,53.084a11.769,11.769,0,0,0,7.3213-2.3389,7.4512,7.4512,0,0,0,3.0859-6.2529A9.585,9.585,0,0,0,544.16,64.88a11.5225,11.5225,0,0,0-15.4288.1611,9.8846,9.8846,0,0,0-3.3486,6.5557v.3222a7.8063,7.8063,0,0,0,2.582,5.8487Q531.151,80.7944,536.8389,80.7935ZM545.31,56.3091a11.8351,11.8351,0,0,0,7.3213-2.32,7.4349,7.4349,0,0,0,3.0859-6.2725,9.588,9.588,0,0,0-3.0859-7.3213,11.5211,11.5211,0,0,0-15.4288.1621,9.8747,9.8747,0,0,0-3.3476,6.5547v.3223a7.8524,7.8524,0,0,0,2.581,5.89Q539.6217,56.3092,545.31,56.3091Z"/><path class="d" d="M609.9316,39.4878H586.6963l2.8642-12.1016H628.81a8.9284,8.9284,0,0,1,4.76,2.1787A6.3871,6.3871,0,0,1,634.9,34.0015q0,1.05-.0811,2.38-1.25,4.4385-4.76,13.7149-2.5416,5.6074-14.7227,5.6074h-.3633a9.9,9.9,0,0,0-5.5664,1.3311,6.0322,6.0322,0,0,0-2.1787,3.1064q-.5244,1.6539-.9277,3.3076H628.083q-2.4609,7.3008-7.22,22.1856H572.5381l6.9385-22.63q3.2666-8.35,6.8974-11.0518,2.5811-1.8559,8.0674-2.0576h12.0615q7.4619-2.4594,7.4619-5.6875a4.4983,4.4983,0,0,0-1.8955-3.1865Q611.06,40.2944,609.9316,39.4878Z"/><path class="d" d="M638.6113,85.6343a5.5581,5.5581,0,0,1-3.3681-1.916,5.6542,5.6542,0,0,1-1.3916-3.8526l14.5625-47.5176a8.1052,8.1052,0,0,1,4.5576-4.1142,28.8473,28.8473,0,0,1,6.8974-.5244h28.52a6.9269,6.9269,0,0,1,2.38.6045,9.9832,9.9832,0,0,1,4.6386,3.6308,2.6887,2.6887,0,0,1,.2823,1.4522q0,8.0273-13.9161,47.6787-2.9048,4.56-6.7373,4.5586Zm27.0264-25.8164a11.7211,11.7211,0,0,0,7.3418-2.38,7.4262,7.4262,0,0,0,3.1055-6.1719,9.6036,9.6036,0,0,0-3.1055-7.3613,10.7925,10.7925,0,0,0-7.624-2.8838,10.9089,10.9089,0,0,0-7.8057,3.0049,9.7722,9.7722,0,0,0-3.3682,6.5947v.2022a8.3288,8.3288,0,0,0,2.5821,6.0107Q659.9907,59.8188,665.6377,59.8179Z"/><path class="d" d="M728.8477,39.4878H705.6123l2.8643-12.1016h39.249a8.9288,8.9288,0,0,1,4.76,2.1787,6.3875,6.3875,0,0,1,1.331,4.4366q0,1.05-.081,2.38-1.25,4.4385-4.76,13.7149-2.5414,5.6074-14.7227,5.6074H733.89a9.9,9.9,0,0,0-5.5664,1.3311,6.0322,6.0322,0,0,0-2.1787,3.1064q-.5244,1.6539-.9277,3.3076H746.999q-2.4609,7.3008-7.22,22.1856H691.4541l6.9385-22.63q3.2665-8.35,6.8974-11.0518,2.5811-1.8559,8.0674-2.0576h12.0615q7.462-2.4594,7.462-5.6875a4.4986,4.4986,0,0,0-1.8955-3.1865Q729.9761,40.2944,728.8477,39.4878Z"/><path class="d" d="M757.5273,85.6343a5.5584,5.5584,0,0,1-3.3681-1.916,5.6542,5.6542,0,0,1-1.3916-3.8526L767.33,32.3481a8.1055,8.1055,0,0,1,4.5576-4.1142,28.8477,28.8477,0,0,1,6.8975-.5244h28.5195a6.9269,6.9269,0,0,1,2.38.6045,9.9832,9.9832,0,0,1,4.6386,3.6308,2.6887,2.6887,0,0,1,.2823,1.4522q0,8.0273-13.916,47.6787-2.9049,4.56-6.7374,4.5586Zm27.0264-25.8164a11.7211,11.7211,0,0,0,7.3418-2.38,7.4262,7.4262,0,0,0,3.1055-6.1719,9.6036,9.6036,0,0,0-3.1055-7.3613,10.7925,10.7925,0,0,0-7.624-2.8838,10.9089,10.9089,0,0,0-7.8057,3.0049,9.7716,9.7716,0,0,0-3.3681,6.5947v.2022a8.3287,8.3287,0,0,0,2.582,6.0107Q778.9068,59.8188,784.5537,59.8179Z"/><path class="d" d="M350.7373,158.6079l8.874-26.4209H342.4678l10.6494-31.4238,46.3486-.08-10.125,31.5039H374.7783l-8.1474,26.4209Z"/><path class="d" d="M398.8291,158.6079a4.2229,4.2229,0,0,1-2.7031-1.4922,4.61,4.61,0,0,1-1.1289-3.1465l11.6572-37.998a6.6432,6.6432,0,0,1,3.7109-3.3076,23.6436,23.6436,0,0,1,5.4864-.4043h22.831a5.9663,5.9663,0,0,1,1.8555.4844,7.8359,7.8359,0,0,1,3.7109,2.9042,2.2712,2.2712,0,0,1,.2022,1.13q0,6.4952-11.0528,38.1993-2.38,3.6312-5.3652,3.6308ZM420.49,137.9546a9.4454,9.4454,0,0,0,5.8487-1.916,5.8847,5.8847,0,0,0,2.542-4.9,7.7822,7.7822,0,0,0-2.4815-5.95,8.61,8.61,0,0,0-6.11-2.3193,8.7645,8.7645,0,0,0-6.3536,2.44,7.7846,7.7846,0,0,0-2.6425,5.3047v.2011a6.56,6.56,0,0,0,2.0976,4.76A10.0718,10.0718,0,0,0,420.49,137.9546Z"/><path class="d" d="M455.3418,112.34l12.707.1211-6.8174,23.3155h12.7872l7.5429-23.3155h11.2549l-7.1406,29.124q-1.8544,4.922-4.961,4.9209h-3.1865l5.5664,12.1016h-8.2295l-5.8086-12.1016-10.3261-.08-4.0342,12.1816H441.1836Z"/><path class="d" d="M539.77,112.0181l-6.2929,20.8945q-.7266,2.5825-5.2842,4.4375l-7.9463.08-6.4951,21.1777H500.9238l7.14-21.1777-9.6006-.08q-3.1054,0-3.1055-2.501a4.7641,4.7641,0,0,1,.5244-1.9365l7.1-20.5723h13.2305l-3.1064,10.125,11.9.3223,3.1865-10.6484Z"/><path class="d" d="M541.625,158.6079a4.2229,4.2229,0,0,1-2.7031-1.4922,4.61,4.61,0,0,1-1.1289-3.1465l11.6572-37.998a6.6432,6.6432,0,0,1,3.7109-3.3076,23.6436,23.6436,0,0,1,5.4864-.4043h22.831a5.9663,5.9663,0,0,1,1.8555.4844,7.8364,7.8364,0,0,1,3.7109,2.9042,2.2712,2.2712,0,0,1,.2022,1.13q0,6.4952-11.0528,38.1993-2.38,3.6312-5.3652,3.6308Zm21.6611-20.6533a9.4454,9.4454,0,0,0,5.8487-1.916,5.8847,5.8847,0,0,0,2.542-4.9,7.7822,7.7822,0,0,0-2.4815-5.95,8.61,8.61,0,0,0-6.11-2.3193,8.7645,8.7645,0,0,0-6.3536,2.44,7.7846,7.7846,0,0,0-2.6425,5.3047v.2011a6.56,6.56,0,0,0,2.0976,4.76A10.0718,10.0718,0,0,0,563.2861,137.9546Z"/><path class="b" d="M688.4307,134.9189a2.9273,2.9273,0,0,0-5.0772,0h-8.3008a2.9277,2.9277,0,0,1-2.8-3.7822l7.3155-23.95a2.9273,2.9273,0,0,1,2.8-2.0722H697.751c.0713,0,.1416.0024.2129.0078a10.536,10.536,0,0,1,1.85.3008c.0381.01.0752.02.1133.0312a6.9586,6.9586,0,0,1,3.73,2.5576,3.8289,3.8289,0,0,1,.7119,2.3843c0,1.87-.6719,6.1162-5.917,22.4888a2.9283,2.9283,0,0,1-2.7881,2.0341Zm.0507-17.4033a1.6494,1.6494,0,0,0-1.26.5c-.4336.3955-.44.5772-.4414.6455l.001.1031c0,.0625,0,.1.1435.2348a2.6769,2.6769,0,0,0,1.6895.4453,2.0055,2.0055,0,0,0,1.2685-.3891.5356.5356,0,0,0,.1055-.0938,1.2423,1.2423,0,0,0,.0088-.1308,1.0711,1.0711,0,0,0-.3506-.9024A1.5463,1.5463,0,0,0,688.4814,117.5156Z"/><path class="b" d="M701.8428,134.9189a2.8925,2.8925,0,0,1-.3731-.0239,4.6687,4.6687,0,0,1-2.9472-1.5918,4.833,4.833,0,0,1-1.1924-3.2324,2.91,2.91,0,0,1,.1289-.8594l5.2939-17.2363a2.9268,2.9268,0,0,1,2.7979-2.0679h5.4785a2.9261,2.9261,0,0,1,2.3535,1.187c.0352.0474.0684.0953.1006.1441a2.9274,2.9274,0,0,1,2.5059-1.4141h4.7939a2.9272,2.9272,0,0,1,2.9268,2.9273c0,.7075,0,1.7768-4.7373,18.5337a2.9055,2.9055,0,0,1-.3682.8076,5.4783,5.4783,0,0,1-4.669,2.8261Z"/><path class="b" d="M721.668,134.9189a2.9262,2.9262,0,0,1-.6016-.0625,5.2092,5.2092,0,0,1-2.6367-1.4628,4.6119,4.6119,0,0,1-1.3916-3.3228,2.9408,2.9408,0,0,1,.1279-.8584l4.8262-15.7334a2.9639,2.9639,0,0,1,.249-.5791,5.6283,5.6283,0,0,1,3.1924-2.7187,11.2646,11.2646,0,0,1,3.166-.3072l11.7324.0332a2.9277,2.9277,0,0,1,2.8135,3.7085l-2.6553,9.5869a2.9221,2.9221,0,0,1-.8545,1.3863,6.158,6.158,0,0,1,.1075,1.1567,14.3766,14.3766,0,0,1-.7022,3.6362l-1.001,3.4307a2.9266,2.9266,0,0,1-2.8095,2.1064Zm6.999-9.2573a1.0284,1.0284,0,0,0,.35.0454c.0889,0,.1807-.0024.2754-.0092h-.001c-.0224,0,.0938-.0318.336-.1851-.0225-.0542-.044-.1089-.0635-.1641h-.1963a.72.72,0,0,0-.58.188A1.4387,1.4387,0,0,0,728.667,125.6616Z"/><path class="b" d="M748.8359,134.9189a2.9159,2.9159,0,0,1-1.9921-.7827l-5.4288-5.0439a6.0013,6.0013,0,0,1-2.0029-4.5,6.1984,6.1984,0,0,1,1.5518-4.1162,5.6293,5.6293,0,0,1,3.9941-2.01c.19-.0161.3809-.0234.57-.0234a6.6145,6.6145,0,0,1,3.1758.7485,6.2883,6.2883,0,0,1,7.5469,1.4268,6.185,6.185,0,0,1,1.457,4.1084,5.6957,5.6957,0,0,1-1.624,4.1577l-5.1777,5.1777A2.9228,2.9228,0,0,1,748.8359,134.9189Z"/><path class="b" d="M758.1387,134.9189a2.9269,2.9269,0,0,1-2.8057-3.7617l2.7725-9.3193a2.927,2.927,0,0,1,2.8056-2.0928H764.3a2.9264,2.9264,0,0,1,.04-1.4223l.9014-3.2071a2.9055,2.9055,0,0,1,.2383-.59h-.46a2.928,2.928,0,0,1-2.7353-3.97l1.3369-3.5069a2.9273,2.9273,0,0,1,2.7275-1.8842l17.9952-.05a2.9266,2.9266,0,0,1,2.8173,3.7221l-1.5693,5.5615a8.6573,8.6573,0,0,1-1.66,3.2906,6.4465,6.4465,0,0,1,.7334,3.0122,7.08,7.08,0,0,1-.8252,3.26l-2.3085,7.0537a2.9424,2.9424,0,0,1-.2354.5318,5.8922,5.8922,0,0,1-5.2021,3.3725Zm13.667-22.3774Z"/><path class="b" d="M786.95,134.9189a2.9267,2.9267,0,0,1-2.8135-3.7343c.3467-1.2095,1.2969-4.83,2.9033-11.0635h-3.5136a2.9268,2.9268,0,0,1-2.7754-3.8569c1.1123-3.3208,1.3086-3.6695,1.6142-4.0879a2.93,2.93,0,0,1,1.2129-.9639c1.4483-.62,2.7373-1.23,3.8321-1.8125,2.6425-1.4,3.2568-2.2,3.3515-2.3442A2.9275,2.9275,0,0,1,793.53,105.08h5.9463a2.9275,2.9275,0,0,1,2.8554,3.5732l-5.4277,23.9844a2.9281,2.9281,0,0,1-2.8555,2.2812Z"/><path class="b" d="M657.8184,167.4561a2.927,2.927,0,0,1-2.8057-3.7618l2.7725-9.3193a2.927,2.927,0,0,1,2.8056-2.0928h2.8174c-.05-.0517-.2207-.2285-.2549-.2666-1.7383-1.9746-2.583-3.8257-2.583-5.6587a5.4417,5.4417,0,0,1,.3164-1.8193l.7656-2.9019a2.9182,2.9182,0,0,1,.4356-.937q.5274-.7493,1.0547-1.48a2.9615,2.9615,0,0,1,.3047-.3589,4.8645,4.8645,0,0,1,3.5234-1.4092,8.691,8.691,0,0,1,1.1426.084H684.625a2.9272,2.9272,0,0,1,2.8291,3.6787l-1.2021,4.5264a2.9275,2.9275,0,0,1-2.8291,2.1757h-5.1055q.3135.2118.6289.4244c2.293,1.6,4.8808,3.7607,4.8808,6.5185a4.3487,4.3487,0,0,1-.2539,1.4722l-2.3623,7.2217a2.9341,2.9341,0,0,1-.2353.5317,5.8924,5.8924,0,0,1-5.2022,3.3726Z"/><path class="b" d="M682.4375,167.4561a2.9268,2.9268,0,0,1-2.7988-3.7837l5.8623-19.1573a2.9269,2.9269,0,0,1,2.7929-2.0708l15.7725-.0332a2.9266,2.9266,0,0,1,2.7568,3.91l-1.5361,4.3086a2.9262,2.9262,0,0,1-2.7568,1.9443H701.69a2.9307,2.9307,0,0,1,.0986,1.9873s-.7549,2.4683-.7656,2.5a2.9276,2.9276,0,0,1,2.1621,3.7383l-1.4532,4.6094a2.9282,2.9282,0,0,1-2.7919,2.0474Z"/><path class="b" d="M702.1455,167.4561a2.9268,2.9268,0,0,1-2.7988-3.7837l5.8623-19.1573a2.9262,2.9262,0,0,1,2.7988-2.0708h12.31q.1318,0,.2637.0118a9.6553,9.6553,0,0,1,1.4668.2431c.0371.0093.0732.0191.1093.03a6.0842,6.0842,0,0,1,3.3741,2.3242c.0371.0528.0732.1065.1064.1616a4.1246,4.1246,0,0,1,.5625,2.2115c0,1.33-.3262,3.7846-2.8711,11.0254-1.3115,3.4829-3.5791,3.9936-4.8154,3.9936h-4.1328l-1.0938,3.0669a2.9265,2.9265,0,0,1-2.7568,1.9439Zm9.1826-12.97a2.4266,2.4266,0,0,0,.7715.1006,1.06,1.06,0,0,0,.52-.1133.282.282,0,0,0-.083-.1093c-.07-.0669-.18-.17-.5537-.17a.6814.6814,0,0,0-.56.1939C711.3848,154.4248,711.3535,154.4575,711.3281,154.4863Z"/><path class="b" d="M731.6016,167.4561a2.916,2.916,0,0,1-1.9922-.7828l-5.4287-5.0439a6.0014,6.0014,0,0,1-2.003-4.5,6.1989,6.1989,0,0,1,1.5518-4.1162,5.6293,5.6293,0,0,1,3.9941-2.01c.19-.0161.3809-.0234.57-.0234a6.6154,6.6154,0,0,1,3.1758.7485,6.2883,6.2883,0,0,1,7.5469,1.4268,6.185,6.185,0,0,1,1.457,4.1084,5.6957,5.6957,0,0,1-1.624,4.1577l-5.1777,5.1777A2.9226,2.9226,0,0,1,731.6016,167.4561Z"/><path class="b" d="M743.6436,167.4561a2.9307,2.9307,0,0,1-.4707-.0381,5.3085,5.3085,0,0,1-4.4268-5.2779,2.94,2.94,0,0,1,.1279-.8579l6.0293-19.6748a2.9586,2.9586,0,0,1,.2276-.542,6.24,6.24,0,0,1,3.5449-3.0844,13.2989,13.2989,0,0,1,3.7695-.3638h11.8086c.0654,0,.1309.0024.1963.0068a5.791,5.791,0,0,1,1.9014.4629,7.0359,7.0359,0,0,1,3.1836,2.501,3.8768,3.8768,0,0,1,.6679,2.312c0,1.7808-.6728,5.7441-5.9267,20.71a2.9012,2.9012,0,0,1-.293.6035c-1.707,2.68-3.8008,3.2422-5.2578,3.2422Zm9.55-16.96a2.5873,2.5873,0,0,0,1.6406.416,1.9039,1.9039,0,0,0,1.2578-.3813.5938.5938,0,0,0,.1318-.125.5405.5405,0,0,0,.0088-.1075,1.0707,1.0707,0,0,0-.3506-.9023,1.546,1.546,0,0,0-1.165-.4126,1.5962,1.5962,0,0,0-1.2168.44,1.4307,1.4307,0,0,0-.48.7119A.5454.5454,0,0,0,753.1934,150.4961Z"/><path class="b" d="M778.6016,167.4561a2.9278,2.9278,0,0,1-2.7989-3.7852l.1758-.5742h-3.0556a8.6116,8.6116,0,0,1-5.23-1.5318,5.92,5.92,0,0,1-2.4913-4.8525,6.8981,6.8981,0,0,1,.5567-2.6772l4.3105-14.3013a2.9281,2.9281,0,0,1,2.8028-2.0825h6.8818a2.9286,2.9286,0,0,1,2.8838,3.4321l.4951-1.5264a2.9272,2.9272,0,0,1,2.7842-2.0229h6.0293a2.9276,2.9276,0,0,1,2.9248,3.0464c-.0322.79-.0986,2.4321-6.3008,24.7324a2.9278,2.9278,0,0,1-2.82,2.1431Z"/><path class="c" d="M688.4307,131.9917l1.8379-6.28-4.6934.0342-2.2217,6.2461h-8.3008l7.3155-23.95H697.751a7.5975,7.5975,0,0,1,1.3359.2168,4.0715,4.0715,0,0,1,2.2217,1.5029,1.0752,1.0752,0,0,1,.1328.6348q0,3.5581-5.7783,21.5957Zm.1836-9.62a4.93,4.93,0,0,0,3.0068-.961,3.0428,3.0428,0,0,0,1.3027-2.58,3.9744,3.9744,0,0,0-1.2861-3.0479,4.4667,4.4667,0,0,0-3.1563-1.1943,4.5727,4.5727,0,0,0-3.291,1.3193,3.6928,3.6928,0,0,0-1.3359,2.6553v.2012a3.1442,3.1442,0,0,0,1.0693,2.3711A5.1164,5.1164,0,0,0,688.6143,122.3716Z"/><path class="c" d="M700.2568,130.0708l5.294-17.2363h5.4785l-1.2861,4.1924,4.9267.1337,1.3194-4.4091h4.7939q0,1.37-4.6269,17.7373a2.7372,2.7372,0,0,1-2.2208,1.5029H701.8428a1.7526,1.7526,0,0,1-1.1192-.6182A1.909,1.909,0,0,1,700.2568,130.0708Z"/><path class="c" d="M732.708,126.0122a1.6807,1.6807,0,0,0,.0332-.334,2.7162,2.7162,0,0,0-.417-1.3027h4.1924a3.2343,3.2343,0,0,1,.3,1.37,14.9024,14.9024,0,0,1-.6006,2.8721l-.9853,3.374H721.668a2.3237,2.3237,0,0,1-1.169-.668,1.7143,1.7143,0,0,1-.5342-1.2529l4.8262-15.7334a2.7535,2.7535,0,0,1,1.5371-1.3691,9.7825,9.7825,0,0,1,2.2715-.167l11.7246.0332-2.6553,9.5869h-8.3017a3.6331,3.6331,0,0,0-2.58.9775,3.12,3.12,0,0,0-1.0937,2.18v.1328a2.82,2.82,0,0,0,.8515,2.0049,3.4467,3.4467,0,0,0,2.4717.918c.1563,0,.3174-.0049.4844-.0166a4.3709,4.3709,0,0,0,2.2217-1.002q1.018-.7851,1.0185-1.3857A.6823.6823,0,0,0,732.708,126.0122Z"/><path class="c" d="M745.1611,121.3862c.1231-.0117.2452-.0166.3672-.0166a3.6218,3.6218,0,0,1,1.9375.4844,2.67,2.67,0,0,1,1.003,1.0186l.3339.6513a.2706.2706,0,0,0,.0332-.167,4.4385,4.4385,0,0,1,.9014-1.3193,2.5723,2.5723,0,0,1,1.8379-.6016,3.0248,3.0248,0,0,1,2.4385,1.0694,3.2673,3.2673,0,0,1,.7676,2.2207,2.822,2.822,0,0,1-.7676,2.0879l-5.1778,5.1777-5.4287-5.0439a3.098,3.098,0,0,1-1.0683-2.3555,3.2542,3.2542,0,0,1,.8349-2.1963A2.7191,2.7191,0,0,1,745.1611,121.3862Z"/><path class="c" d="M772.6357,111.5981H765.02l1.3369-3.5068,17.9874-.05-1.5694,5.5615a5.3569,5.3569,0,0,1-1.17,2.2881,5.29,5.29,0,0,1-2.4209,1.086q2.5547,1.5029,2.5547,3.7236a4.2712,4.2712,0,0,1-.6006,2.1045l-2.3887,7.2988a3.09,3.09,0,0,1-2.6552,1.8877H758.1387l2.7724-9.3193h6.33a3.0572,3.0572,0,0,0,1.82-.5352,1.5057,1.5057,0,0,0,.752-1.2187q0-1.37-2.6553-1.8038l.9014-3.207,2.9892-.1172q3.208-.5669,3.2071-2.1875Q774.2559,112.45,772.6357,111.5981Z"/><path class="c" d="M786.95,131.9917q.5508-1.92,3.04-11.5908a7.1632,7.1632,0,0,0,.1162-1.2862q0-1.92-1.1855-1.9209h-5.3945a29.3979,29.3979,0,0,1,1.2021-3.29q2.3056-.9858,4.0586-1.9209,4.1924-2.2208,4.7432-3.9756h5.9463l-5.4278,23.9844Z"/><path class="c" d="M664.4824,142.3823q.5171-.7353,1.0352-1.4531a1.9641,1.9641,0,0,1,1.4531-.5518,6.418,6.418,0,0,1,.9356.084H684.625l-1.2021,4.5264h-9.9043q-2.0216.5508-2.0215,1.4189a1.07,1.07,0,0,0,.3847.7188q2.7056,1.8032,5.4278,3.6406,3.59,2.5064,3.5908,4.0918a1.4286,1.4286,0,0,1-.083.4844l-2.3887,7.2988a3.09,3.09,0,0,1-2.6553,1.8877h-17.955l2.7724-9.3193h6.33q1.72-.5523,1.7207-1.1524a1.6784,1.6784,0,0,0-.4346-.9863q-1.4033-1.503-2.8564-2.9893a6.0482,6.0482,0,0,1-1.8535-3.7246,2.5337,2.5337,0,0,1,.1836-.9355Z"/><path class="c" d="M698.2539,156.1108h-3.9248l-1.2021,3.8086h7.2656l-1.4531,4.6094h-16.502L688.3,145.3716l15.7666-.0332L702.53,149.647H696.501l-1.32,4.0586h3.8086Z"/><path class="c" d="M702.1455,164.5288l5.8623-19.1572h12.31a6.649,6.649,0,0,1,1.0185.167,3.2191,3.2191,0,0,1,1.8037,1.2021,1.3559,1.3559,0,0,1,.1338.6856q0,2.3539-2.706,10.0547-.7676,2.0376-2.0537,2.0371h-6.1963l-1.7871,5.0107Zm9.9541-7.0146a3.912,3.912,0,0,0,2.4219-.794,2.4354,2.4354,0,0,0,1.0527-2.0293,3.2324,3.2324,0,0,0-1.0273-2.4551,3.8482,3.8482,0,0,0-5.1524.042,3.1424,3.1424,0,0,0-1.0859,2.1963v.1172a2.6359,2.6359,0,0,0,.8516,1.9375A4.17,4.17,0,0,0,712.1,157.5142Z"/><path class="c" d="M727.9268,153.9233c.123-.0117.2451-.0166.3671-.0166a3.6218,3.6218,0,0,1,1.9375.4844,2.67,2.67,0,0,1,1.003,1.0186l.334.6513a.2714.2714,0,0,0,.0332-.167,4.4385,4.4385,0,0,1,.9013-1.3193,2.5726,2.5726,0,0,1,1.8379-.6016,3.0248,3.0248,0,0,1,2.4385,1.0694,3.2675,3.2675,0,0,1,.7676,2.2207,2.8218,2.8218,0,0,1-.7676,2.0879l-5.1777,5.1777-5.4287-5.0439a3.0977,3.0977,0,0,1-1.0684-2.3555,3.254,3.254,0,0,1,.835-2.1963A2.7191,2.7191,0,0,1,727.9268,153.9233Z"/><path class="c" d="M743.6436,164.5288a2.3006,2.3006,0,0,1-1.3946-.793,2.34,2.34,0,0,1-.5761-1.5957l6.0292-19.6748a3.3581,3.3581,0,0,1,1.8868-1.7031,11.9534,11.9534,0,0,1,2.8564-.2178h11.8086a2.8737,2.8737,0,0,1,.9854.251,4.138,4.138,0,0,1,1.9209,1.5029,1.12,1.12,0,0,1,.1162.6016q0,3.3237-5.7618,19.7412a3.3769,3.3769,0,0,1-2.789,1.8877Zm11.19-10.6894a4.85,4.85,0,0,0,3.039-.9854,3.0755,3.0755,0,0,0,1.2862-2.5557,3.9756,3.9756,0,0,0-1.2862-3.0478,4.4664,4.4664,0,0,0-3.1562-1.1943,4.5166,4.5166,0,0,0-3.2314,1.2441,4.04,4.04,0,0,0-1.3946,2.7314v.083a3.4479,3.4479,0,0,0,1.0684,2.4893A5.2051,5.2051,0,0,0,754.834,153.8394Z"/><path class="c" d="M768.5127,155.0425l4.3594-14.4639h6.8818l-3.24,10.2715h6.0293l3.374-10.3887h6.0293q-.0851,2.0874-6.1963,24.0674h-7.1484l1.3359-4.3594h-7.0146a5.7525,5.7525,0,0,1-3.4913-.96,2.9687,2.9687,0,0,1-1.3027-2.4971A4.0425,4.0425,0,0,1,768.5127,155.0425Z"/><path class="a" d="M14.6357,213.5176H16.88v-8.0625h2.7363v8.0625h5.918c.0742-.7637.0986-1.5039.123-2.3174l2.7617.123A25.7317,25.7317,0,0,1,25.56,222.9375l-2.4414-1.332a17.4861,17.4861,0,0,0,1.9472-5.1534h-10.43Z"/><path class="a" d="M45.8242,223.0361H43.0869v-1.0605h-5.4c-3.501,0-4.7588-1.85-4.7588-5.376v-1.75h-2.86v-2.959h2.86v-2.9345H31.3252v-2.9346H45.5527v2.9346H35.665v2.9345H45.8242Zm-8.0879-4.0195h5.3506V214.85H35.665v1.75C35.665,218.252,36.1338,219.0166,37.7363,219.0166Z"/><path class="a" d="M61.0576,211.7178H55.83v1.5283c0,3.23-.4688,8.5322-5.77,9.4443l-.6407-2.959c3.4278,0,3.6739-3.9453,3.6739-6.4853v-1.5283H47.8652v-2.9346h5.2276v-4.3887H55.83v4.3887h5.2275Z"/><path class="a" d="M68.18,211.1758H78.5605v2.9336H77.4756v3.0088c0,3.5263-1.2578,5.3506-4.7588,5.3506h-.4189l-.6915-2.9346H72.667c1.6035,0,2.0713-.7891,2.0713-2.416v-3.0088H68.18v2.6631a13.018,13.018,0,0,1-1.5293,6.14L64.11,221.68a9.0489,9.0489,0,0,0,1.332-4.8828v-2.6875H62.3105v-2.9336h3.1319v-6.0176H68.18Z"/><path class="a" d="M89.501,206.0215h11.3183v2.9346h-4.291v10.5781h5.7949v2.9346H87.9971v-2.9346h5.7695V208.9561H89.501Z"/><path class="a" d="M107.0537,222.4688h-2.7373V206.5645h5.2764v-2.17h2.7617v2.17h5.8691v2.9335h-.5918v7.62c0,3.5263-1.2578,5.3506-4.76,5.3506h-.3692l-.69-2.9346h1.0107c1.6026,0,2.0713-.7891,2.0713-2.416v-7.62h-7.8408Z"/><path class="a" d="M133.0381,211.7178h-5.2276v1.5283c0,3.23-.4687,8.5322-5.77,9.4443l-.6406-2.959c3.4277,0,3.6738-3.9453,3.6738-6.4853v-1.5283h-5.2275v-2.9346h5.2275v-4.3887h2.7373v4.3887h5.2276Z"/><path class="a" d="M134.7354,206.0215h11.81v2.9346h-7.1992v2.9091h10.1582v2.959H139.3467v2.294c0,1.6269.4433,2.416,2.0459,2.416h7.2256l-.6661,2.9346h-6.6083c-3.502,0-4.7588-1.8243-4.7588-5.3506v-2.294h-2.3428v-2.959h2.3428v-2.9091h-1.85Z"/><path class="a" d="M150.61,206.416h2.3183v-2.0215H155.69v2.0215h9.9121l.4688,2.6631a39.6367,39.6367,0,0,1-8.4082,5.8691l-1.4307-2.4912a27.47,27.47,0,0,0,5.1533-3.1064H155.69v13.1182h-2.7617V209.3506H150.61Zm9.9375,8.335a59.418,59.418,0,0,1,5.2031,6.6826l-2.27,1.7754a49.8185,49.8185,0,0,0-5.2021-6.6826Z"/><path class="a" d="M170.4307,222.4688h-2.7373V206.5645H172.97v-2.17h2.7617v2.17h5.8692v2.9335h-.5918v7.62c0,3.5263-1.2578,5.3506-4.76,5.3506H175.88l-.69-2.9346H176.2c1.6025,0,2.0713-.7891,2.0713-2.416v-7.62h-7.8408Z"/><path class="a" d="M182.9023,220.9648l7.15-15.707,2.5157,1.1836-5.795,12.5752,7.1016-1.9228-2.0469-4.6114,2.5645-1.1592,4.7344,10.4551-2.54,1.1592-1.4785-3.1562-11.1465,2.8359Z"/><path class="a" d="M213.4492,211.7178h-5.2275v1.5283c0,3.23-.4688,8.5322-5.77,9.4443l-.6407-2.959c3.4268,0,3.6739-3.9453,3.6739-6.4853v-1.5283h-5.2276v-2.9346h5.2276v-4.3887h2.7373v4.3887h5.2275Z"/><path class="a" d="M216.3545,206.0215h11.3184v2.9346h-4.2911v10.5781h5.795v2.9346H214.8506v-2.9346h5.77V208.9561h-4.2656Z"/><path class="a" d="M244.4854,222.4688H241.748v-1.1836h-7.8408v1.1836H231.17V206.0215h13.3155Zm-2.7374-4.1182v-9.3945h-7.8408v9.3945Z"/><path class="a" d="M249.7334,222.4688h-2.7373V206.5645h5.2764v-2.17h2.7617v2.17h5.8691v2.9335h-.5918v7.62c0,3.5263-1.2578,5.3506-4.76,5.3506h-.3692l-.69-2.9346h1.0107c1.6026,0,2.0713-.7891,2.0713-2.416v-7.62h-7.8408Z"/><path class="a" d="M262.2051,220.9648l7.15-15.707,2.5156,1.1836-5.7949,12.5752,7.1015-1.9228-2.0468-4.6114,2.5644-1.1592,4.7344,10.4551-2.54,1.1592-1.4785-3.1562-11.1465,2.8359Z"/><path class="a" d="M279.4609,220.5205l.8389-.2959V206.0215h2.7363v13.0937a38.2633,38.2633,0,0,0,8.3838-4.7588l1.628,2.3916a44.5254,44.5254,0,0,1-12.5264,6.4854Z"/><path class="a" d="M314.124,208.9561h-9.6172v8.1621c0,1.6269.4434,2.416,2.0713,2.416h7.249v2.9346h-7.2988c-3.501,0-4.7588-1.8243-4.7588-5.3506V206.0215H314.124Z"/><path class="a" d="M329.8516,222.4688h-2.7373v-1.1836h-7.8418v1.1836h-2.7364V206.0215h13.3155Zm-2.7373-4.1182v-9.3945h-7.8418v9.3945Z"/><path class="a" d="M335.0986,222.4688h-2.7363V206.5645h5.2764v-2.17H340.4v2.17H346.27v2.9335h-.5918v7.62c0,3.5263-1.2578,5.3506-4.7588,5.3506h-.37l-.69-2.9346h1.0107c1.6026,0,2.0713-.7891,2.0713-2.416v-7.62h-7.8418Z"/><path class="a" d="M360.1963,208.1172a53.7744,53.7744,0,0,1-5.6221.8633v2.8847h7.0772v2.959h-7.0772v2.294c0,3.5263-1.2578,5.3506-4.7588,5.3506h-.2226l-.5176-2.9346h.69c1.6026,0,2.0713-.7891,2.0713-2.416v-2.294h-3.4521v-2.959h3.4521v-2.6875q-1.7388.0747-3.625.0743l-.2715-2.9346a69.824,69.824,0,0,0,11.7871-1.1338Z"/><path class="a" d="M363.5205,206.0215h11.8106v2.9346h-7.1993v2.9091H378.29v2.959H368.1318v2.294c0,1.6269.4434,2.416,2.0459,2.416h7.2256l-.666,2.9346h-6.6084c-3.5019,0-4.7588-1.8243-4.7588-5.3506v-2.294h-2.3428v-2.959H365.37v-2.9091h-1.85Z"/><path class="a" d="M379.3955,206.416h2.3184v-2.0215h2.7617v2.0215h9.9121l.4687,2.6631a39.6317,39.6317,0,0,1-8.4082,5.8691l-1.4306-2.4912a27.4736,27.4736,0,0,0,5.1533-3.1064h-5.6953v13.1182h-2.7617V209.3506h-2.3184Zm9.9375,8.335a59.4064,59.4064,0,0,1,5.2031,6.6826l-2.2695,1.7754a49.8185,49.8185,0,0,0-5.2021-6.6826Z"/><path class="a" d="M396.38,206.0215h11.81v2.9346h-7.1992v2.9091h10.1582v2.959H400.9912v2.294c0,1.6269.4434,2.416,2.0459,2.416h7.2256l-.666,2.9346h-6.6084c-3.502,0-4.7588-1.8243-4.7588-5.3506v-2.294h-2.3428v-2.959H398.23v-2.9091h-1.85Z"/><path class="a" d="M415.7568,222.4688H413.02V206.5645h5.2764v-2.17h2.7617v2.17h5.8692v2.9335h-.5918v7.62c0,3.5263-1.2579,5.3506-4.76,5.3506h-.3691l-.69-2.9346h1.0108c1.6025,0,2.0713-.7891,2.0713-2.416v-7.62h-7.8409Z"/><path class="a" d="M441.124,208.9561h-9.6162v8.1621c0,1.6269.4443,2.416,2.0713,2.416h7.25v2.9346H433.53c-3.502,0-4.76-1.8243-4.76-5.3506V206.0215H441.124Z"/><path class="a" d="M443.4385,206.0215H455.249v2.9346H448.05v2.9091H458.208v2.959H448.05v2.294c0,1.6269.4434,2.416,2.0459,2.416h7.2256l-.666,2.9346h-6.6084c-3.502,0-4.7588-1.8243-4.7588-5.3506v-2.294h-2.3428v-2.959h2.3428v-2.9091h-1.85Z"/><path class="a" d="M481.2568,222.4688H478.52v-1.1836h-7.8408v1.1836h-2.7373V206.0215h13.3154Zm-2.7373-4.1182v-9.3945h-7.8408v9.3945Z"/><path class="a" d="M486.5049,222.4688h-2.7373V206.5645h5.2763v-2.17h2.7618v2.17h5.8691v2.9335h-.5918v7.62c0,3.5263-1.2578,5.3506-4.76,5.3506h-.3691l-.69-2.9346h1.0107c1.6026,0,2.0713-.7891,2.0713-2.416v-7.62h-7.8408Z"/><path class="a" d="M517.3408,205.6025a95.0643,95.0643,0,0,1,3.0088,12.378,45.1779,45.1779,0,0,0,4.8086-12.6494l2.6377.8388c-1.0107,5.1778-4.5371,13.66-7.668,17.1621l-2.22-1.6767a6.69,6.69,0,0,0,.4189-.5674c-1.0839-4.7832-2.4648-10.3066-3.7968-14.77Z"/><path class="a" d="M529.2471,206.0215h11.81v2.9346h-7.1992v2.9091h10.1582v2.959H533.8584v2.294c0,1.6269.4434,2.416,2.0459,2.416H543.13l-.666,2.9346h-6.6084c-3.502,0-4.7588-1.8243-4.7588-5.3506v-2.294h-2.3428v-2.959h2.3428v-2.9091h-1.85Z"/><path class="a" d="M545.1221,206.416H547.44v-2.0215h2.7617v2.0215h9.9122l.4687,2.6631a39.6342,39.6342,0,0,1-8.4082,5.8691l-1.4307-2.4912a27.4745,27.4745,0,0,0,5.1534-3.1064h-5.6954v13.1182H547.44V209.3506h-2.3183Zm9.9375,8.335a59.4064,59.4064,0,0,1,5.2031,6.6826l-2.2695,1.7754a49.8273,49.8273,0,0,0-5.2022-6.6826Z"/><path class="a" d="M563.4131,205.2578a34.0032,34.0032,0,0,1,5.3506,6.6328l-2.3174,1.627a27.7841,27.7841,0,0,0-4.9815-6.09Zm-.9863,15.0654c5.1533-2.663,9.5673-8.8525,11.2929-14.7705l2.5645.8389c-1.4541,6.2881-6.9043,13.5615-12.3779,16.5459Z"/><path class="a" d="M585.2031,220.5205l.8389-.2959V206.0215h2.7363v13.0937a38.2656,38.2656,0,0,0,8.3838-4.7588l1.6279,2.3916a44.5235,44.5235,0,0,1-12.5263,6.4854Z"/><path class="a" d="M599.1064,220.9648l7.15-15.707,2.5157,1.1836-5.795,12.5752,7.1016-1.9228-2.0469-4.6114,2.5645-1.1592,4.7344,10.4551-2.5391,1.1592-1.4805-3.1562-11.1445,2.8359Z"/><path class="a" d="M616.165,206.416h2.3184v-2.0215h2.7617v2.0215h9.9121l.4688,2.6631a39.6367,39.6367,0,0,1-8.4082,5.8691l-1.4307-2.4912a27.47,27.47,0,0,0,5.1533-3.1064h-5.6953v13.1182h-2.7617V209.3506H616.165Zm9.9375,8.335a59.4187,59.4187,0,0,1,5.2032,6.6826l-2.27,1.7754a49.8185,49.8185,0,0,0-5.2021-6.6826Z"/><path class="a" d="M643.0371,223.1094v-1.43c-5.5976-.4688-10.0361-3.3779-10.0361-10.2822v-5.376h13.3154v2.9346H635.7383V211.57c0,4.7832,3.3291,6.9531,7.2988,7.1992v-5.2763h2.7373v9.6162Z"/><path class="a" d="M648.4082,206.0215H660.22v2.9346h-7.2011v2.9091h10.16v2.959h-10.16v2.294c0,1.6269.4443,2.416,2.0468,2.416H662.29l-.665,2.9346h-6.6084c-3.502,0-4.76-1.8243-4.76-5.3506v-2.294H647.915v-2.959h2.3418v-2.9091h-1.8486Z"/><path class="a" d="M683.3408,208.9561h-7.8164v6.0654h-2.7363v-9h13.3144v5.376c0,6.9043-5.6709,10.5781-11.81,11.0713l-.8633-2.91c4.8574,0,9.9121-2.9092,9.9121-7.9883Z"/><path class="a" d="M687.6279,220.9648l7.15-15.707,2.5156,1.1836-5.7949,12.5752,7.1016-1.9228-2.0469-4.6114,2.5645-1.1592,4.7343,10.4551-2.539,1.1592-1.4805-3.1562-11.1445,2.8359Z"/><path class="a" d="M718.1748,211.7178h-5.2275v1.5283c0,3.23-.4688,8.5322-5.7705,9.4443l-.6407-2.959c3.4278,0,3.6739-3.9453,3.6739-6.4853v-1.5283h-5.2276v-2.9346H710.21v-4.3887h2.7373v4.3887h5.2275Z"/><path class="a" d="M719.1816,220.9648l7.15-15.707,2.5157,1.1836-5.795,12.5752,7.1016-1.9228-2.0469-4.6114,2.5645-1.1592,4.7344,10.4551-2.54,1.1592-1.4785-3.1562-11.1465,2.8359Z"/><path class="a" d="M760.1318,217.1182c0,3.5263-1.2578,5.3506-4.7343,5.3506h-2.8614v-2.9346h2.8116c1.6025,0,2.0468-.7891,2.0468-2.416V214.8h-4.0439v-5.8437h-2.3672v4.29c0,3.23-.4688,8.5322-5.77,9.4443l-.6406-2.959c3.4267,0,3.6738-3.9453,3.6738-6.4853v-4.29h-3.2305v-2.9346h11.0713v5.8193h4.0449Z"/><path class="a" d="M761.5811,220.9648l7.15-15.707,2.5157,1.1836-5.795,12.5752,7.1016-1.9228-2.0469-4.6114,2.5645-1.1592,4.7344,10.4551-2.5391,1.1592-1.4805-3.1562-11.1445,2.8359Z"/><path class="a" d="M793.1631,214.7754v2.3428c0,3.5263-1.2578,5.3506-4.7588,5.3506h-8.68v-2.9346h8.63c1.6279,0,2.0723-.7891,2.0723-2.416v-2.3428h-6.3623c-2.22,0-3.4278-1.3066-3.4278-3.6738v-2.1455h-1.6513v-2.9346h14.2763v2.9346H783.374v2.1455c0,.4931.1485.7148.69.7148h9.9375v2.959Z"/><path class="a" d="M795.8711,206.0215h11.8115v2.9346h-7.2012v2.9091h10.16v2.959h-10.16v2.294c0,1.6269.4444,2.416,2.0469,2.416h7.2246l-.665,2.9346H802.48c-3.502,0-4.76-1.8243-4.76-5.3506v-2.294h-2.3418v-2.959H797.72v-2.9091h-1.8486Z"/><path class="a" d="M826.27,214.7754v2.3428c0,3.5263-1.2568,5.3506-4.7588,5.3506h-8.68v-2.9346h8.6308c1.627,0,2.07-.7891,2.07-2.416v-2.3428h-6.3613c-2.2188,0-3.4277-1.3066-3.4277-3.6738v-2.1455h-1.6524v-2.9346h14.2774v2.9346h-9.8877v2.1455c0,.4931.1474.7148.69.7148h9.9375v2.959Z"/><path class="e" d="M201.3775,96.01a57.3074,57.3074,0,1,1-66.2884-46.6284A57.31,57.31,0,0,1,201.3775,96.01"/><path class="a" d="M2.8147,129.1249c33.9119-21.2923,36.7148-24.2918,53.51-35.6771s37.7414-26.1843,73.7347-32.26,78.8236,2.3075,94.6709,3.7563,43.9582,3.3264,64.5218-7.7857S326.9161,36.23,335.7181,27.8576c-17.5575,12.8393-44.93,28.5886-70.7621,30.6595-18.1143,1.4514-40.5227-2.235-48.7914-3.9s-37.001-10.6827-72.5558-7.0486c-35.1706,3.5949-51.4,8.9987-83.8915,35.1732S2.8147,129.1249,2.8147,129.1249"/><path class="f" d="M2.8147,129.1249c33.9119-21.2923,36.7148-24.2918,53.51-35.6771s37.7414-26.1843,73.7347-32.26,78.8236,2.3075,94.6709,3.7563,43.9582,3.3264,64.5218-7.7857S326.9161,36.23,335.7181,27.8576c-17.5575,12.8393-44.93,28.5886-70.7621,30.6595-18.1143,1.4514-40.5227-2.235-48.7914-3.9s-37.001-10.6827-72.5558-7.0486c-35.1706,3.5949-51.4,8.9987-83.8915,35.1732S2.8147,129.1249,2.8147,129.1249Z"/><path class="a" d="M11.9107,65.7385C32.3821,55.6139,67.7879,48.098,82.425,46.1872c16.7505-2.1873,56.074.364,76.4867,6.6519S217.8983,64.374,226.6329,64.438s36.62-5.8795,43.423-10.77,20.63-15.4977,27.2123-21.6556c-7.2833,6.2951-38.491,23.0782-62.7953,22.8665-24.42-.2124-44.3489-2.1886-85.03-15.2546-18.5933-5.9723-47.4407-4.5921-72.8689-.3189C55.9257,42.7759,11.9107,65.7385,11.9107,65.7385"/><path class="f" d="M11.9107,65.7385C32.3821,55.6139,67.7879,48.098,82.425,46.1872c16.7505-2.1873,56.074.364,76.4867,6.6519S217.8983,64.374,226.6329,64.438s36.62-5.8795,43.423-10.77,20.63-15.4977,27.2123-21.6556c-7.2833,6.2951-38.491,23.0782-62.7953,22.8665-24.42-.2124-44.3489-2.1886-85.03-15.2546-18.5933-5.9723-47.4407-4.5921-72.8689-.3189C55.9257,42.7759,11.9107,65.7385,11.9107,65.7385Z"/><path class="a" d="M220.5442,62.2993c8.268-2.578,33.89-15.0441,39.74-20.4218,5.2593-4.8339,7.5878-7.6393,13.5267-14.3011-6.1141,6.5043-23.6148,21.09-46.6244,28.2416Z"/><path class="f" d="M220.5442,62.2993c8.268-2.578,33.89-15.0441,39.74-20.4218,5.2593-4.8339,7.5878-7.6393,13.5267-14.3011-6.1141,6.5043-23.6148,21.09-46.6244,28.2416Z"/><path class="a" d="M237.4471,63.2614c-.0935,16.131-5.579,48.7889-9.9175,58.4207,7.1773-16.4668,11.6832-37.5473,12.1818-44.14s.48-14.7586.48-14.7586Z"/><path class="f" d="M237.4471,63.2614c-.0935,16.131-5.579,48.7889-9.9175,58.4207,7.1773-16.4668,11.6832-37.5473,12.1818-44.14s.48-14.7586.48-14.7586Z"/><path class="a" d="M250.5151,65.2777c-3.3472,16.6178-16.4955,47.8413-22.971,56.4877,10.8186-14.854,20.1767-38.7138,21.8875-43.5242a107.8329,107.8329,0,0,0,3.2139-13.481Z"/><path class="f" d="M250.5151,65.2777c-3.3472,16.6178-16.4955,47.8413-22.971,56.4877,10.8186-14.854,20.1767-38.7138,21.8875-43.5242a107.8329,107.8329,0,0,0,3.2139-13.481Z"/><path class="a" d="M96.8577,183.951c3.1093-4.2144,7.4139-12.5726,13.0418-12.3556,8.2759.3182,22.081,4.17,26.3,4.2523,7.6427.15,22.5313-.1209,32.1436-3.3485,11.0363-3.706,21.5478-8.3785,29.5871-15.6827A180.7706,180.7706,0,0,0,212.22,142.5422a137.2,137.2,0,0,0,8.0824-11.2252,118.4281,118.4281,0,0,1-17.7359,23.94c-1.0351,1.0639.8953,7.3178,8.9771,20.4525-10.3625-12.3165-15.1056-14.688-15.7676-14.1064a36.62,36.62,0,0,1-3.4629,2.6976c-1.4579,1.0855,2.6212,8.61,10.5115,18.8273-9.6959-9.6927-16.887-14.575-17.84-14.0352-4.28,2.4212-11.0585,5.775-16.0048,7.0709-21.2622,5.5724-31.8652,4.1817-47.291,1.0515-4.7209-.9574-9.3809-2.1677-13.3764-1.839-5.2437.432-11.4545,8.5745-11.4545,8.5745"/><path class="a" d="M96.8383,183.9771c1.7572-2.548,3.3151-5.1031,5.2292-7.4832a19.4738,19.4738,0,0,1,3.1989-3.2328,7.499,7.499,0,0,1,4.1706-1.7,33.363,33.363,0,0,1,4.5405.3346c1.507.18,3.0042.4274,4.5.68,2.99.5129,5.9612,1.1259,8.9333,1.7252,1.4854.3006,2.9721.5986,4.4621.87a30.2434,30.2434,0,0,0,4.49.581c3.03.0464,6.0612.0242,9.0895-.09a106.0289,106.0289,0,0,0,18.0359-2.0049c.741-.15,1.4749-.3346,2.2049-.5293.7358-.1752,1.452-.4144,2.1755-.6339,1.44-.4621,2.8675-.9757,4.2908-1.4887,2.846-1.0377,5.6606-2.1611,8.4151-3.4165a68.8175,68.8175,0,0,0,15.4676-9.3855c1.1593-.9678,2.2781-1.9853,3.3884-3.0185s2.2154-2.067,3.3048-3.1192q3.2758-3.1485,6.4-6.4487c1.0364-1.1024,2.0617-2.2206,3.0538-3.359.9711-1.1449,1.87-2.3689,2.7669-3.587,1.7762-2.4506,3.5171-4.9352,5.1587-7.474a.2227.2227,0,0,1,.3816.2293,125.3863,125.3863,0,0,1-7.06,11.1127,113.83,113.83,0,0,1-8.2373,10.2737c-.7313.82-1.4893,1.6148-2.2474,2.41-.2228.2287-.3084.3084-.3509.5594a2.6466,2.6466,0,0,0-.0144.7463,9.1047,9.1047,0,0,0,.3144,1.5625,38.9682,38.9682,0,0,0,2.4584,6.037c1.9226,3.9229,4.1366,7.7047,6.4271,11.4329a.2845.2845,0,0,1-.46.332c-2.5774-3.0446-5.2358-6.0259-8.0923-8.7987a43.1521,43.1521,0,0,0-4.5084-3.8746c-.4006-.2869-.8078-.562-1.2273-.8051a4.8423,4.8423,0,0,0-1.2737-.5555.6341.6341,0,0,0-.2352-.0143c-.004.0032-.0236.0019-.0112.0026.0046.0006.0131-.0177-.0209.015l-.1411.1235-.5712.4934c-.3829.3268-.7842.6457-1.192.943l-1.2089.8835-.3.2222a.4118.4118,0,0,0-.1352.1608,1.3156,1.3156,0,0,0-.0562.577,9.7108,9.7108,0,0,0,.9011,2.7284,47.3637,47.3637,0,0,0,2.9113,5.1861c2.1324,3.3623,4.4843,6.59,6.9173,9.75a.3251.3251,0,0,1-.4875.4281,132.331,132.331,0,0,0-10.765-9.7372c-.945-.7521-1.907-1.4834-2.8924-2.1761a20.275,20.275,0,0,0-3.0525-1.8494,2.1006,2.1006,0,0,0-.7182-.2124c-.0262-.0039-.0288.0013-.0216.0007,0,0,.0053-.0072-.0046-.0046l-.05.0281-.1987.1117-.3993.2222-1.6043.8712q-1.6125.8536-3.2551,1.652c-2.1905,1.0619-4.415,2.0559-6.6977,2.9185-1.14.4313-2.3.8214-3.48,1.1489-1.1809.3163-2.36.5894-3.54.8861a112.4657,112.4657,0,0,1-14.3593,2.546,74.9526,74.9526,0,0,1-14.5795.09,131.3693,131.3693,0,0,1-14.3907-2.2892c-2.3833-.4706-4.747-1.0274-7.1264-1.475a27.862,27.862,0,0,0-7.2-.5947,8.6565,8.6565,0,0,0-3.3714,1.1763,18.5816,18.5816,0,0,0-2.9591,2.0827,41.2,41.2,0,0,0-5.09,5.2234m.0392-.0523c.017-.0405.0052-.0673.0242-.0843l.07-.0895.1405-.179.2869-.3536.5869-.6966q.5949-.69,1.2194-1.3541a32.386,32.386,0,0,1,2.6323-2.52,18.6,18.6,0,0,1,2.9616-2.13,8.8434,8.8434,0,0,1,3.4394-1.2364,28.0687,28.0687,0,0,1,7.2715.5247c2.3957.4235,4.7587.9777,7.1394,1.4319a131.2622,131.2622,0,0,0,14.3626,2.2088,74.5207,74.5207,0,0,0,14.4919-.1647,111.8777,111.8777,0,0,0,14.2783-2.6081c1.1711-.3013,2.3552-.5816,3.5165-.9,1.156-.3267,2.2977-.7169,3.4243-1.1495,2.2533-.8659,4.4588-1.8638,6.63-2.9309,1.0861-.5326,2.1605-1.0887,3.2276-1.6566l1.5953-.8659.3953-.2209.198-.1105a.8.8,0,0,1,.3536-.1078,2.4826,2.4826,0,0,1,1.022.266,20.7441,20.7441,0,0,1,3.1662,1.9141c1.0005.7032,1.971,1.4416,2.9238,2.2a132.7265,132.7265,0,0,1,10.8193,9.7875l-.4875.428c-2.4408-3.1727-4.8013-6.4121-6.95-9.8a47.9631,47.9631,0,0,1-2.9518-5.262,10.0725,10.0725,0,0,1-.9541-2.9446,1.9077,1.9077,0,0,1,.1137-.896,1.1349,1.1349,0,0,1,.1457-.2313,1.3444,1.3444,0,0,1,.1915-.1778l.3026-.2235,1.2129-.8809c.4-.2908.7822-.592,1.16-.9129l.5653-.4849.14-.1222a.7758.7758,0,0,1,.1333-.0928.55.55,0,0,1,.1627-.0621,1.1767,1.1767,0,0,1,.5059.0085,5.2942,5.2942,0,0,1,1.4658.6326c.4443.2588.8645.545,1.2756.841a43.6768,43.6768,0,0,1,4.5666,3.9446c2.8722,2.8035,5.5312,5.803,8.1086,8.864l-.4594.3326c-2.2866-3.7445-4.4974-7.5426-6.4219-11.4976a39.5882,39.5882,0,0,1-2.4768-6.1318,9.4771,9.4771,0,0,1-.328-1.6559,3.1077,3.1077,0,0,1,.0248-.8908,1.318,1.318,0,0,1,.183-.4731,3.0558,3.0558,0,0,1,.3026-.3411c.7554-.7894,1.5109-1.5795,2.2415-2.3931a113.51,113.51,0,0,0,8.2236-10.2116,125.1224,125.1224,0,0,0,7.0577-11.0558l.3817.2293c-1.6573,2.55-3.4028,5.0306-5.1907,7.4852-.9032,1.2214-1.8024,2.4421-2.7951,3.6079-1.0031,1.145-2.03,2.26-3.0734,3.3649q-3.13,3.3084-6.4278,6.4487c-1.0926,1.0522-2.2036,2.0866-3.3165,3.1172s-2.2382,2.0507-3.4093,3.0244a69.2306,69.2306,0,0,1-15.5669,9.4019c-2.7676,1.2514-5.5927,2.3689-8.4471,3.4014-1.43.51-2.8578,1.0188-4.3059,1.48-.7287.22-1.4514.4581-2.1925.632-.7352.1934-1.473.377-2.218.5254a106.3389,106.3389,0,0,1-18.0862,1.9592c-3.0328.1058-6.067.1189-9.1006.0633a30.33,30.33,0,0,1-4.52-.5959c-1.492-.2771-2.978-.58-4.4627-.8849-2.9708-.6071-5.9384-1.2292-8.9242-1.75-1.4933-.2562-2.9885-.5078-4.4915-.6914a33.3255,33.3255,0,0,0-4.5189-.347,7.3975,7.3975,0,0,0-4.1125,1.6651,19.3435,19.3435,0,0,0-3.19,3.208c-.9554,1.175-1.83,2.414-2.6813,3.6674l-1.27,1.886-.643.9384c-.21.3131-.432.5744-.6672.8809"/><path class="a" d="M135.2634,48.2361c-.4169.0634-.8332.1287-1.2508.2019a56.7149,56.7149,0,0,0-46.1493,65.6013c.0725.4176.1516.8319.2332,1.2456a59.2488,59.2488,0,0,1,47.1669-67.0488"/><path class="f" d="M135.2634,48.2361c-.4169.0634-.8332.1287-1.2508.2019a56.7149,56.7149,0,0,0-46.1493,65.6013c.0725.4176.1516.8319.2332,1.2456A59.2488,59.2488,0,0,1,135.2634,48.2361Z"/><path class="a" d="M136.51,48.0028c-.4176.0725-.8319.1522-1.2462.2333a56.7144,56.7144,0,1,1-47.1668,67.0488c.064.4169.1287.8345.2019,1.2521a59.25,59.25,0,0,0,68.5342,48.2118c32.2384-5.6116,54.2874-41.8565,48.6751-74.0955s-36.7592-48.2621-68.9982-42.65"/><path class="f" d="M136.51,48.0028c-.4176.0725-.8319.1522-1.2462.2333a56.7144,56.7144,0,1,1-47.1668,67.0488c.064.4169.1287.8345.2019,1.2521a59.25,59.25,0,0,0,68.5342,48.2118c32.2384-5.6116,54.2874-41.8565,48.6751-74.0955S168.7488,42.3912,136.51,48.0028Z"/><path class="a" d="M141.7563,71.5447c-.2712.0412-.5424.0837-.8143.1314a36.9194,36.9194,0,0,0-30.0406,42.7028c.0471.2718.0993.5417.1523.811a38.5669,38.5669,0,0,1,30.7026-43.6452"/><path class="f" d="M141.7563,71.5447c-.2712.0412-.5424.0837-.8143.1314a36.9194,36.9194,0,0,0-30.0406,42.7028c.0471.2718.0993.5417.1523.811A38.5669,38.5669,0,0,1,141.7563,71.5447Z"/><path class="a" d="M141.0364,71.66c-.2608.0451-.52.0954-.7783.1457a35.43,35.43,0,1,1-29.4656,41.886c.0393.2607.08.5208.1255.7822A37.0145,37.0145,0,1,0,141.0364,71.66"/><path class="f" d="M153.9047,104.275a9.1207,9.1207,0,1,1-10.55-7.4211A9.1212,9.1212,0,0,1,153.9047,104.275Z"/><path class="a" d="M86.1369,176.8417a28.2537,28.2537,0,0,1,4.6666-5.1665c1.0769-1.0607,3.738-2.2448,1.6474-3.5962-2.6447-1.71-6.314,8.7627-6.314,8.7627"/><path class="a" d="M86.3069,176.43a.9351.9351,0,0,0-.0026-.1986.1988.1988,0,0,1,.0346-.1817l.4477-.5659c.311-.3836.62-.7672.9469-1.141a20.8834,20.8834,0,0,1,2.1121-2.09c.3731-.3274.69-.662,1.0933-1.0005.3921-.3183.796-.5941,1.1717-.894a2.6584,2.6584,0,0,0,.89-1.009c.1705-.3817-.14-.7666-.5078-1.0358a1.1456,1.1456,0,0,0-.58-.2653,1.2665,1.2665,0,0,0-.6326.1353,3.5894,3.5894,0,0,0-1.0848.8959,14.3936,14.3936,0,0,0-1.6285,2.416,40.8283,40.8283,0,0,0-2.26,4.9345m-.2562.6581.0863-.2464a41.8106,41.8106,0,0,1,2.2859-5.4233A14.5416,14.5416,0,0,1,90.01,168.92a3.8216,3.8216,0,0,1,1.1443-.9926,1.5489,1.5489,0,0,1,.7835-.1843,1.4524,1.4524,0,0,1,.7489.3071,1.83,1.83,0,0,1,.5634.5673.9674.9674,0,0,1,.1006.8456,2.96,2.96,0,0,1-.98,1.2109c-.3822.3222-.78.6117-1.141.9221-.3417.3006-.694.6855-1.0495,1.0149a20.4041,20.4041,0,0,0-2.0088,2.101c-.3091.3731-.6052.7613-.9,1.1482l-.449.6a1.9208,1.9208,0,0,1-.4078.4052c-.132.0941-.2568.16-.3627.2228"/><path class="a" d="M90.5582,181.6408a39.4814,39.4814,0,0,1,6.516-7.214c1.5037-1.4815,5.2195-3.1341,2.3009-5.0214-3.6929-2.3879-8.8169,12.2354-8.8169,12.2354"/><path class="a" d="M90.7588,181.15c.02-.0876.0451-.1673.0543-.2353a.5673.5673,0,0,1,.1228-.298l.6254-.7973c.43-.5358.86-1.073,1.3135-1.5938a29.08,29.08,0,0,1,2.9277-2.9212c.5176-.4574.9678-.9345,1.5188-1.3991.54-.4431,1.1037-.8313,1.63-1.2547a3.7578,3.7578,0,0,0,1.26-1.4488c.25-.5771-.2209-1.1476-.7384-1.5207a1.65,1.65,0,0,0-.845-.3784,1.8162,1.8162,0,0,0-.9136.1987,5.0753,5.0753,0,0,0-1.5266,1.27,20.1935,20.1935,0,0,0-2.2656,3.39,57.0726,57.0726,0,0,0-3.163,6.9885m-.2842.7279.0836-.2365a58.2634,58.2634,0,0,1,3.2205-7.5577,20.3164,20.3164,0,0,1,2.2231-3.472,5.3219,5.3219,0,0,1,1.5861-1.3672,2.1212,2.1212,0,0,1,1.0652-.247,1.9633,1.9633,0,0,1,1.0123.4209,2.3891,2.3891,0,0,1,.4156.34,1.6912,1.6912,0,0,1,.3483.4327,1.2416,1.2416,0,0,1,.132,1.124,4.0657,4.0657,0,0,1-1.3514,1.6507c-.532.4457-1.09.847-1.5991,1.2822-.4889.4274-.9738.9547-1.4737,1.4148a28.4,28.4,0,0,0-2.8257,2.9316c-.4346.5208-.8509,1.0619-1.2671,1.6011l-.6267.8312a2.97,2.97,0,0,1-.4954.5215c-.1621.13-.315.232-.4476.3293"/><path class="a" d="M102.6779,143.4428c-2-6.2808-8.3361-14.99,1.6154-23.092s19.8853-8.387,23.8971-12.0452,12.9013-11.9185,12.6752-20.1421-3.5589-9.3653.798-14.5992,16.5008-2.11,24.2643-1.8193,10.7553-8.236,14.2789-6.7833a14.8335,14.8335,0,0,0,6.7272,1.0665s-22.5771-18.939-32.1391-18.4927-37.9871-.8724-53.8031,21.1093-14.1639,41.4866-12.3589,50.0037,14.045,24.7943,14.045,24.7943"/><path class="f" d="M102.6779,143.4428c-2-6.2808-8.3361-14.99,1.6154-23.092s19.8853-8.387,23.8971-12.0452,12.9013-11.9185,12.6752-20.1421-3.5589-9.3653.798-14.5992,16.5008-2.11,24.2643-1.8193,10.7553-8.236,14.2789-6.7833a14.8335,14.8335,0,0,0,6.7272,1.0665s-22.5771-18.939-32.1391-18.4927-37.9871-.8724-53.8031,21.1093-14.1639,41.4866-12.3589,50.0037S102.6779,143.4428,102.6779,143.4428Z"/><path class="a" d="M19.8458,38.1174c11.7283-5.97,68.299-25.1472,121.5368-21.1563s72.3651,9.5012,83.121,12.0478,81.7349,23.8324,87.0609,26.2183S220.3342,24.4181,184.11,19.4293c46.1925,8.6549,75.398,14.0117,105.0171,19.58-36.2711-8.2131-94.3611-22.27-128.7639-23.59,0,0-45.4592-3.47-76.4611,2.7623C36.229,27.7654,19.8458,38.1174,19.8458,38.1174"/><path class="f" d="M19.8458,38.1174c11.7283-5.97,68.299-25.1472,121.5368-21.1563s72.3651,9.5012,83.121,12.0478,81.7349,23.8324,87.0609,26.2183S220.3342,24.4181,184.11,19.4293c46.1925,8.6549,75.398,14.0117,105.0171,19.58-36.2711-8.2131-94.3611-22.27-128.7639-23.59,0,0-45.4592-3.47-76.4611,2.7623C36.229,27.7654,19.8458,38.1174,19.8458,38.1174Z"/><path class="a" d="M178.4893,99.9958A34.075,34.075,0,1,0,150.7627,139.41,34.0747,34.0747,0,0,0,178.4893,99.9958Zm-32.0058,14.8293a9.1208,9.1208,0,1,1,7.4212-10.55A9.1211,9.1211,0,0,1,146.4835,114.8251Z"/><path class="g" d="M99.7993,112.33l.2842,2.4844-6.5913,2.2646-3.1587-.5815-.3223-2.82,2.2661.4136L92.01,111.57l-2.334-.4052-.2827-2.4708,3.4243.6Z"/><path class="g" d="M99.4976,105.9707a.95.95,0,0,1-.4.5269.9661.9661,0,0,1-.6836.1484l-8.4668-3.7783.6889-5.1616q2.3665,1.0663,4.55,1.9418a2.8361,2.8361,0,0,0,.5323.1265q.7711.1033.8369-.3887l.2934-2.1982q1.1808.5815,2.8536,1.3745.7566.2124.6709.854Z"/><path class="g" d="M103.0093,87.0273a2.6593,2.6593,0,0,1,.768,1.96l-2.7822,6.8848-8.0278-6.4981,2.3769-5.8818a3.1778,3.1778,0,0,1,.29-.4775,1.6778,1.6778,0,0,1,.918-.6172.447.447,0,0,1,.2636.0468Q98.0093,82.9265,103.0093,87.0273Zm-3.9463,1.86a1.9871,1.9871,0,0,0,.0913-1.3115,1.27,1.27,0,0,0-.7793-.8833,1.646,1.646,0,0,0-1.3633.0176,1.9764,1.9764,0,0,0-.9678,2.4506,1.7038,1.7038,0,0,0,.8272.9581l.0322.0131a1.4218,1.4218,0,0,0,1.1167-.0244A2.1553,2.1553,0,0,0,99.063,88.8872Z"/><path class="g" d="M102.9839,71.9878a1.1064,1.1064,0,0,1,.0908-.147,1.2389,1.2389,0,0,1,1.0747-.4834c.0156-.0053.0474.0093.0952.0445a20.9083,20.9083,0,0,1,2.0889,2.3681,1.6014,1.6014,0,0,1,.2568.8477,2.2257,2.2257,0,0,1-.1469,1.1406,1.6251,1.6251,0,0,1,.8711-.103,1.658,1.658,0,0,1,.7851.27.4726.4726,0,0,1,.0986.0986l1.6138,2.0606a1.39,1.39,0,0,1-.0513,1.3823l-4.3618,5.9238L99.25,77.1167Zm1.6455,6.0019a2.0211,2.0211,0,0,0,.4224-1.2417,1.27,1.27,0,0,0-.55-1.0595,1.6382,1.6382,0,0,0-1.3189-.3169,1.9682,1.9682,0,0,0-1.54,2.1382,1.6872,1.6872,0,0,0,.5625,1.124l.0444.0327a1.3393,1.3393,0,0,0,1.0708.2412A2.1322,2.1322,0,0,0,104.6294,77.99Zm2.5093,3.6436a2.0069,2.0069,0,0,0,.4194-1.2437,1.2722,1.2722,0,0,0-.5469-1.0571,1.6372,1.6372,0,0,0-1.3193-.3169,1.9672,1.9672,0,0,0-1.54,2.1377,1.6856,1.6856,0,0,0,.5625,1.124l.0444.0328a1.3308,1.3308,0,0,0,1.0654.2373A2.1115,2.1115,0,0,0,107.1387,81.6333Z"/><path class="g" d="M112.166,66.2051l-3.0639,2.521-.9351-1.9068,5.1753-4.2583a1.5234,1.5234,0,0,1,.8642-.229,1.0917,1.0917,0,0,1,.6568.4405q.1135.1383.2475.3227.3165.7208.86,2.3247.2732,1.0152-1.333,2.3369l-.0479.04a1.6917,1.6917,0,0,0-.59.7793,1.03,1.03,0,0,0,.05.646q.1106.2754.2363.5366l2.8726-2.3633q.4672,1.23,1.4551,3.709l-6.3726,5.2432-1.54-3.7368a4.3385,4.3385,0,0,1-.29-2.2061,2.5516,2.5516,0,0,1,.8408-1.1465l1.59-1.3086q.717-1.1337.3672-1.56a.7686.7686,0,0,0-.5957-.2143Q112.4025,66.1893,112.166,66.2051Z"/><path class="g" d="M122.1313,68.7642a.9468.9468,0,0,1-.66-.0518.9637.9637,0,0,1-.4942-.4946l-1.1958-8.4019a1.3836,1.3836,0,0,1,.4058-.9668,4.9372,4.9372,0,0,1,1.0283-.5815l4.4087-2.0689a1.2023,1.2023,0,0,1,.4121-.0791,1.7069,1.7069,0,0,1,.98.2251.46.46,0,0,1,.1489.2036q.5823,1.2416,1.3071,8.38a1.3934,1.3934,0,0,1-.71,1.1934Zm2.3057-5.9512a2,2,0,0,0,.9619-.9,1.2679,1.2679,0,0,0,.0327-1.18,1.6391,1.6391,0,0,0-1.0141-.9126,1.8432,1.8432,0,0,0-1.3877.1069,1.8662,1.8662,0,0,0-.9888,1.0308,1.6691,1.6691,0,0,0-.0425,1.2642l.0147.0312a1.4234,1.4234,0,0,0,.8354.7417A2.145,2.145,0,0,0,124.437,62.813Z"/><path class="g" d="M136.2559,55.6309l-3.8985.7373.0962-2.1211,6.5855-1.2456a1.52,1.52,0,0,1,.8676.2143,1.09,1.09,0,0,1,.3643.7022c.0225.1172.043.2514.062.4018q-.0688.7845-.3633,2.4522-.2482,1.0217-2.2925,1.4082l-.061.0117a1.6878,1.6878,0,0,0-.8916.4,1.0282,1.0282,0,0,0-.2666.59c-.0239.1963-.041.3907-.0508.5845l3.6548-.6914q-.1817,1.3029-.5073,3.9517l-8.1084,1.5336.4458-4.017a4.3293,4.3293,0,0,1,.8066-2.0733,2.5475,2.5475,0,0,1,1.2886-.6015l2.0234-.3829q1.1742-.65,1.0718-1.1909a.77.77,0,0,0-.4194-.4746Q136.4705,55.73,136.2559,55.6309Z"/><path class="g" d="M143.7559,62.6719a.9474.9474,0,0,1-.5542-.3614.9631.9631,0,0,1-.1978-.6709l2.97-7.95a1.3845,1.3845,0,0,1,.8194-.6543,4.9016,4.9016,0,0,1,1.1811-.0186l4.8609.2925a1.1878,1.1878,0,0,1,.4.1274,1.71,1.71,0,0,1,.7534.6665.4626.4626,0,0,1,.0332.25q-.0828,1.3682-2.8618,7.9844a1.3935,1.3935,0,0,1-1.1949.708Zm4.872-4.1231a2,2,0,0,0,1.2754-.3305,1.2666,1.2666,0,0,0,.5928-1.02,1.64,1.64,0,0,0-.4536-1.2866,1.8424,1.8424,0,0,0-1.27-.57,1.8626,1.8626,0,0,0-1.3614.4321,1.6684,1.6684,0,0,0-.6416,1.09l-.0019.0341a1.42,1.42,0,0,0,.3779,1.0508A2.1456,2.1456,0,0,0,148.6279,58.5488Z"/><path class="g" d="M116.73,97.751l-3.5913-2.939-1.01,2.6694-4.2656-3.51,2.7188-7.2222,4.309,3.4331-.8584,2.2676,3.6343,2.8257Z"/><path class="g" d="M119.4155,91.24a.7031.7031,0,0,1-.4648.2193.7681.7681,0,0,1-.5347-.1548l-3.9878-5.2813a1.1066,1.1066,0,0,1-.084-.8232,3.9362,3.9362,0,0,1,.4815-.78l2.228-3.0791a.9916.9916,0,0,1,.2466-.2031,1.3042,1.3042,0,0,1,.7539-.2173.3811.3811,0,0,1,.1719.083A32.297,32.297,0,0,1,122.3,86.2231a1.1005,1.1005,0,0,1-.0337,1.0782Zm-.6714-4.9375a1.5721,1.5721,0,0,0,.3125-.9756.9794.9794,0,0,0-.413-.8212,1.2953,1.2953,0,0,0-1.045-.2461,1.4355,1.4355,0,0,0-.9091.5976,1.46,1.46,0,0,0-.2911,1.0952,1.2964,1.2964,0,0,0,.4576.8741l.0273.02a1.0939,1.0939,0,0,0,.8467.1816A1.6759,1.6759,0,0,0,118.7441,86.3027Z"/><path class="g" d="M119.6265,78.897l1.6162-1.3653,1.6728,3.6822,1.6133-1.3892-1.581-3.7607,1.42-1.2227,2.2632,4.45q.3.8224-.0913,1.16l-.4024.3462,2.0171.9223-1.0386.8941-2.0473-.896-1.3116,1.1113.8145,1.9756-1.7051,1.4678Z"/><path class="g" d="M132.0112,70.8848l.6646,3.5717a1.3378,1.3378,0,0,1-.4429,1.06l-1.17.6187.6562,3.6293-1.8979.9791-.5606-3.6783-1.4267.7212q-.4593.2373-.65-.1328a.7954.7954,0,0,1-.07-.3267l-.52-3.5859,1.9575-1.01.3135,1.7353,1.7851-.8608-.3418-1.8189Z"/><path class="g" d="M134.9575,78.1865a.7024.7024,0,0,1-.4961-.1347.7671.7671,0,0,1-.3066-.4644l.3857-6.606a1.1061,1.1061,0,0,1,.47-.6816,3.9408,3.9408,0,0,1,.8715-.2817l3.6929-.9014a.9874.9874,0,0,1,.3189.0054,1.3017,1.3017,0,0,1,.7148.3232.379.379,0,0,1,.0776.1748,32.2852,32.2852,0,0,1-.28,6.6148,1.1,1.1,0,0,1-.7246.7988Zm2.6885-4.1953a1.5764,1.5764,0,0,0,.8706-.541.9813.9813,0,0,0,.2178-.8931,1.2968,1.2968,0,0,0-.6363-.8642,1.4315,1.4315,0,0,0-1.08-.1338,1.4591,1.4591,0,0,0-.9312.645,1.2955,1.2955,0,0,0-.2182.9624l.0078.0327a1.0939,1.0939,0,0,0,.5273.687A1.6761,1.6761,0,0,0,137.646,73.9912Z"/></svg>