<svg xmlns="http://www.w3.org/2000/svg" viewBox="0 0 1080 558.5367"><defs><style>.a{fill:#231815;}.b{fill:none;stroke:#231815;stroke-linecap:round;stroke-linejoin:round;stroke-width:1.853px;}.c{fill:#fff;}</style></defs><title>vldb-menu-icon</title><path class="a" d="M96.8159,362.7244c96.1561-60.3735,104.1035-68.8786,151.7249-101.161s107.0145-74.2449,209.0725-91.4719c102.0559-17.2271,223.5015,6.5428,268.436,10.6508,44.9328,4.1081,124.6419,9.4317,182.9494-22.0763,58.3074-31.51,106.796-59.3432,131.7537-83.0816-49.7838,36.4053-127.3973,81.062-200.6435,86.934-51.3625,4.1155-114.9008-6.3372-138.3464-11.0585-23.4493-4.72-104.9152-30.2905-205.73-19.9862-99.7251,10.1933-145.7417,25.5155-237.8714,99.7324-92.13,74.219-161.3455,131.5183-161.3455,131.5183"/><path class="b" d="M96.8159,362.7244c96.1561-60.3735,104.1035-68.8786,151.7249-101.161s107.0145-74.2449,209.0725-91.4719c102.0559-17.2271,223.5015,6.5428,268.436,10.6508,44.9328,4.1081,124.6419,9.4317,182.9494-22.0763,58.3074-31.51,106.796-59.3432,131.7537-83.0816-49.7838,36.4053-127.3973,81.062-200.6435,86.934-51.3625,4.1155-114.9008-6.3372-138.3464-11.0585-23.4493-4.72-104.9152-30.2905-205.73-19.9862-99.7251,10.1933-145.7417,25.5155-237.8714,99.7324C166.0317,305.4251,96.8159,362.7244,96.8159,362.7244Z"/><path class="a" d="M122.6072,182.9944c58.0461-28.708,158.4382-50.019,199.941-55.4371,47.4954-6.2019,158.996,1.0321,216.8754,18.8614,57.8813,17.8293,167.2547,32.7068,192.0215,32.8883,24.7686.1817,103.8348-16.6712,123.1243-30.5387,19.2913-13.8676,58.4964-43.9432,77.16-61.4037-20.6514,17.85-109.14,65.4376-178.0538,64.8372-69.2418-.6022-125.75-6.2056-241.1011-43.2539-52.7207-16.9343-134.5164-13.0208-206.6174-.9042-58.5464,9.841-183.3495,74.9507-183.3495,74.9507"/><path class="b" d="M122.6072,182.9944c58.0461-28.708,158.4382-50.019,199.941-55.4371,47.4954-6.2019,158.996,1.0321,216.8754,18.8614,57.8813,17.8293,167.2547,32.7068,192.0215,32.8883,24.7686.1817,103.8348-16.6712,123.1243-30.5387,19.2913-13.8676,58.4964-43.9432,77.16-61.4037-20.6514,17.85-109.14,65.4376-178.0538,64.8372-69.2418-.6022-125.75-6.2056-241.1011-43.2539-52.7207-16.9343-134.5164-13.0208-206.6174-.9042C247.41,117.8847,122.6072,182.9944,122.6072,182.9944Z"/><path class="a" d="M714.1806,173.2428c23.4437-7.31,96.0931-42.6572,112.6809-57.9053,14.9127-13.7064,21.5149-21.6611,38.3546-40.55C847.88,93.23,798.2572,134.5881,733.014,154.8651Z"/><path class="b" d="M714.1806,173.2428c23.4437-7.31,96.0931-42.6572,112.6809-57.9053,14.9127-13.7064,21.5149-21.6611,38.3546-40.55C847.88,93.23,798.2572,134.5881,733.014,154.8651Z"/><path class="a" d="M762.1082,175.9708c-.265,45.7388-15.8189,138.3391-28.1207,165.65,20.3511-46.6911,33.1274-106.4643,34.5412-125.157,1.4138-18.6946,1.36-41.8474,1.36-41.8474Z"/><path class="b" d="M762.1082,175.9708c-.265,45.7388-15.8189,138.3391-28.1207,165.65,20.3511-46.6911,33.1274-106.4643,34.5412-125.157,1.4138-18.6946,1.36-41.8474,1.36-41.8474Z"/><path class="a" d="M799.1623,181.6879c-9.4909,47.1192-46.7727,135.6523-65.1338,160.169,30.6759-42.118,57.2105-109.7718,62.0615-123.4115,4.853-13.6379,9.1129-38.225,9.1129-38.225Z"/><path class="b" d="M799.1623,181.6879c-9.4909,47.1192-46.7727,135.6523-65.1338,160.169,30.6759-42.118,57.2105-109.7718,62.0615-123.4115,4.853-13.6379,9.1129-38.225,9.1129-38.225Z"/><path class="a" d="M363.4716,518.1822c8.8165-11.95,21.0219-35.6493,36.98-35.0341,23.4659.9024,62.61,11.8238,74.5728,12.0573,21.6705.4243,63.8867-.3428,91.142-9.4947,31.2929-10.5081,61.098-23.7569,83.8933-44.4675,22.7933-20.7107,35.349-34.6265,40.5169-40.4745,5.168-5.85,17.5681-23.4734,22.9176-31.8285-9.5669,16.99-26.4882,43.43-50.29,67.8818-2.9352,3.0166,2.5386,20.75,25.4543,57.9924-29.3826-34.9229-42.8314-41.6474-44.7085-39.9982-4.6028,4.045-4.8085,3.9172-9.8189,7.649-4.134,3.0778,7.4322,24.4129,29.805,53.3841-27.4925-27.4832-47.8826-41.3268-50.5842-39.7962-12.1351,6.8652-31.3561,16.3747-45.3811,20.0491-60.2882,15.8-90.3527,11.8571-134.0921,2.9815-13.3858-2.7146-26.5993-6.1464-37.9284-5.2143-14.8682,1.2248-32.4789,24.3128-32.4789,24.3128"/><path class="a" d="M363.4166,518.2561c4.9826-7.2247,9.4-14.47,14.8275-21.2183a55.2036,55.2036,0,0,1,9.07-9.1667c3.3965-2.6127,7.4564-4.6361,11.8257-4.82A94.5879,94.5879,0,0,1,412.0144,484c4.273.51,8.5181,1.2118,12.76,1.9271,8.4792,1.4545,16.9028,3.1926,25.33,4.8918,4.2118.8523,8.4273,1.6973,12.6521,2.4682a85.7866,85.7866,0,0,0,12.7318,1.6473c8.5922.1315,17.1863.0685,25.7729-.2558,17.1548-.6781,34.3522-2.0883,51.14-5.6849,2.1013-.4262,4.1822-.9487,6.252-1.5009,2.0864-.4966,4.1172-1.1747,6.1685-1.7973,4.0821-1.31,8.1308-2.7665,12.1665-4.2211,8.07-2.9425,16.05-6.1278,23.8608-9.6874,15.6094-7.0987,30.637-15.6817,43.8579-26.6123,3.2872-2.7442,6.46-5.6293,9.6077-8.5589,3.1445-2.9258,6.2816-5.861,9.37-8.8442q9.2887-8.9277,18.1461-18.2851c2.9389-3.126,5.8461-6.2964,8.6589-9.5243,2.7536-3.2464,5.3032-6.717,7.8455-10.171,5.0364-6.9486,9.9727-13.9936,14.6273-21.1924a.6315.6315,0,0,1,1.0821.65,355.58,355.58,0,0,1-20.0194,31.51,322.7114,322.7114,0,0,1-23.3567,29.13c-2.0734,2.3237-4.2229,4.5787-6.3723,6.8338-.6319.6485-.8746.8746-.9951,1.5861a7.5045,7.5045,0,0,0-.0408,2.1161,25.8205,25.8205,0,0,0,.8913,4.43,110.505,110.505,0,0,0,6.9709,17.1177c5.4514,11.1234,11.7293,21.8465,18.2239,32.4177a.8067.8067,0,0,1-1.3044.9413c-7.3082-8.6329-14.8461-17.0862-22.9453-24.9483a122.2942,122.2942,0,0,0-12.7837-10.9863c-1.1359-.8135-2.29-1.5936-3.48-2.2829a13.72,13.72,0,0,0-3.6114-1.575,1.7991,1.7991,0,0,0-.6671-.0408c-.0112.0093-.0667.0056-.0315.0074.013.0019.0371-.05-.0593.0427l-.4.35-1.62,1.399c-1.0858.9264-2.2234,1.8307-3.38,2.6738l-3.428,2.5052-.8506.63a1.1671,1.1671,0,0,0-.3835.4559,3.7348,3.7348,0,0,0-.1594,1.6361,27.5443,27.5443,0,0,0,2.5552,7.7362,134.2935,134.2935,0,0,0,8.255,14.7052c6.0463,9.5335,12.7151,18.6853,19.6138,27.6463a.9218.9218,0,0,1-1.3824,1.2137,375.1941,375.1941,0,0,0-30.5239-27.6093c-2.68-2.1328-5.407-4.2062-8.2013-6.17a57.48,57.48,0,0,0-8.6553-5.2439,5.9534,5.9534,0,0,0-2.0364-.6022c-.0741-.0111-.0815.0037-.061.0019,0,0,.0148-.02-.0131-.013l-.1408.08-.5633.3169-1.1322.63-4.549,2.47q-4.5722,2.4207-9.23,4.6842c-6.2112,3.0111-12.5187,5.8295-18.9912,8.2754-3.2334,1.223-6.52,2.3292-9.8689,3.2575-3.3483.8969-6.6929,1.6714-10.0375,2.5127a318.88,318.88,0,0,1-40.7153,7.2192,212.5417,212.5417,0,0,1-41.34.2538c-13.7472-1.2341-27.32-3.75-40.8042-6.4909-6.7578-1.3342-13.46-2.9129-20.2067-4.1822-6.7355-1.2359-13.5934-2.2273-20.416-1.6862a24.5435,24.5435,0,0,0-9.56,3.3353,52.6747,52.6747,0,0,0-8.39,5.9054,116.7887,116.7887,0,0,0-14.4327,14.8108m.1112-.1482c.0481-.1149.0148-.1909.0685-.2391l.2-.2538.3984-.5077.8135-1.0025,1.664-1.9752q1.6871-1.9567,3.4576-3.8394a91.8728,91.8728,0,0,1,7.4637-7.1469,52.7354,52.7354,0,0,1,8.3977-6.0407,25.0758,25.0758,0,0,1,9.7522-3.5058c6.9208-.6189,13.84.315,20.618,1.4879,6.793,1.2008,13.4933,2.7721,20.2437,4.06,13.4915,2.6683,27.04,5.105,40.7246,6.2631a211.3154,211.3154,0,0,0,41.0915-.467,317.17,317.17,0,0,0,40.4854-7.3952c3.3207-.8542,6.6782-1.6492,9.971-2.5516,3.2778-.9265,6.515-2.0327,9.71-3.2593,6.389-2.4552,12.6428-5.2847,18.7984-8.3106,3.08-1.51,6.1259-3.087,9.1518-4.6973l4.5232-2.4551,1.121-.6264.5614-.3131a2.2635,2.2635,0,0,1,1.0025-.3058,7.0413,7.0413,0,0,1,2.8981.7542,58.824,58.824,0,0,1,8.9775,5.4274c2.837,1.9937,5.5886,4.0876,8.29,6.2389a376.34,376.34,0,0,1,30.6779,27.7519l-1.3824,1.2137c-6.9208-8.9961-13.6138-18.1813-19.7064-27.789a135.99,135.99,0,0,1-8.37-14.92,28.5726,28.5726,0,0,1-2.7053-8.3494,5.4093,5.4093,0,0,1,.3224-2.5405,3.2117,3.2117,0,0,1,.4132-.6559,3.8062,3.8062,0,0,1,.5429-.504l.858-.6338,3.4391-2.4978c1.134-.8246,2.2179-1.6788,3.289-2.5886l1.6028-1.3749.3965-.3465a2.1986,2.1986,0,0,1,.3781-.2631,1.5621,1.5621,0,0,1,.4613-.1761,3.3341,3.3341,0,0,1,1.4343.0241,15.0206,15.0206,0,0,1,4.1561,1.7937c1.26.7338,2.4515,1.5454,3.617,2.3848A123.861,123.861,0,0,1,666.2846,469.16c8.1438,7.9493,15.6835,16.4544,22.9917,25.1337l-1.3027.9432c-6.4835-10.6176-12.7521-21.387-18.2091-32.6012a112.208,112.208,0,0,1-7.0228-17.3864,26.8708,26.8708,0,0,1-.93-4.6954,8.8142,8.8142,0,0,1,.07-2.5256,3.7385,3.7385,0,0,1,.5188-1.3416,8.6816,8.6816,0,0,1,.8579-.9672c2.1421-2.2384,4.2841-4.4786,6.3557-6.7856a321.8106,321.8106,0,0,0,23.3177-28.9545,354.7781,354.7781,0,0,0,20.0121-31.3486l1.0822.65c-4.6991,7.23-9.6485,14.2642-14.7181,21.2239-2.5609,3.4632-5.1106,6.9246-7.9252,10.23-2.8443,3.2464-5.7572,6.4094-8.7146,9.5409q-8.8748,9.3807-18.2258,18.2851c-3.0981,2.9834-6.2482,5.9166-9.4038,8.8387-3.1519,2.9222-6.3464,5.8146-9.6669,8.5756-13.3415,10.9788-28.4636,19.5673-44.14,26.6586-7.8474,3.5485-15.8578,6.7171-23.9516,9.6447-4.0542,1.4454-8.103,2.8889-12.2092,4.1952-2.066.6226-4.1154,1.2989-6.2166,1.7918-2.0846.5485-4.1767,1.0692-6.2891,1.49-16.8749,3.5632-34.102,4.9233-51.2828,5.5552-8.6.3-17.2029.3373-25.8044.18a86.0149,86.0149,0,0,1-12.817-1.69c-4.23-.7856-8.444-1.6435-12.6539-2.5089-8.4236-1.7214-16.838-3.4855-25.3042-4.9623-4.2341-.7263-8.4737-1.44-12.7355-1.96a94.56,94.56,0,0,0-12.8133-.9839c-4.2767.1667-8.2846,2.142-11.6607,4.7214a54.845,54.845,0,0,0-9.0462,9.0962c-2.709,3.3316-5.1883,6.8449-7.6028,10.3989l-3.6022,5.3476L365.42,515.61c-.5949.8876-1.2249,1.6287-1.8919,2.4978"/><path class="a" d="M472.37,133.3668c-1.1822.18-2.3626.3651-3.5466.5726a160.8136,160.8136,0,0,0-130.855,186.01c.2058,1.1841.43,2.3589.6615,3.5318A167.9981,167.9981,0,0,1,472.37,133.3668"/><path class="b" d="M472.37,133.3668c-1.1822.18-2.3626.3651-3.5466.5726a160.8136,160.8136,0,0,0-130.855,186.01c.2058,1.1841.43,2.3589.6615,3.5318A167.9981,167.9981,0,0,1,472.37,133.3668Z"/><path class="a" d="M475.904,132.7053c-1.1841.2058-2.3589.4318-3.5337.6617A160.8119,160.8119,0,1,1,338.63,323.4816c.1815,1.1822.365,2.3663.5725,3.55A168.0026,168.0026,0,0,0,533.53,463.7348C624.94,447.8234,687.4594,345.0521,671.5461,253.64c-15.9114-91.4107-104.23-136.8456-195.6421-120.9342"/><path class="b" d="M475.904,132.7053c-1.1841.2058-2.3589.4318-3.5337.6617A160.8119,160.8119,0,1,1,338.63,323.4816c.1815,1.1822.365,2.3663.5725,3.55A168.0026,168.0026,0,0,0,533.53,463.7348C624.94,447.8234,687.4594,345.0521,671.5461,253.64,655.6347,162.2288,567.3165,116.7939,475.904,132.7053Z"/><path class="a" d="M490.78,199.4577c-.769.1169-1.538.2373-2.3088.3726a104.6838,104.6838,0,0,0-85.1793,121.0823c.1335.7708.2817,1.5361.4318,2.3A109.3553,109.3553,0,0,1,490.78,199.4577"/><path class="b" d="M490.78,199.4577c-.769.1169-1.538.2373-2.3088.3726a104.6838,104.6838,0,0,0-85.1793,121.0823c.1335.7708.2817,1.5361.4318,2.3A109.3553,109.3553,0,0,1,490.78,199.4577Z"/><path class="a" d="M488.739,199.7832c-.7394.1279-1.4751.2707-2.207.4133a100.4605,100.4605,0,1,1-83.5485,118.7661c.1112.7393.2279,1.4768.3557,2.218a104.9534,104.9534,0,1,0,85.4-121.3974"/><path class="a" d="M594.9354,280.13A96.6184,96.6184,0,1,1,483.1772,201.512,96.62,96.62,0,0,1,594.9354,280.13"/><path class="c" d="M525.2265,292.2635a25.8615,25.8615,0,1,1-29.9144-21.0423,25.8629,25.8629,0,0,1,29.9144,21.0423"/><path class="b" d="M525.2265,292.2635a25.8615,25.8615,0,1,1-29.9144-21.0423A25.8629,25.8629,0,0,1,525.2265,292.2635Z"/><path class="a" d="M333.0731,498.0239c7.4823-9.9912,8.1216-9.6151,13.232-14.65,3.0537-3.0074,10.599-6.3649,4.6714-10.1969-7.499-4.8492-17.9034,24.8465-17.9034,24.8465"/><path class="a" d="M333.5553,496.8563a2.6477,2.6477,0,0,0-.0075-.5632.5643.5643,0,0,1,.0982-.5152l1.2693-1.6047c.8821-1.0877,1.7585-2.1754,2.685-3.2353a59.255,59.255,0,0,1,5.9888-5.9258c1.058-.9283,1.9567-1.877,3.1-2.8369,1.1118-.9024,2.2569-1.6843,3.3224-2.5348a7.5368,7.5368,0,0,0,2.5237-2.861c.4837-1.0821-.3984-2.1735-1.44-2.9369a3.2463,3.2463,0,0,0-1.6454-.7523,3.5913,3.5913,0,0,0-1.7936.3835,10.1766,10.1766,0,0,0-3.076,2.54,40.8191,40.8191,0,0,0-4.6176,6.8505,115.7668,115.7668,0,0,0-6.4075,13.9917m-.7264,1.866.2446-.6986a118.53,118.53,0,0,1,6.4817-15.3778,41.2272,41.2272,0,0,1,4.499-7.0839,10.8343,10.8343,0,0,1,3.2445-2.8146,4.3942,4.3942,0,0,1,2.2218-.5226,4.1207,4.1207,0,0,1,2.1235.8709,5.1908,5.1908,0,0,1,1.5972,1.6084,2.7431,2.7431,0,0,1,.2854,2.3977,8.3981,8.3981,0,0,1-2.7795,3.4336c-1.084.9135-2.2124,1.7343-3.2353,2.6145-.9691.8524-1.9678,1.9438-2.9758,2.8777a57.8627,57.8627,0,0,0-5.6961,5.9573c-.8764,1.058-1.7158,2.1587-2.5533,3.2556l-1.2731,1.701a5.438,5.438,0,0,1-1.1562,1.1489c-.3743.2668-.7282.454-1.0284.6319"/><path class="a" d="M345.61,511.6315c10.4489-13.9491,11.34-13.4266,18.4759-20.4549,4.2637-4.2007,14.8-8.8869,6.5243-14.2382-10.4711-6.7708-25,34.6931-25,34.6931"/><path class="a" d="M346.1786,510.2387c.0574-.2483.1278-.4744.1537-.6671a1.6112,1.6112,0,0,1,.3484-.845l1.7733-2.2606c1.2193-1.5194,2.4385-3.0426,3.7245-4.5194a82.4242,82.4242,0,0,1,8.3013-8.2828c1.4675-1.297,2.7442-2.65,4.3063-3.9671,1.5324-1.2564,3.13-2.357,4.6213-3.5578,1.4453-1.1951,3-2.4811,3.5725-4.108.7078-1.6361-.6263-3.2538-2.0938-4.3118a4.6783,4.6783,0,0,0-2.3959-1.0729,5.1513,5.1513,0,0,0-2.5905.5633,14.3912,14.3912,0,0,0-4.3285,3.6,57.2589,57.2589,0,0,0-6.4242,9.6132,161.8565,161.8565,0,0,0-8.9684,19.8157m-.8061,2.0642.2372-.6708a165.2483,165.2483,0,0,1,9.1315-21.43,57.6137,57.6137,0,0,1,6.3037-9.8448,15.0911,15.0911,0,0,1,4.4972-3.8765,6.0124,6.0124,0,0,1,3.02-.7,5.5653,5.5653,0,0,1,2.87,1.1934,6.7622,6.7622,0,0,1,1.1785.9654,4.79,4.79,0,0,1,.9876,1.2266,3.5215,3.5215,0,0,1,.3743,3.1871c-.7319,2.0957-2.3718,3.3947-3.8319,4.6806-1.5084,1.2638-3.0908,2.4015-4.5343,3.6356-1.3859,1.2118-2.7609,2.7071-4.1784,4.0116a80.5027,80.5027,0,0,0-8.0123,8.3125c-1.2321,1.4768-2.4125,3.011-3.5929,4.54l-1.7769,2.3569a8.4115,8.4115,0,0,1-1.4046,1.4787c-.4595.3687-.8932.6578-1.2693.9339"/><path class="a" d="M379.9746,403.3224c-5.67-17.8089-23.6365-42.5034,4.58-65.4765,28.2152-22.9713,56.3841-23.781,67.7594-34.1539,11.3736-10.3711,36.5814-33.7945,35.94-57.1123-.6429-23.3178-10.0912-26.5549,2.2625-41.3953,12.352-14.8405,46.7875-5.9833,68.8008-5.1587,22.0133.8227,30.4962-23.353,40.4874-19.2338A42.0626,42.0626,0,0,0,618.88,183.816s-64.0165-53.701-91.1291-52.4355c-27.1145,1.2675-107.7113-2.4737-152.5569,59.8547-44.8456,62.33-40.1613,117.6339-35.0434,141.7837,5.1179,24.1479,39.8241,70.3035,39.8241,70.3035"/><path class="b" d="M379.9746,403.3224c-5.67-17.8089-23.6365-42.5034,4.58-65.4765,28.2152-22.9713,56.3841-23.781,67.7594-34.1539,11.3736-10.3711,36.5814-33.7945,35.94-57.1123-.6429-23.3178-10.0912-26.5549,2.2625-41.3953,12.352-14.8405,46.7875-5.9833,68.8008-5.1587,22.0133.8227,30.4962-23.353,40.4874-19.2338A42.0626,42.0626,0,0,0,618.88,183.816s-64.0165-53.701-91.1291-52.4355c-27.1145,1.2675-107.7113-2.4737-152.5569,59.8547-44.8456,62.33-40.1613,117.6339-35.0434,141.7837C345.2684,357.1668,379.9746,403.3224,379.9746,403.3224Z"/><path class="a" d="M145.107,104.6757c33.2553-16.9268,193.66-71.3041,344.6136-59.988C640.6728,56.0055,694.9093,71.628,725.4073,78.849c30.4962,7.2229,231.7566,67.5759,246.8583,74.3411S713.5853,65.8319,610.8734,51.6863c130.9772,24.5408,213.7883,39.73,297.7724,55.5188C805.8,83.9169,641.0879,44.0576,543.54,40.3165c0,0-128.8981-9.8393-216.8031,7.8325-135.176,27.1739-181.63,56.5267-181.63,56.5267"/><path class="b" d="M145.107,104.6757c33.2553-16.9268,193.66-71.3041,344.6136-59.988C640.6728,56.0055,694.9093,71.628,725.4073,78.849c30.4962,7.2229,231.7566,67.5759,246.8583,74.3411S713.5853,65.8319,610.8734,51.6863c130.9772,24.5408,213.7883,39.73,297.7724,55.5188C805.8,83.9169,641.0879,44.0576,543.54,40.3165c0,0-128.8981-9.8393-216.8031,7.8325C191.561,75.3229,145.107,104.6757,145.107,104.6757Z"/></svg>